<?xml version="1.0" encoding="utf-8"?>
<!-- Generator: Adobe Illustrator 22.0.1, SVG Export Plug-In . SVG Version: 6.00 Build 0)  -->
<svg version="1.1" id="Layer_1" xmlns="http://www.w3.org/2000/svg" xmlns:xlink="http://www.w3.org/1999/xlink" x="0px" y="0px"
	 viewBox="0 0 500 500" style="enable-background:new 0 0 500 500;" xml:space="preserve">
<style type="text/css">
	.st0{display:none;}
	.st1{display:inline;}
	.st2{fill:#FFF9C8;}
	.st3{fill:#1A1A18;}
	.st4{stroke:#1A1A18;stroke-width:0.216;stroke-miterlimit:2.6131;}
	.st5{fill:#000003;}
	.st6{fill:#7F5F86;}
</style>
<g id="Layer_1_2_" class="st0">
	<g id="Layer_1_1_" class="st1">
		<g>
			<g>
				<path class="st2" d="M371.6,114.2c0-4.4-4-7.9-8.9-7.9H137.6c-4.8,0-8.9,3.6-8.9,7.9v270.9c0,4.4,4.1,8.1,8.9,8.1h225.1
					c4.9,0,8.9-3.6,8.9-8.1V114.2z"/>
				<path class="st3" d="M362.7,400.6H137.6c-8.9,0-16.2-6.9-16.2-15.4v-271c0-8.3,7.4-15.2,16.2-15.2h225.1
					c8.9,0,16.2,6.8,16.2,15.2v270.9C378.9,393.7,371.6,400.6,362.7,400.6z M137.6,106.3c-4.8,0-8.9,3.6-8.9,7.9v270.9
					c0,4.4,4.1,8.1,8.9,8.1h225.1c4.9,0,8.9-3.6,8.9-8.1V114.2c0-4.4-4-7.9-8.9-7.9C362.7,106.3,137.6,106.3,137.6,106.3z"/>
			</g>
			<g>
				<g>
					<path class="st3" d="M169.3,131.8v11.6h-7.1v58.8h-6.5v-58.8h-7.1v-11.6H169.3z"/>
				</g>
				<g>
					<path class="st3" d="M172.1,131.8h12.1c5.4,0,8.6,6.1,8.6,18.1c0,9.4-1.7,15.7-5.4,17.4v0.2c4.4,1.3,5.1,6.6,5.2,21.5
						c0,7.4,0.2,11.2,1.5,12.6v0.6H187c-0.6-2-0.8-4.6-0.8-7.4l-0.2-13.5c-0.1-5.5-1.2-8.9-3.9-8.9h-3.5v29.8h-6.5V131.8z
						 M178.6,162.6h2.7c3.1,0,4.9-3,4.9-10.6c0-6.5-1.6-9.8-4.5-9.8h-3.1L178.6,162.6L178.6,162.6z"/>
				</g>
				<g>
					<path class="st3" d="M203.6,131.8h8.1l8.6,70.4h-6.8l-1.5-14.9h-8.6l-1.5,14.9H195L203.6,131.8z M204.5,175.7h6.4l-3.1-31.6
						h-0.1L204.5,175.7z"/>
				</g>
				<g>
					<path class="st3" d="M230,131.8l7.9,48.2h0.1v-48.2h6v70.4h-7.4l-8-49.3h-0.1v49.3h-6v-70.4L230,131.8L230,131.8z"/>
				</g>
				<g>
					<path class="st3" d="M253.8,180.2v2.1c0,6.6,0.9,10.8,4.3,10.8c2,0,3.9-2.8,3.9-8.7c0-6.4-1.5-8.8-5.8-12
						c-5.8-4.3-8.5-9.6-8.5-21.3c0-13.7,3.9-20.7,10-20.7c5.8,0,10,5.4,10,18.9v2h-6.3c0-6.6-1-10.5-3.5-10.5c-2.9,0-3.7,4-3.7,8.2
						c0,4.3,0.6,7,3.4,9.6l5,4.7c4.9,4.6,6.2,10.1,6.2,18.6c0,14.9-4.2,21.6-11.3,21.6c-7.4,0-10.3-7.5-10.3-20.5v-2.9L253.8,180.2
						L253.8,180.2z"/>
				</g>
				<g>
					<path class="st3" d="M272.1,202.2v-70.4h6.5v58.8h11.6v11.6H272.1z"/>
				</g>
				<g>
					<path class="st3" d="M293.4,202.2v-70.4h6.5v70.4L293.4,202.2L293.4,202.2z"/>
				</g>
				<g>
					<path class="st3" d="M312.3,131.8l7.9,48.2h0.1v-48.2h6v70.4h-7.4l-8-49.3h-0.1v49.3h-6v-70.4L312.3,131.8L312.3,131.8z"/>
				</g>
				<g>
					<path class="st3" d="M348.9,131.8v11.6h-11.6V160h10.9v11.6h-10.9v18.9h12v11.6h-18.6v-70.4L348.9,131.8L348.9,131.8z"/>
				</g>
			</g>
			<g>
				<g>
					<path class="st3" d="M182.4,269.7l-1.5-7.3h-7.6l-1.5,7.3h-2.5l6.4-28.5h3.1l6.3,28.5H182.4z M173.8,259.5h6.4l-3.2-15.3
						L173.8,259.5z"/>
				</g>
				<g>
					<path class="st3" d="M193,241.2v28.5h-2.5v-28.5L193,241.2L193,241.2z"/>
				</g>
				<g>
					<path class="st3" d="M207,257.4h-3.3v12.3h-2.5v-28.5h5.1c2.4,0,4.2,0.7,5.5,2c1.2,1.4,1.9,3.3,1.9,6c0,2-0.4,3.6-1.1,4.8
						c-0.7,1.2-1.8,2.2-3.2,2.8l5.3,12.9h-2.9L207,257.4z M206.7,254.7c1.5,0,2.6-0.4,3.3-1.3c0.8-0.9,1.1-2.3,1.1-4.2
						c0-1.8-0.4-3.1-1.1-3.9c-0.8-0.8-2-1.2-3.6-1.2h-2.6v10.6L206.7,254.7L206.7,254.7z"/>
				</g>
				<g>
					<path class="st3" d="M247.7,241.4c0.8,0.4,1.6,1.1,2.4,2.1l-1.3,2.3c-0.6-0.7-1.2-1.2-1.9-1.6c-0.6-0.3-1.3-0.5-2-0.5
						c-1.7,0-3.1,0.9-4.1,2.8c-1,1.9-1.5,4.8-1.5,9c0,3.9,0.5,6.9,1.5,8.8s2.4,2.9,4.1,2.9c0.9,0,1.6-0.2,2.2-0.6
						c0.6-0.4,1.3-1,2-1.8l1.2,2.3c-0.6,0.9-1.4,1.7-2.3,2.3c-0.9,0.6-2,0.9-3.2,0.9c-1.6,0-3-0.6-4.2-1.7s-2.2-2.8-2.9-5
						s-1-4.9-1-8s0.4-5.8,1.1-8c0.7-2.2,1.7-3.9,2.9-5s2.6-1.7,4.1-1.7C246,240.7,246.9,240.9,247.7,241.4z"/>
				</g>
				<g>
					<path class="st3" d="M266.8,269.7l-1.5-7.3h-7.6l-1.5,7.3h-2.5l6.4-28.5h3.1l6.3,28.5H266.8z M258.3,259.5h6.4l-3.2-15.3
						L258.3,259.5z"/>
				</g>
				<g>
					<path class="st3" d="M280.8,257.4h-3.3v12.3H275v-28.5h5.1c2.4,0,4.2,0.7,5.5,2c1.2,1.4,1.9,3.3,1.9,6c0,2-0.4,3.6-1.1,4.8
						s-1.8,2.2-3.2,2.8l5.3,12.9h-2.9L280.8,257.4z M280.4,254.7c1.5,0,2.6-0.4,3.3-1.3c0.8-0.9,1.1-2.3,1.1-4.2
						c0-1.8-0.4-3.1-1.1-3.9c-0.8-0.8-2-1.2-3.6-1.2h-2.6v10.6L280.4,254.7L280.4,254.7z"/>
				</g>
				<g>
					<path class="st3" d="M304.7,241.5c0.9,0.5,1.8,1.3,2.6,2.3l-1.5,2.2c-0.7-0.8-1.4-1.4-2-1.8c-0.7-0.4-1.4-0.5-2.3-0.5
						c-1,0-2,0.4-2.9,1.2s-1.6,2.1-2.1,3.8s-0.8,4-0.8,6.7c0,4.1,0.5,7,1.4,8.9s2.3,2.9,4.2,2.9c1.4,0,2.7-0.4,3.8-1.3V257h-3.6
						l-0.3-2.9h6.3v13.7c-2,1.7-4.1,2.5-6.3,2.5c-2.6,0-4.6-1.3-6-3.8s-2.2-6.2-2.2-11c0-3.1,0.4-5.7,1.2-8c0.8-2.2,1.8-3.9,3.1-5
						c1.3-1.1,2.7-1.7,4.2-1.7C302.7,240.7,303.8,241,304.7,241.5z"/>
				</g>
				<g>
					<path class="st3" d="M326,242.4c1.2,1.1,2.2,2.8,2.9,5c0.7,2.2,1,4.9,1,8s-0.3,5.7-1,7.9c-0.7,2.2-1.6,3.9-2.9,5
						c-1.2,1.1-2.7,1.7-4.3,1.7c-1.6,0-3.1-0.6-4.3-1.7c-1.2-1.1-2.2-2.8-2.9-5c-0.7-2.2-1-4.8-1-8c0-3.1,0.3-5.7,1-7.9
						s1.6-3.9,2.9-5.1c1.2-1.2,2.7-1.8,4.3-1.8C323.3,240.7,324.7,241.3,326,242.4z M317.5,246.6c-1,1.9-1.5,4.9-1.5,8.9
						s0.5,6.9,1.5,8.8s2.4,2.9,4.1,2.9c1.8,0,3.2-0.9,4.1-2.8c1-1.9,1.5-4.8,1.5-8.9c0-4-0.5-7-1.5-8.9s-2.4-2.9-4.1-2.9
						C319.9,243.7,318.5,244.7,317.5,246.6z"/>
				</g>
				<g>
					<path class="st3" d="M179.2,290.8c0.9,0.5,1.8,1.4,2.6,2.5l-1.3,2.2c-0.7-0.9-1.5-1.5-2.2-1.9s-1.5-0.6-2.3-0.6
						c-1.1,0-2,0.4-2.6,1.1c-0.7,0.7-1,1.8-1,3.1c0,0.9,0.1,1.6,0.4,2.2c0.2,0.6,0.7,1.1,1.3,1.6s1.5,1,2.7,1.5
						c1.2,0.6,2.3,1.1,3.1,1.8c0.8,0.6,1.5,1.5,2,2.6s0.7,2.5,0.7,4.2s-0.3,3.1-0.8,4.4c-0.6,1.3-1.3,2.3-2.4,3
						c-1,0.7-2.3,1.1-3.7,1.1c-2.7,0-4.9-1.2-6.6-3.6l1.4-2.2c0.8,1,1.6,1.7,2.4,2.2c0.8,0.5,1.7,0.7,2.8,0.7c1.3,0,2.3-0.5,3.1-1.4
						s1.2-2.2,1.2-3.9c0-1-0.1-1.8-0.4-2.5c-0.3-0.7-0.7-1.2-1.3-1.7s-1.5-1-2.6-1.5c-2-0.9-3.5-1.9-4.4-3.2c-0.9-1.2-1.4-2.9-1.4-5
						c0-1.4,0.3-2.7,0.8-3.8c0.5-1.1,1.2-2,2.2-2.6c0.9-0.6,2-0.9,3.2-0.9C177.2,290,178.3,290.3,179.2,290.8z"/>
				</g>
				<g>
					<path class="st3" d="M203.7,290.5l-0.3,2.9h-7.7v9.6h6.7v2.9h-6.7v10.2h8.2v2.9h-10.7v-28.5H203.7z"/>
				</g>
				<g>
					<path class="st3" d="M220.6,306.8h-3.3V319h-2.5v-28.5h5.1c2.4,0,4.2,0.7,5.5,2c1.2,1.4,1.9,3.3,1.9,6c0,2-0.4,3.6-1.1,4.8
						s-1.8,2.2-3.2,2.8l5.3,12.9h-2.9L220.6,306.8z M220.3,304c1.5,0,2.6-0.4,3.3-1.3c0.8-0.9,1.1-2.3,1.1-4.2
						c0-1.8-0.4-3.1-1.1-3.9c-0.8-0.8-2-1.2-3.6-1.2h-2.6V304H220.3z"/>
				</g>
				<g>
					<path class="st3" d="M251.1,290.5l-6.3,28.5h-2.7l-6.4-28.5h2.7l5.1,24.6l5.1-24.6H251.1z"/>
				</g>
				<g>
					<path class="st3" d="M263.3,290.5V319h-2.5v-28.5H263.3z"/>
				</g>
				<g>
					<path class="st3" d="M285.5,290.7c0.8,0.4,1.6,1.1,2.4,2.1l-1.3,2.3c-0.6-0.7-1.2-1.2-1.9-1.6c-0.6-0.3-1.3-0.5-2-0.5
						c-1.7,0-3.1,0.9-4.1,2.8s-1.5,4.8-1.5,9c0,3.9,0.5,6.9,1.5,8.8s2.4,2.9,4.1,2.9c0.9,0,1.6-0.2,2.2-0.6s1.3-1,2-1.8l1.2,2.3
						c-0.6,0.9-1.4,1.7-2.3,2.3s-2,0.9-3.2,0.9c-1.6,0-3-0.6-4.2-1.7s-2.2-2.8-2.9-5c-0.7-2.2-1-4.9-1-8s0.4-5.8,1.1-8
						s1.7-3.9,2.9-5c1.2-1.1,2.6-1.7,4.1-1.7C283.7,290,284.7,290.3,285.5,290.7z"/>
				</g>
				<g>
					<path class="st3" d="M308.7,290.5l-0.3,2.9h-7.7v9.6h6.7v2.9h-6.7v10.2h8.2v2.9h-10.7v-28.5H308.7z"/>
				</g>
				<g>
					<path class="st3" d="M327.8,290.8c0.9,0.5,1.8,1.4,2.6,2.5l-1.3,2.2c-0.7-0.9-1.5-1.5-2.2-1.9s-1.5-0.6-2.3-0.6
						c-1.1,0-2,0.4-2.6,1.1s-1,1.8-1,3.1c0,0.9,0.1,1.6,0.4,2.2c0.2,0.6,0.7,1.1,1.3,1.6c0.6,0.5,1.5,1,2.7,1.5
						c1.2,0.6,2.3,1.1,3.1,1.8c0.8,0.6,1.5,1.5,2,2.6s0.7,2.5,0.7,4.2s-0.3,3.1-0.8,4.4c-0.6,1.3-1.3,2.3-2.4,3
						c-1,0.7-2.3,1.1-3.7,1.1c-2.7,0-4.9-1.2-6.6-3.6l1.4-2.2c0.8,1,1.6,1.7,2.4,2.2s1.7,0.7,2.8,0.7c1.3,0,2.3-0.5,3.1-1.4
						c0.8-0.9,1.2-2.2,1.2-3.9c0-1-0.1-1.8-0.4-2.5s-0.7-1.2-1.3-1.7c-0.6-0.5-1.5-1-2.6-1.5c-2-0.9-3.5-1.9-4.4-3.2
						c-0.9-1.2-1.4-2.9-1.4-5c0-1.4,0.3-2.7,0.8-3.8c0.5-1.1,1.2-2,2.2-2.6c0.9-0.6,2-0.9,3.2-0.9
						C325.7,290,326.8,290.3,327.8,290.8z"/>
				</g>
				<g>
					<path class="st3" d="M183.2,342c1.3,1.4,2,3.6,2,6.6c0,3.1-0.7,5.4-2.1,6.9c-1.4,1.5-3.2,2.3-5.5,2.3H175v10.6h-2.5v-28.5h5
						C180,339.8,181.9,340.6,183.2,342z M181.3,353.5c0.8-0.9,1.3-2.5,1.3-4.9c0-2.1-0.4-3.6-1.3-4.6c-0.8-0.9-2.1-1.4-3.7-1.4H175
						v12.2h2.5C179.2,354.9,180.4,354.4,181.3,353.5z"/>
				</g>
				<g>
					<path class="st3" d="M207.4,339.8l-6.3,28.5h-2.7l-6.4-28.5h2.7l5.1,24.6l5.1-24.6H207.4z"/>
				</g>
				<g>
					<path class="st3" d="M228.3,339.8l-0.3,3.1h-5.5v25.4H220v-25.4h-5.7v-3.1H228.3z"/>
				</g>
				<g>
					<path class="st3" d="M234.4,364.2c0.4,0.5,0.5,1.1,0.5,1.9c0,0.7-0.2,1.4-0.5,1.9s-0.8,0.8-1.3,0.8s-0.9-0.3-1.3-0.8
						c-0.3-0.5-0.5-1.2-0.5-1.9c0-0.7,0.2-1.3,0.5-1.9c0.4-0.5,0.8-0.8,1.3-0.8C233.6,363.5,234,363.7,234.4,364.2z"/>
				</g>
				<g>
					<path class="st3" d="M272.9,339.8v25.3h8.1l-0.3,3.1h-10.3v-28.5h2.5L272.9,339.8L272.9,339.8z"/>
				</g>
				<g>
					<path class="st3" d="M299.9,339.8l-0.3,3.1h-5.5v25.4h-2.5v-25.4H286v-3.1H299.9z"/>
				</g>
				<g>
					<path class="st3" d="M320.5,342.8c1.8,2,2.7,5.7,2.7,11.1c0,5.3-0.9,9-2.7,11.2c-1.8,2.2-3.9,3.2-6.5,3.2h-4.6v-28.5h4.1
						C316.3,339.8,318.7,340.8,320.5,342.8z M311.8,342.7v22.7h2.3c1.9,0,3.4-0.8,4.6-2.5s1.8-4.7,1.8-9c0-3.1-0.3-5.4-0.9-7.1
						c-0.6-1.6-1.4-2.7-2.3-3.3c-0.9-0.6-2-0.8-3.3-0.8L311.8,342.7L311.8,342.7z"/>
				</g>
				<g>
					<path class="st3" d="M328.8,364.2c0.3,0.5,0.5,1.1,0.5,1.9c0,0.7-0.2,1.4-0.5,1.9c-0.4,0.5-0.8,0.8-1.3,0.8s-0.9-0.3-1.3-0.8
						s-0.5-1.2-0.5-1.9c0-0.7,0.2-1.3,0.5-1.9c0.3-0.5,0.8-0.8,1.3-0.8C328,363.5,328.4,363.7,328.8,364.2z"/>
				</g>
			</g>
			<g>
				<rect x="148" y="219.6" class="st3" width="204.4" height="2.6"/>
			</g>
		</g>
	</g>
</g>
<g id="Layer_5">
	<g id="Layer_2_1_">
		<g>
			<g>
				<path d="M182.4,230.1V142H271l33.4,32.5v90.9H218l-6-6h88.1v-80.7H260v28.8l11.8-25.4h4.8v24.2l-22.8,50.3h-44.3L182.4,230.1
					L182.4,230.1z M218,224.6v16.8h26.5l7.6-16.8H218L218,224.6z M279.8,182.4v74.3h16.4v-74.3H279.8L279.8,182.4z M218,216.8v3.7
					h36.2l1.2-3.2L218,216.8L218,216.8z M218,178.7v34.6h38.3v-34.6L218,178.7L218,178.7z"/>
				<path d="M176.4,350.8H158l-3.2,7.2h-18.5l38.3-74.7h2.1V312l0,0l-11.3,23.8h11.3v15H176.4z M334.4,283.2h16.1v74.7h-16.1V283.2
					L334.4,283.2z M314.4,283.2h16.1v74.7h-16.1V283.2L314.4,283.2z M262.9,283.2H279v57.4l29.3-57.4h2.1V312l0,0l-11.8,24.2h11.8
					v14.5h-18.9l-3.2,7.2h-25.4V283.2L262.9,283.2z M180.8,283.2H197v7.6c5.5-3.9,11.3-7.2,19.6-8.1v16.4c-11.3,2.1-18,12-18,21.7
					c0,11.3,8.5,20.1,18,21.2v15.7c-10.4-1.2-16.4-5.5-19.6-8.1v8.1h-16.1v-33.4c-0.5-1.2-0.5-2.3-0.5-3.7s0-2.3,0.5-3.7
					L180.8,283.2L180.8,283.2z M259,350.8h-18.9c-0.7,2.8-2.1,5.3-3.2,7.2c-5.3,0-15.7,0-15.7,0l0,0v-4.8v-10.1c0.5,0,0.7,0,1.2,0
					c1.2,0,2.3,0,3.9,0l30.4-60h2.1v28.8l0,0L247,335.6h11.8v15.2L259,350.8L259,350.8z M221.2,282.5v16.4c7.2,0,13.6,3.2,18,10.1
					l8.1-15.7C240.1,286.4,230.9,282.7,221.2,282.5z"/>
			</g>
		</g>
	</g>
</g>
<g id="Layer_2_2_" class="st0">
	<g class="st1">
		<path d="M165.7,283.1h11.5l-6.2,34.8h-11.5L165.7,283.1L165.7,283.1z M214.4,283.1h11.5l6.2,34.8H221l-0.9-4.4h-11.5l-1.8,4.4
			h-11.1L214.4,283.1L214.4,283.1z M212.3,305.9h7.4l-1.8-12.2L212.3,305.9L212.3,305.9z M256.4,283.1H288l-1.4,9.2h-10.1l-4.4,25.6
			h-11.5l4.4-25.6h-10L256.4,283.1L256.4,283.1z M319.8,283.1h12l6.2,34.8h-11.5l-0.5-4.4h-11.5l-1.8,4.4h-11.5L319.8,283.1
			L319.8,283.1z M318,305.9h7.2l-1.4-12.2L318,305.9z"/>
		<path d="M168.7,334.5h-2.5c0-0.5,0-0.9,0-1.4c0-0.9,0-1.8-0.9-2.3c-0.5-0.5-1.4-0.5-2.3-0.5c-1.4,0-2.5,0.5-3.5,1.4
			c-1.4,0.9-2.3,2.5-3,5.3c-0.5,2.5-0.9,4.8-0.9,6.2c0,2.3,0.9,3.5,3,3.5c1.4,0,2.5-0.5,3.5-1.4c0.9-0.9,1.8-2.3,2.3-4.4h2.5
			c-0.5,2.5-1.8,4.4-3,5.8c-1.8,1.4-3.9,2.3-6.7,1.8c-3,0-4.4-1.8-4.4-4.8c0-1.4,0-2.5,0.5-3.9l0.5-2.5c0.9-2.3,1.8-3.9,2.5-5.3
			c0.9-0.9,1.8-2.3,3-2.5c1.4-0.5,2.5-0.9,3.9-0.9c1.8,0,3,0.5,3.9,0.9c0.9,0.9,1.4,2.3,1.4,3.5
			C168.7,333.1,168.7,334.1,168.7,334.5L168.7,334.5z M174.9,340.8h6.2v-10.6L174.9,340.8L174.9,340.8z M179.3,328.8l-11.5,19.4h3
			l3-5.3h7.2l0.5,5.3h3l-1.8-19.4H179.3L179.3,328.8z M193.4,337.5h4.4c1.4,0,2.5-0.5,3.9-1.4c0.9-0.9,1.4-1.8,1.4-3
			c0-0.9-0.5-1.8-0.9-1.8c-0.9-0.5-1.8-0.9-3.5-0.9h-3L193.4,337.5L193.4,337.5z M188.1,348.1l5.3-19.4h6.2c2.5,0,3.9,0.5,4.8,0.9
			c1.4,0.5,1.8,1.8,1.8,2.5c0,1.4-0.5,2.3-0.9,3c-0.5,0.9-1.4,1.8-2.3,2.3c-0.9,0.5-2.3,0.9-3.5,0.9c1.8,0,2.5,0.5,3,0.9
			c0.5,0.5,0.9,0.9,0.9,1.8s-0.5,1.8-0.5,3c0,1.4-0.5,2.3-0.5,2.5c0,0.9,0.5,0.9,0.9,0.9l-0.5,0.5h-2.5c-0.5-0.9-0.5-2.3,0-3.5
			c0-1.4,0.5-2.3,0.5-2.5c0-0.9-0.5-1.4-0.9-1.8c-0.5-0.5-1.4-0.5-3-0.5H193l-2.3,8.3L188.1,348.1L188.1,348.1z M219.7,340.3h-5.3
			l0.5-1.8h7.8l-2.5,10.1h-2.3l0.9-3.5c-0.5,1.4-1.4,2.3-2.5,2.5c-0.9,0.9-2.3,0.9-3.5,0.9c-1.4,0-2.3,0-3-0.5
			c-1.8-0.5-2.5-2.3-2.5-4.8c0-1.8,0.9-4.4,1.8-7.8c0.9-2.3,2.3-3.9,3.5-5.3c1.8-0.9,3.5-1.8,5.8-1.8c1.8,0,3,0.5,4.4,0.9
			c0.9,0.9,1.4,2.3,1.4,3.5c0,0.5,0,1.4,0,1.8h-2.5c0-0.5,0-0.9,0-1.4c0-1.8-1.4-3-3.5-2.5c-1.8,0-3,0.5-4.4,1.8
			c-0.9,0.9-1.8,3-2.5,6.2c-0.5,1.8-0.9,3.5-0.9,4.8s0.5,2.3,0.9,2.5c0.5,0.5,1.4,0.9,2.5,0.9c1.8,0,3-0.5,4.4-1.8
			C218.5,344.2,219.2,342.4,219.7,340.3L219.7,340.3z M239.5,335c0-3-0.9-4.4-3.9-4.4c-1.4,0-2.3,0.5-3,0.9
			c-1.4,0.9-1.8,2.3-2.5,3.5c-0.9,2.3-1.8,4.8-1.8,7.4c0,1.8,0,2.5,0.5,3.5c0.9,0.5,1.8,0.9,2.5,0.9c2.3,0,3.5-0.5,4.4-1.4
			s1.8-2.5,2.5-5.3C239.1,338.4,239.1,336.8,239.5,335L239.5,335z M225.9,339.4c0.5-1.8,0.9-3.5,1.4-4.8c0.9-1.8,1.8-3,3.5-4.4
			c1.4-1.4,3-1.8,5.8-1.8c2.3,0,3.5,0.5,4.4,1.4s1.4,2.3,1.4,3.9c0,2.3-0.5,4.8-1.8,7.8c-0.5,1.4-0.9,2.5-1.8,3.9
			c-0.9,0.9-2.3,1.8-3.5,2.5c-1.4,0.5-2.5,0.9-4.4,0.5c-2.3,0-3.5-0.5-3.9-1.4c-0.9-0.9-1.4-2.3-1.4-3.5c0-0.9,0-1.4,0-1.8
			c0-0.5,0-0.5,0-0.9C225.9,340.8,225.9,339.8,225.9,339.4L225.9,339.4z M259.8,340.8h6.2l-0.5-10.6L259.8,340.8L259.8,340.8z
			 M264.2,328.8h3.5l1.8,19.4h-3l-0.5-5.3h-7.4l-3,5.3h-3L264.2,328.8L264.2,328.8z M286.6,340.3h-5.3l0.5-1.8h7.8l-2.5,10.1h-2.3
			l0.9-3.5c-0.5,1.4-1.4,2.3-2.5,2.5c-1.4,0.9-2.5,0.9-3.9,0.9c-0.9,0-2.3,0-2.5-0.5c-1.8-0.5-2.5-2.3-2.5-4.8
			c0-1.8,0.5-4.4,1.8-7.8c0.9-2.3,2.3-3.9,3.5-5.3c1.4-0.9,3.5-1.8,5.3-1.8s3.5,0.5,4.4,0.9c0.9,0.9,1.8,2.3,1.8,3.5
			c0,0.5,0,1.4-0.5,1.8H288c0.5-0.5,0.5-0.9,0.5-1.4c0-1.8-1.4-3-3.9-2.5c-1.8,0-3,0.5-3.9,1.8c-0.9,0.9-2.3,3-2.5,6.2
			c-0.5,1.8-0.9,3.5-0.9,4.8s0,2.3,0.9,2.5c0.5,0.5,1.4,0.9,2.3,0.9c1.8,0,3.5-0.5,4.4-1.8C285.4,344.2,285.9,342.4,286.6,340.3
			L286.6,340.3z M307.3,328.8h-11.5l-5.3,19.4h12l0.5-1.8h-8.8l1.8-7.4h8.3l0.5-1.8h-8.3l1.4-6.7h9.2L307.3,328.8L307.3,328.8z
			 M310.1,348.1h-2.5l4.8-19.4h4.4l2.5,17.1v1.4l4.4-18.5h2.5l-4.8,19.4H317l-2.5-16.4v-2.3L310.1,348.1L310.1,348.1z M328.6,328.8
			h14.5l-0.5,1.8h-6.2l-4.4,17.5h-2.5l4.4-17.5h-6.2L328.6,328.8z"/>
		<path class="st4" d="M139.6,216.7h59.5c1.8,17.5,10.6,37.4,36,45.4l-1.8,4.8h-59.1l-6.2-8.3l42.2-0.5l-3.9-4.8h-41.8l-5.8-7.4H201
			l-3-5.8h-42.7l-6.2-7.8l42.2-0.5l-3.9-6.2h-42.7L139.6,216.7z"/>
		<path class="st4" d="M354.9,216.9h-59.5c-1.8,17.5-10.1,37.4-36,45.4l2.3,4.8h59.1l6.2-8.3l-42.2-0.5l3.5-4.8h41.8l5.8-7.4h-42.2
			l3-5.8h42.7l6.2-7.8l-42.2-0.5l3.9-6.2h42.4L354.9,216.9z"/>
		<g>
			<path d="M245.5,230.8V216h-17.3c0.1,5.6,1.1,11.5,3,17.5C235.8,231.9,240.5,231.1,245.5,230.8z"/>
			<path d="M266.2,216h-17.5v14.8c4.5,0.1,9.3,1,14.3,2.7C264.8,227.8,265.9,221.9,266.2,216z"/>
			<path d="M240.9,178.7c-3.5,4.7-6.3,9.7-8.6,15.1c4.3,1.5,8.7,2.4,13.2,2.5v-18.2C243.9,178.2,242.4,178.4,240.9,178.7z"/>
			<path d="M232.2,236.5c1.8,5,4.5,10.5,8,16.5c1.8,0.3,3.5,0.7,5.3,0.8v-19.6C241.1,234.3,236.7,235.1,232.2,236.5z"/>
			<path d="M254,252.8c3.4-5.6,6.1-11,8-16.1c-4.3-1.4-8.6-2.2-13.3-2.5v19.3C250.7,253.5,252.4,253.2,254,252.8z"/>
			<path d="M231,196.9c-1.7,5.1-2.7,10.4-3,15.8h17.5v-13.2C240.6,199.5,235.8,198.6,231,196.9z"/>
			<path d="M218.3,190.7c-5.4,6.5-8.5,14.1-9.1,22h15.4c0.1-5.8,1.2-11.4,3.1-17.1C224.3,194.3,221.3,192.7,218.3,190.7z"/>
			<path d="M253.6,178.7c-1.7-0.3-3.3-0.5-4.9-0.6V196c4.8-0.3,9.1-1.2,13.3-2.7C260.1,188.7,257.3,183.7,253.6,178.7z"/>
			<path d="M229.1,237.7c-2.9,1.1-6,2.7-9.3,4.7c4.5,4.5,9.9,7.9,16,9.7C233,246.9,230.8,242.3,229.1,237.7z"/>
			<path d="M273.7,242c-2.9-1.7-5.7-3.1-8.6-4.3c-1.7,4.6-3.9,9.3-6.5,13.9C264.1,249.8,269.3,246.5,273.7,242z"/>
			<path d="M276,239.6c5.4-6.8,8.3-15,8.3-23.6h-14.8c-0.1,5.7-1.2,11.7-3.4,18.7C269.4,235.9,272.6,237.5,276,239.6z"/>
			<path d="M227.9,234.6c-1.9-6-3-12.2-3.4-18.4h-15.7c0.1,8.6,3,16.9,8.5,23.8C220.9,237.8,224.4,236,227.9,234.6z"/>
			<path d="M263.3,196.4c-5,1.8-9.7,2.8-14.5,3.1v13.2h17.5C266.2,207.1,265.2,201.6,263.3,196.4z"/>
			<path d="M284,213c-0.6-8.1-3.9-15.9-9.4-22.1c-2.7,1.6-5.5,3.2-8.5,4.5c2,5.7,3,11.6,3.1,17.6H284z"/>
			<path d="M265.1,192.1c2.6-1.2,5-2.4,7.2-3.8c-3.8-3.7-8.6-6.5-13.7-8.2C261.2,183.9,263.3,187.8,265.1,192.1z"/>
			<path d="M220.9,188.5c2.7,1.5,5.4,2.9,8.1,4c1.7-4.3,4-8.5,6.9-12.7C230.4,181.5,225.3,184.4,220.9,188.5z"/>
		</g>
	</g>
</g>
<g id="Layer_3" class="st0">
	<g class="st1">
		<polygon points="228.3,280.2 230.9,273.3 223.7,277.9 		"/>
		<path d="M303.3,297.7c11.8-8.8,23.3-17.8,34.8-26.5c-6.7,0.7-13.4,1.4-20.3,1.8c1.2-4.4,2.1-8.8,2.1-13.4
			c0.2-12.7-4.2-24.9-12.7-35.5c5.3-10.6,13.4-20.5,10.1-31.4c-6-21.2-35.8-20.5-52.1-6.9c-4.2,3.5-8.1,7.4-11.5,11.5
			c-27.5,2.3-48.4,16.6-56.5,39c-0.9,2.5-1.6,5.1-2.1,7.6c-14.3-12.2-23.5-25.4-26.1-39.7c-4.6,6-8.5,11.5-12.7,17.1
			c6.9,21.7,22.4,39.9,41.3,56.7l0,0c4.4,12.5,12.2,24.7,23.5,35.8l0.9-0.9c2.1,12.2,5.8,22.4,11.8,28.8c13.6,13.6,27,11.5,37.6-5.5
			c2.8-5.3,3.5-12.5,4.4-19.1C286.9,311.8,296.2,305.1,303.3,297.7z M289.5,295.4l-8.5-0.5l-0.9-2.1h-8.5l-1.4,2.1h-8.3l12.7-17.1h9
			L289.5,295.4z M242.4,278.8l0.9-5.1l17.1,3.5l-0.9,5.1l-5.5-1.4l-3,13.6l-6-0.9l3-14.1L242.4,278.8z M285.5,265.2
			c-6.5-2.5-9.5-5.5-3.9-9.5c5.1,3.5,10.1,3.5,15.7,0c0,3.5,2.1,4.6,6.9,4.6C298.5,264.8,292,268.2,285.5,265.2z M298.5,200.9
			c-0.5,3.9-1.8,7.4-3.7,10.8c-4.4-3.5-9.2-6.5-14.5-9.2c1.2-1.4,2.3-2.5,3.5-3.9C296.6,183.3,299.6,189.6,298.5,200.9z
			 M278.4,204.3l-0.5,0.9c5.5,2.8,10.6,6,15,9.5c-1.2,2.1-2.5,4.4-3.7,6.5c3.7,2.3,6.7,4.4,9.7,6.5l-9.7,0.7l-5.5,5.5l6,7.2
			l-14.1,12.5l-5.1,1.4l3.5,4.2l-13.8,13.1c-5.3-0.7-10.1-1.8-14.5-3.2C251.4,246.5,260.2,226,278.4,204.3z M222.8,263.1
			c-4.4-2.5-8.5-5.1-12.7-7.8c3.7-5.5,22.8-31.8,22.8-31.8l0.5-18c5.3-2.1,11.1-3.5,17.3-4.2C237.6,218.2,229,239.4,222.8,263.1z
			 M197.7,274.4l9.9-16.6l5.1,3.5l-9.5,16.1L197.7,274.4z M186.1,255.8l-4.6,4.6l-4.2-4.6l13.1-13.1l10.6,10.6l-3.5,3l-6-6l-2.5,2.5
			l5.1,4.6l-3.5,3L186.1,255.8z M211,296.6c2.1-1.6,4.8-1.8,7.4-1.6c0.7,0.5,1.2,0.9,1.8,1.4c0.2,4.4,0.7,8.8,1.4,12.9
			C217.5,305.1,214,301,211,296.6z M232.7,289.9l-6.9-3.5l0.9-2.5l-7.2-3.5L217,282l-6.9-3.5l21.2-12l7.2,3.5L232.7,289.9z
			 M256.9,309.5c-0.9,4.6-1.4,9-2.1,13.6c-2.5,12.5-6.5,12.7-9.5,0.5c-2.1-9.5-2.1-18.7-3.5-28.6c15.2,3.7,33.4,4.8,53.1,5.8
			c-5.3,4.4-11.8,8.5-18.9,12c0.2-0.9,0.2-1.8,0.5-2.8C270.5,309,262.9,310.4,256.9,309.5z"/>
		<path d="M194.2,284.8c-12.7,0.9-25.1-0.9-36.2-4.6c-1.4,7.6-1.6,15.5,4.6,21.2c14.5,3.5,29.5,1.6,44.1-1.4
			C197.2,295,193,289.9,194.2,284.8z"/>
		<path d="M200.2,217.7c4.2-5.1,8.1-10.6,12-15.7c-15.5-7.2-28.6-9-39.7-5.1c0.9,5.1,1.6,10.6,2.5,15.7
			C182.7,210.1,191.2,211.9,200.2,217.7z"/>
		<polygon points="265.9,250.2 268.9,254.1 280,237.5 270.5,237.8 271.5,245.6 		"/>
		<polygon points="279.5,289.4 277.9,283 274,289 		"/>
	</g>
</g>
<g id="Layer_4" class="st0">
	<g class="st1">
		<path class="st5" d="M170.9,298.1c2.1-5.5,2.8-10.1,2.8-13.6c-8.1-5.5-6.5-12.5-12-14.8c-6,2.1-12,3.2-18.5,4.8
			c-9.2-6.5-12-15.7-9.7-26.5c1.6-3.2,3.2-6.9,4.8-10.1c2.8-1.2,1.6-2.3,4.8-3.7c-3.2-0.7-2.3-1.6-5.3-2.3c0-2.3,0-4.8,0-7.6
			c2.1-0.7,3.9-1.2,6.5-2.1c-0.7-1.6-1.6-3.2-2.3-4.8c1.6-1.6,2.8-3.7,3.9-5.3c1.6-2.8,3.2-5.5,4.8-8.5c-1.2,0.7-2.1,2.1-3.2,3.2
			c-2.3-0.5-4.8-0.7-7.2-1.2c0-2.8,0-5.5,0-8.1c3.9-1.2,7.6-3.2,11.5-4.4c-14.5-8.1-38.1-7.6-52.1-1.6c-0.5,2.3-2.3,4.4-2.3,6.9
			c-3.2,1.6-6.9,1.6-9.7,3.7c0,2.1,0.5,3.9,0.7,6.5c3.2-1.6,6.5-2.8,9.2-4.4c1.2,2.8,2.1,5.5,2.8,8.8c-3.7,2.8-7.2,2.8-10.8,0
			c0,2.3,0,4.8,0,7.6c-10.1,0-17.3,4.8-21.2,13.6c-3.7-1.2-6.9-2.3-10.4-3.2c-0.7,2.3-1.6,4.8-2.8,7.6c2.1,3.9,3.9,8.1,6,12.5
			c-3.7-3.7-7.2-7.2-10.8-10.8c-8.1,30.4,0,64.4,28.8,84.4c-5.5-6-4.8-15.2-6-24.5c-6.9-4.8-11.3-11.5-12.5-18
			c0-8.1,0.5-16.1,0.5-24c3.9,1.2,7.6,2.1,11.5,2.8c7.6,7.6,15.2,14.8,22.8,22.6c4.4,1.6,8.8,3.2,13.1,4.8c0,4.8,0,9.7,0,14.5
			c-2.1,4.8-4.8,6.9-7.6,6.5c-3.9,6-8.5,15.2-12,21.2c15.2,10.1,43.8,14.1,69.2,0c4.8-2.3,9.7-6,14.5-10.4
			C170.9,313.4,168.6,304.6,170.9,298.1z M123.8,201.7c-2.3,0-4.8,0-7.6,0c-0.5,0.7-1.2,1.6-1.6,2.3c-2.1,2.3-2.8,4.8-5.3,2.3
			c0.5-2.3,0.5-5.3,0.7-7.6c0.7-2.1,1.6-3.9,2.8-6c3.7,0.7,7.2,0.7,11.3-1.2C123.8,195.2,123.8,198.5,123.8,201.7z"/>
		<path class="st5" d="M147.1,235.4c0-3.9,0-7.6,0-11.3c2.8-0.7,5.3-1.6,8.1-2.3c2.8,0.5,5.5,0.5,8.5,0.7c2.3,1.2,4.8,2.8,7.6,3.9
			c-1.2-2.1-2.1-4.4-2.8-6.5c-0.7-1.6-1.6-3.7-2.3-5.3c2.3,0.5,4.8,0.7,7.6,0.7c-0.5-1.6,0-3.7,0-5.5c5.5,0.7,8.8,4.4,11.5,10.1
			c-3.7,0.5-7.2,0.5-10.8,0.7c-0.5,2.3-0.5,4.4-0.7,6.5c2.1,0,4.4,0,6.5-0.5c0.5,2.3,0.7,4.4,1.2,6.5c4.8,5.3,8.1,8.5,12.5,13.6
			c0.5,0,1.2-8.1,2.1-7.6c0.5,0,3.7,16.4,3.7,18.9c-0.5,0-1.2,25.4-2.8,26.1c-2.1,1.2-0.7-21.7-2.1-22.8c0,0,3.2,0.5,2.8-1.6
			c0-0.5,0.7-3.9,0-6c-1.2-1.6-4.4-1.2-4.8-1.2c-4.4-5.3-8.8-10.8-13.1-16.1C168.6,236.3,158,235.8,147.1,235.4z"/>
		<path class="st5" d="M209.4,200.8h15.7v47.1c0.5,6.5,8.1,6.9,8.1-0.5l0.5-46.6h13.1l-0.5,46.1c0.7,8.1,8.1,8.1,9.2,0v-46.1
			l14.1-0.7v48.2c0,6-2.1,12.5-8.1,18.5h-16.1c-2.1-2.1-4.4-6.5-4.8-11.3c-1.6,4.4-3.7,8.5-6.9,10.8h-14.1
			c-6-2.8-8.5-11.3-10.1-18.5L209.4,200.8L209.4,200.8z"/>
		<path class="st5" d="M316,227.1l-0.5-17.8c-2.1-13.1-36.2-12.9-36.9,1.2c0,16.1,0,30.9,0.5,47.1c6,15.2,33,13.1,36.9,1.2v-19.6
			h-12.5L303,254c-2.1,6-8.8,5.3-10.8,0c0-12.9,0-25.4,0-38.1c-0.7-6,8.8-6.5,10.4-0.5l0.5,11.5H316V227.1z"/>
		<path class="st5" d="M325.2,200.5h12.9c2.3,7.6,7.2,14.8,10.8,17.8l0.5-18h12.9V267h-13.6v-26.5c-3.2-8.1-10.8-14.8-9.2-14.5v40.4
			h-14.1v-65.7h-0.2V200.5z"/>
		<path class="st5" d="M372.3,221.3c0,14.5,0.5,30.9,0,45.9h12.5v-11.3l9.7-0.5V267l13.1-0.7v-47.1
			C400.6,193.2,377.8,193.2,372.3,221.3z M394.2,247.1h-9.9v-21.2c-0.5-9.7,8.8-10.4,10.1,0v21.2H394.2z"/>
		<path class="st5" d="M211,278.7h4.4l1.6,7.2c0,0.7,0.5,1.6,0.5,2.3c0,0.7,0,1.6,0.5,2.8l2.8-12.5h3.7l2.8,12.5c0-0.7,0-1.6,0-2.3
			c0.5-0.7,0.5-1.6,0.5-2.3l1.6-7.6h4.4l-4.4,16.4h-3.7l-2.3-9.2c-0.5-0.5-0.5-0.7-0.5-1.6c0-0.7,0-1.2-0.5-2.1c0,0.7,0,1.6,0,2.1
			c-0.5,0.7-0.5,1.2-0.5,1.6l-2.3,9.2h-3.9L211,278.7L211,278.7z M240.3,292.8c0.5,0,1.2-0.5,1.6-0.7c0.5-0.7,0.5-1.2,0.5-2.3
			c0-0.7,0-1.6-0.5-2.3c-0.5-0.5-1.2-0.7-1.6-0.7c-0.7,0-1.6,0.5-2.1,0.7c-0.5,0.7-0.5,1.6-0.5,2.3c0,1.2,0,1.6,0.5,2.3
			C238.9,292.4,239.6,292.8,240.3,292.8L240.3,292.8z M246.5,289.6c0,2.1-0.5,3.2-1.6,4.4c-1.2,0.7-2.8,1.6-4.4,1.6
			c-2.1,0-3.7-0.7-4.8-1.6c-1.2-1.2-1.6-2.3-1.6-4.4c0-1.6,0.5-3.2,1.6-3.9c1.2-1.2,2.8-1.6,4.8-1.6c1.6,0,3.2,0.5,4.4,1.6
			C246.1,286.4,246.5,288,246.5,289.6L246.5,289.6z M249.3,295.4v-11.3h3.9v2.1c0.5-0.7,0.7-1.2,1.2-1.6c0.7-0.5,1.2-0.5,2.1-0.5
			v2.8l0,0c-1.2,0-2.1,0-2.3,0.5c-0.5,0.5-0.5,1.6-0.5,2.8v5.3L249.3,295.4L249.3,295.4z M259,295.4v-17.8h4.4v17.8H259L259,295.4z
			 M274.2,289.6c0-1.2-0.5-2.1-0.5-2.3c-0.5-0.5-0.7-0.7-1.6-0.7c-0.5,0-0.7,0.5-1.2,0.7c-0.5,0.5-0.5,1.2-0.5,2.3
			c0,0.7,0,1.6,0.5,2.3c0.5,0.5,0.7,0.7,1.6,0.7c0.5,0,0.7-0.5,1.2-0.7C273.8,291.7,274.2,290.7,274.2,289.6L274.2,289.6z
			 M278.1,295.4h-3.9v-1.6c-0.5,0.7-0.7,1.2-1.6,1.2c-0.5,0.5-1.2,0.7-1.6,0.7c-1.6,0-2.8-0.7-3.2-1.6c-0.7-1.2-1.2-2.3-1.2-4.4
			c0-1.6,0.5-3.2,1.2-3.9c0.7-1.2,1.6-1.6,3.2-1.6c0.5,0,1.2,0,1.6,0.5c0.7,0.5,1.2,0.7,1.6,1.2v-8.1h3.9V295.4L278.1,295.4z
			 M291.1,284.1l1.2,4.8c0,0.5,0,0.7,0,1.2c0.5,0.7,0.5,1.6,0.5,2.1c0-0.5,0.5-1.2,0.5-1.6c0-0.7,0-1.2,0.5-1.6l1.2-4.8h3.7
			l-3.7,11.3h-3.7l-1.2-4.8c0,0,0-0.5,0-1.2c-0.5-0.5-0.5-1.2-0.5-2.3v0.7c-0.5,1.6-0.5,2.8-0.5,2.8l-1.2,4.8h-3.7l-3.9-11.3h3.9
			l1.2,4.8c0,0,0,0.7,0.5,2.1v1.2c0.5-0.5,0.5-1.2,0.5-1.6c0-0.7,0.5-1.2,0.5-1.6l1.2-4.8L291.1,284.1L291.1,284.1z M300.3,281.3
			c0-0.7,0.5-1.2,0.7-1.6c0.5,0,1.2-0.5,1.6-0.5c0.7,0,1.2,0.5,1.6,0.5c0.7,0.5,0.7,0.7,0.7,1.6c0,0.5,0,0.7-0.7,1.2
			c-0.5,0.5-0.7,0.5-1.6,0.5c-0.5,0-1.2,0-1.6-0.5C300.7,282,300.3,281.5,300.3,281.3L300.3,281.3z M300.7,295.4v-11.3h3.9v11.3
			H300.7L300.7,295.4z M315.5,289.6c0-1.2,0-2.1-0.5-2.3c0-0.5-0.7-0.7-1.2-0.7c-0.7,0-1.2,0.5-1.2,0.7c-0.5,0.5-0.5,1.2-0.5,2.3
			c0,0.7,0,1.6,0.5,2.3c0,0.5,0.7,0.7,1.2,0.7c0.7,0,1.2-0.5,1.2-0.7C315.5,291.7,315.5,290.7,315.5,289.6L315.5,289.6z
			 M319.7,295.4h-3.9v-1.6c-0.5,0.7-0.7,1.2-1.2,1.2c-0.7,0.5-1.2,0.7-2.1,0.7c-1.2,0-2.3-0.7-3.2-1.6c-0.7-1.2-1.2-2.3-1.2-4.4
			c0-1.6,0.5-3.2,1.2-3.9c0.7-1.2,2.1-1.6,3.2-1.6c0.7,0,1.2,0,2.1,0.5c0.5,0.5,0.7,0.7,1.2,1.2v-8.1h3.9V295.4L319.7,295.4z
			 M331.2,288.9c0-0.7-0.5-1.6-0.7-2.1c-0.5-0.5-0.7-0.5-1.6-0.5c-0.7,0-1.2,0-1.6,0.5c-0.5,0.5-0.5,1.2-0.5,2.1H331.2L331.2,288.9z
			 M326.8,290.5L326.8,290.5c0,0.7,0,1.6,0.5,2.1s1.2,0.7,1.6,0.7c0.7,0,1.2,0,1.2-0.5c0.5,0,0.7-0.5,0.7-0.7h3.7
			c-0.5,0.7-0.7,2.1-2.1,2.3c-0.7,0.7-2.1,1.2-3.7,1.2c-2.1,0-3.2-0.7-4.4-1.6c-1.2-1.2-1.6-2.3-1.6-4.4c0-1.6,0.5-3.2,1.6-3.9
			c1.2-1.2,2.3-1.6,4.4-1.6s3.2,0.5,4.4,1.2c0.7,1.2,1.6,2.8,1.6,4.8v0.5L326.8,290.5L326.8,290.5z M358.9,295.4c-0.5,0-0.7,0-1.6,0
			c-0.5,0.5-0.7,0.5-1.2,0.5c-2.8,0-5.3-0.7-6.9-2.3c-1.6-1.6-2.8-3.7-2.8-6c0-2.8,1.2-4.8,2.8-6.5c1.6-1.6,3.9-2.3,6.9-2.3
			c0.5,0,0.7,0,1.2,0c0.7,0,1.2,0.5,1.6,0.5v3.2c-0.5-0.5-0.7-0.5-1.2-0.5s-0.7,0-1.2,0c-1.6,0-2.8,0.5-3.7,1.2
			c-1.2,1.2-1.6,2.3-1.6,3.9s0.5,2.8,1.6,3.9c0.7,0.7,2.1,1.2,3.7,1.2c0.5,0,0.7,0,1.2,0s0.7,0,1.2-0.5V295.4L358.9,295.4z
			 M369.3,289.6c0-1.2-0.5-2.1-0.7-2.3c0-0.5-0.7-0.7-1.2-0.7c-0.7,0-1.2,0.5-1.6,0.7c0,0.5-0.5,1.2-0.5,2.3c0,0.7,0.5,1.6,0.5,2.3
			c0.5,0.5,0.7,0.7,1.6,0.7s1.2-0.5,1.2-0.7C369,291.2,369.3,290.5,369.3,289.6L369.3,289.6z M373,295.4h-3.7v-1.6
			c-0.7,0.5-1.2,1.2-1.6,1.2c-0.7,0.5-1.2,0.7-2.1,0.7c-1.2,0-2.3-0.7-3.2-1.6c-0.7-1.2-1.2-2.3-1.2-4.4c0-1.6,0.5-3.2,1.2-3.9
			c0.7-1.2,2.1-1.6,3.2-1.6c0.7,0,1.2,0,2.1,0.5c0.5,0.5,0.7,0.7,1.6,1.2v-1.6h3.7V295.4L373,295.4z M377.1,295.4v-11.3h3.7v2.1
			c0.5-0.7,0.7-1.2,1.2-1.6c0.7-0.5,1.6-0.5,2.1-0.5v2.8l0,0c-1.2,0-2.1,0-2.3,0.5c-0.5,0.5-0.5,1.6-0.5,2.8v5.3L377.1,295.4
			L377.1,295.4z M393.5,284.1h3.9v10.4c0,2.3-0.5,3.9-1.2,4.8c-0.7,0.7-2.3,1.2-4.8,1.2c-1.6,0-2.8-0.5-3.9-1.2
			c-0.7-0.5-1.2-1.6-1.2-2.8l0,0h3.2c0,0.5,0.5,0.7,0.7,1.2c0,0.5,0.7,0.5,1.2,0.5c0.7,0,1.2,0,1.6-0.5c0.5-0.5,0.5-0.7,0.5-1.6
			v-2.3c-0.5,0.7-0.7,1.2-1.6,1.2c-0.5,0.5-0.7,0.5-1.6,0.5c-1.6,0-2.3-0.5-3.2-1.2c-0.7-1.2-1.2-2.3-1.2-4.4c0-1.6,0.5-3.2,1.2-3.9
			c0.7-1.2,2.1-1.6,3.2-1.6c0.7,0,1.2,0,2.1,0.5c0.5,0.5,0.7,0.7,1.2,1.2L393.5,284.1L393.5,284.1z M393.5,289.6
			c0-1.2,0-2.1-0.5-2.3c-0.5-0.5-0.7-0.7-1.2-0.7c-0.7,0-1.2,0.5-1.6,0.7c0,0.5-0.5,1.2-0.5,2.3c0,0.7,0.5,1.6,0.5,2.3
			c0.5,0.5,0.7,0.7,1.6,0.7c0.5,0,0.7-0.5,1.2-0.7C393.5,291.7,393.5,290.7,393.5,289.6L393.5,289.6z M406.6,292.8
			c0.7,0,1.2-0.5,1.6-0.7c0.5-0.7,0.7-1.2,0.7-2.3c0-0.7-0.5-1.6-0.7-2.3c-0.5-0.5-0.7-0.7-1.6-0.7c-0.7,0-1.2,0.5-1.6,0.7
			c-0.5,0.7-0.7,1.6-0.7,2.3c0,1.2,0.5,1.6,0.7,2.3C405.5,292.4,405.9,292.8,406.6,292.8L406.6,292.8z M412.9,289.6
			c0,2.1-0.5,3.2-1.6,4.4c-1.2,0.7-2.3,1.6-4.4,1.6s-3.7-0.7-4.4-1.6c-1.2-1.2-2.1-2.3-2.1-4.4c0-1.6,0.7-3.2,2.1-3.9
			c0.7-1.2,2.3-1.6,4.4-1.6s3.2,0.5,4.4,1.6C412.4,286.4,412.9,288,412.9,289.6L412.9,289.6z M212.6,323.3v-16.8h4.4l4.4,9.2
			c0.5,0.5,0.5,0.7,0.7,1.2c0,0.7,0.5,1.2,0.7,2.1c-0.5-1.2-0.5-2.1-0.7-3.2c0-0.7,0-1.6,0-2.8v-6.5h3.9v16.8h-3.9l-4.8-9.2
			c0-0.5-0.5-0.7-0.7-2.1c0-0.5,0-0.7-0.5-0.7c0.5,0.5,0.5,1.2,0.5,2.1c0,0.7,0,2.1,0,3.2v6.9h-3.9L212.6,323.3L212.6,323.3z
			 M238,317c0-0.7,0-1.6-0.5-2.1s-1.2-0.5-1.6-0.5c-0.7,0-1.6,0-1.6,0.5c-0.5,0.5-0.7,1.2-0.7,2.1H238L238,317z M233.6,318.7
			L233.6,318.7c0,0.7,0.5,1.6,0.7,2.1c0.5,0.5,0.7,0.7,1.6,0.7c0.5,0,0.7,0,1.2-0.5s0.5-0.5,0.7-0.7h3.7c-0.5,0.7-1.2,2.1-2.1,2.3
			c-1.2,0.7-2.3,1.2-3.9,1.2s-3.2-0.7-4.4-1.6c-1.2-1.2-1.6-2.8-1.6-4.4s0.5-3.2,1.6-4.4c1.2-0.7,2.8-1.2,4.4-1.2
			c2.1,0,3.7,0.5,4.4,1.2c1.2,1.2,1.6,2.8,1.6,4.8v0.5H233.6L233.6,318.7z M244.9,323.3v-8.8h-1.6v-2.3h1.6V309h3.9v3.2h1.6v2.3
			h-1.6v8.8H244.9L244.9,323.3z M262,312.2l1.2,4.8c0.5,0.5,0.5,0.7,0.5,1.2c0,0.7,0.5,1.2,0.5,2.1c0-0.5,0-1.2,0.5-2.1
			c0-0.5,0-0.7,0-1.2l1.2-4.8h3.9l-3.9,11.3H262l-0.7-4.8c0,0-0.5-0.5-0.5-1.2c0-0.5,0-1.6-0.5-2.3v0.5c0,2.1-0.5,3.2-0.5,3.2
			l-1.2,4.8h-3.2l-3.9-11.3h3.9l1.2,4.8c0,0,0,0.7,0,2.1l0.5,1.2c0-0.5,0-1.2,0.5-1.6c0-0.7,0-1.2,0-1.6l1.2-4.8h3.2V312.2z
			 M277.5,321c0.7,0,1.2-0.5,1.6-0.7c0.5-0.7,0.7-1.6,0.7-2.3c0-1.2-0.5-1.6-0.7-2.3c-0.5-0.5-0.7-0.7-1.6-0.7
			c-0.7,0-1.2,0.5-1.6,0.7c-0.5,0.5-0.7,1.2-0.7,2.3c0,0.7,0.5,1.6,0.7,2.3C276.1,320.5,276.5,321,277.5,321L277.5,321z
			 M283.4,317.7c0,1.6-0.5,3.2-1.6,4.4c-1.2,0.7-2.3,1.6-4.4,1.6s-3.7-0.7-4.4-1.6c-1.2-1.2-2.1-2.8-2.1-4.4s0.7-3.2,2.1-4.4
			c0.7-0.7,2.3-1.2,4.4-1.2s3.2,0.5,4.4,1.2C283,314.5,283.4,316.1,283.4,317.7L283.4,317.7z M286.7,323.3V312h3.7v2.1
			c0.5-0.7,0.7-1.2,1.2-1.6c0.7-0.5,1.6-0.5,2.3-0.5v2.8h-0.5c-1.2,0-2.1,0-2.3,0.5c-0.5,0.5-0.5,1.2-0.5,2.8v5.3L286.7,323.3
			L286.7,323.3z M300.3,317c0-0.5,0.5-0.7,0.7-1.2c0-0.5,0-0.5,0-0.5l2.1-3.2h4.8l-3.7,4.8l3.9,6.5h-4.6l-3.2-6v6h-3.9v-17.8h3.9
			L300.3,317L300.3,317z M323.6,317.7h3.2c-0.5-1.2-0.7-2.3-0.7-3.7c-0.5-1.2-0.5-2.3-0.7-3.9c0,1.2-0.5,2.3-0.7,3.9
			C324.3,315.4,324,316.6,323.6,317.7L323.6,317.7z M318,323.3l5.3-16.8h4.4l4.8,16.8h-4.4l-0.7-2.8H323l-0.5,2.8H318L318,323.3z
			 M333.5,322.6l1.6-2.3c0.5,0.5,0.7,0.5,1.2,0.5c0.5,0.5,0.7,0.5,1.2,0.5s0.5,0,0.7-0.5l0.5-0.5c0-0.5-0.7-0.7-1.6-1.2
			c-0.5-0.5-0.5-0.5-0.7-0.5c-0.7-0.5-1.6-1.2-2.1-1.6c-0.5-0.5-0.5-0.7-0.5-1.6c0-1.2,0.5-2.1,1.2-2.3c0.7-0.7,2.1-0.7,3.7-0.7
			c0.7,0,1.2,0,2.1,0c0.7,0.5,1.2,0.5,2.1,0.7l-1.6,2.1c-0.5,0-0.7-0.5-1.2-0.5s-0.7,0-1.2,0c0,0-0.5,0-0.7,0v0.5
			c0,0.5,0.5,0.7,1.2,1.2c0.5,0.5,0.5,0.5,0.7,0.5c0.7,0.7,1.6,1.2,2.1,1.6c0.5,0.5,0.7,1.2,0.7,1.6c0,1.2-0.5,2.1-1.6,2.8
			c-0.7,0.7-2.1,1.2-3.7,1.2c-0.7,0-1.6-0.5-2.1-0.5C334.9,323,334,323,333.5,322.6L333.5,322.6z M344.3,322.6l2.1-2.3
			c0.5,0.5,0.7,0.5,1.2,0.5c0.5,0.5,0.7,0.5,1.2,0.5c0,0,0.5,0,0.7-0.5v-0.5c0-0.5-0.5-0.7-1.2-1.2c-0.5-0.5-0.7-0.5-0.7-0.5
			c-0.7-0.5-1.6-1.2-2.1-1.6c-0.5-0.5-0.7-0.7-0.7-1.6c0-1.2,0.5-2.1,1.6-2.3c0.7-0.7,2.1-0.7,3.2-0.7c0.7,0,1.6,0,2.3,0
			c0.5,0.5,1.2,0.5,2.1,0.7l-2.1,2.1c-0.5,0-0.7-0.5-0.7-0.5c-0.5,0-0.7,0-1.2,0s-0.5,0-0.7,0l-0.5,0.5c0,0.5,0.7,0.7,1.6,1.2
			c0.5,0.5,0.5,0.5,0.7,0.5c0.7,0.7,1.6,1.2,2.1,1.6c0.5,0.5,0.7,1.2,0.7,1.6c0,1.2-0.7,2.1-1.6,2.8c-0.7,0.7-2.1,1.2-3.7,1.2
			c-0.7,0-1.6-0.5-2.3-0.5C346,323,345.3,323,344.3,322.6L344.3,322.6z M362.1,321c0.7,0,1.6-0.5,2.1-0.7c0.5-0.7,0.5-1.6,0.5-2.3
			c0-1.2,0-1.6-0.5-2.3c-0.5-0.5-1.2-0.7-2.1-0.7c-0.5,0-1.2,0.5-1.6,0.7c-0.5,0.5-0.5,1.2-0.5,2.3c0,0.7,0,1.6,0.5,2.3
			C361,320.5,361.6,321,362.1,321L362.1,321z M368.6,317.7c0,1.6-0.5,3.2-1.6,4.4c-1.2,0.7-2.8,1.6-4.8,1.6c-1.6,0-3.2-0.7-4.4-1.6
			c-1.2-1.2-1.6-2.8-1.6-4.4s0.5-3.2,1.6-4.4c1.2-0.7,2.8-1.2,4.4-1.2c2.1,0,3.7,0.5,4.8,1.2C368.1,314.5,368.6,316.1,368.6,317.7
			L368.6,317.7z M379.4,315.4c-0.5,0-0.7-0.5-1.2-0.5c0,0-0.5,0-0.7,0c-0.7,0-1.6,0-2.1,0.7c-0.5,0.5-0.5,1.2-0.5,2.1
			c0,0.7,0,1.6,0.5,2.1s1.2,0.7,2.1,0.7c0.5,0,0.7,0,1.2,0c0-0.5,0.5-0.5,0.7-0.5v2.8c-0.5,0-1.2,0.5-1.6,0.5
			c-0.5,0-0.7,0.5-1.2,0.5c-2.1,0-3.2-0.7-4.4-1.6c-0.7-1.2-1.6-2.8-1.6-4.4s0.7-3.2,1.6-4.4c1.2-0.7,2.3-1.2,4.4-1.2
			c0.5,0,0.7,0,1.2,0s0.7,0,1.6,0.5V315.4L379.4,315.4z M381.7,309.4c0-0.7,0.5-1.2,0.7-1.6c0.5,0,0.7-0.5,1.6-0.5
			c0.7,0,1.2,0.5,1.6,0.5c0.5,0.5,0.7,0.7,0.7,1.6c0,0.5-0.5,0.7-0.7,1.2c-0.5,0.5-0.7,0.5-1.6,0.5c-0.7,0-1.2,0-1.6-0.5
			C382.2,310.1,381.7,309.7,381.7,309.4L381.7,309.4z M382.2,323.3V312h3.9v11.3H382.2L382.2,323.3z M397.2,317.7
			c0-1.2,0-2.1-0.5-2.3c-0.5-0.5-0.7-0.7-1.2-0.7c-0.7,0-1.2,0.5-1.6,0.7c0,0.5-0.5,1.2-0.5,2.3c0,0.7,0.5,1.6,0.5,2.3
			c0.5,0.5,0.7,0.7,1.6,0.7c0.5,0,1.2-0.5,1.2-0.7C397.2,319.3,397.2,318.7,397.2,317.7L397.2,317.7z M401.1,323.3h-3.9v-1.6
			c-0.5,0.5-0.7,1.2-1.2,1.2c-0.7,0.5-1.2,0.7-2.1,0.7c-1.6,0-2.3-0.7-3.2-1.6c-0.7-1.2-1.2-2.3-1.2-4.4c0-1.6,0.5-3.2,1.2-3.9
			c0.7-1.2,2.1-1.6,3.2-1.6c0.7,0,1.2,0,2.1,0.5c0.5,0.5,0.7,0.7,1.2,1.2V312h3.9V323.3L401.1,323.3z M405,323.3v-8.8h-1.6v-2.3h1.6
			V309h4.4v3.2h1.6v2.3h-1.4v8.8H405L405,323.3z M413.5,309.4c0-0.7,0-1.2,0.5-1.6c0.5,0,1.2-0.5,1.6-0.5c0.7,0,1.2,0.5,2.1,0.5
			c0.5,0.5,0.5,0.7,0.5,1.6c0,0.5,0,0.7-0.5,1.2c-0.7,0.5-1.2,0.5-2.1,0.5c-0.5,0-1.2,0-1.6-0.5
			C413.5,310.1,413.5,309.7,413.5,309.4L413.5,309.4z M413.5,323.3V312h4.4v11.3H413.5L413.5,323.3z M427.2,321
			c0.5,0,1.2-0.5,1.6-0.7c0.5-0.7,0.5-1.6,0.5-2.3c0-1.2,0-1.6-0.5-2.3c-0.5-0.5-1.2-0.7-1.6-0.7c-0.7,0-1.6,0.5-2.1,0.7
			c-0.5,0.5-0.5,1.2-0.5,2.3c0,0.7,0,1.6,0.5,2.3C425.5,320.5,426.5,321,427.2,321L427.2,321z M433.2,317.7c0,1.6-0.5,3.2-1.6,4.4
			c-1.2,0.7-2.8,1.6-4.4,1.6c-2.1,0-3.7-0.7-4.8-1.6c-1.2-1.2-1.6-2.8-1.6-4.4s0.5-3.2,1.6-4.4c1.2-0.7,2.8-1.2,4.8-1.2
			c1.6,0,3.2,0.5,4.4,1.2C432.9,314.5,433.2,316.1,433.2,317.7L433.2,317.7z M442.8,323.3v-6.9c0-0.7,0-1.2,0-1.2
			c-0.5-0.5-0.7-0.5-1.2-0.5s-0.7,0-1.2,0.5c0,0.5-0.5,0.7-0.5,1.2v6.9H436V312h3.9v1.6c0.5-0.5,1.2-0.7,1.6-1.2
			c0.7-0.5,1.6-0.5,2.3-0.5c1.2,0,2.1,0,2.3,0.7c0.5,0.5,0.7,1.2,0.7,2.8v7.6h-4.2v0.3H442.8z"/>
		<rect x="189.1" y="231" class="st6" width="2.3" height="2.3"/>
		<rect x="75.8" y="213.7" class="st5" width="5.3" height="4.8"/>
	</g>
</g>
</svg>
