<?xml version="1.0" encoding="utf-8"?>
<!-- Generator: Adobe Illustrator 22.0.1, SVG Export Plug-In . SVG Version: 6.00 Build 0)  -->
<svg version="1.1" id="Layer_1" xmlns="http://www.w3.org/2000/svg" xmlns:xlink="http://www.w3.org/1999/xlink" x="0px" y="0px"
	 viewBox="0 0 500 500" style="enable-background:new 0 0 500 500;" xml:space="preserve">
<style type="text/css">
	.st0{display:none;}
	.st1{display:inline;}
	.st2{fill:#FFF9C8;}
	.st3{fill:#1A1A18;}
	.st4{stroke:#1A1A18;stroke-width:0.216;stroke-miterlimit:2.6131;}
</style>
<g id="Layer_1_2_" class="st0">
	<g id="Layer_1_1_" class="st1">
		<g>
			<g>
				<path class="st2" d="M371.6,114.2c0-4.4-4-7.9-8.9-7.9H137.6c-4.8,0-8.9,3.6-8.9,7.9v270.9c0,4.4,4.1,8.1,8.9,8.1h225.1
					c4.9,0,8.9-3.6,8.9-8.1V114.2z"/>
				<path class="st3" d="M362.7,400.6H137.6c-8.9,0-16.2-6.9-16.2-15.4v-271c0-8.3,7.4-15.2,16.2-15.2h225.1
					c8.9,0,16.2,6.8,16.2,15.2v270.9C378.9,393.7,371.6,400.6,362.7,400.6z M137.6,106.3c-4.8,0-8.9,3.6-8.9,7.9v270.9
					c0,4.4,4.1,8.1,8.9,8.1h225.1c4.9,0,8.9-3.6,8.9-8.1V114.2c0-4.4-4-7.9-8.9-7.9C362.7,106.3,137.6,106.3,137.6,106.3z"/>
			</g>
			<g>
				<g>
					<path class="st3" d="M169.3,131.8v11.6h-7.1v58.8h-6.5v-58.8h-7.1v-11.6H169.3z"/>
				</g>
				<g>
					<path class="st3" d="M172.1,131.8h12.1c5.4,0,8.6,6.1,8.6,18.1c0,9.4-1.7,15.7-5.4,17.4v0.2c4.4,1.3,5.1,6.6,5.2,21.5
						c0,7.4,0.2,11.2,1.5,12.6v0.6H187c-0.6-2-0.8-4.6-0.8-7.4l-0.2-13.5c-0.1-5.5-1.2-8.9-3.9-8.9h-3.5v29.8h-6.5V131.8z
						 M178.6,162.6h2.7c3.1,0,4.9-3,4.9-10.6c0-6.5-1.6-9.8-4.5-9.8h-3.1L178.6,162.6L178.6,162.6z"/>
				</g>
				<g>
					<path class="st3" d="M203.6,131.8h8.1l8.6,70.4h-6.8l-1.5-14.9h-8.6l-1.5,14.9H195L203.6,131.8z M204.5,175.7h6.4l-3.1-31.6
						h-0.1L204.5,175.7z"/>
				</g>
				<g>
					<path class="st3" d="M230,131.8l7.9,48.2h0.1v-48.2h6v70.4h-7.4l-8-49.3h-0.1v49.3h-6v-70.4L230,131.8L230,131.8z"/>
				</g>
				<g>
					<path class="st3" d="M253.8,180.2v2.1c0,6.6,0.9,10.8,4.3,10.8c2,0,3.9-2.8,3.9-8.7c0-6.4-1.5-8.8-5.8-12
						c-5.8-4.3-8.5-9.6-8.5-21.3c0-13.7,3.9-20.7,10-20.7c5.8,0,10,5.4,10,18.9v2h-6.3c0-6.6-1-10.5-3.5-10.5c-2.9,0-3.7,4-3.7,8.2
						c0,4.3,0.6,7,3.4,9.6l5,4.7c4.9,4.6,6.2,10.1,6.2,18.6c0,14.9-4.2,21.6-11.3,21.6c-7.4,0-10.3-7.5-10.3-20.5v-2.9L253.8,180.2
						L253.8,180.2z"/>
				</g>
				<g>
					<path class="st3" d="M272.1,202.2v-70.4h6.5v58.8h11.6v11.6H272.1z"/>
				</g>
				<g>
					<path class="st3" d="M293.4,202.2v-70.4h6.5v70.4L293.4,202.2L293.4,202.2z"/>
				</g>
				<g>
					<path class="st3" d="M312.3,131.8l7.9,48.2h0.1v-48.2h6v70.4h-7.4l-8-49.3h-0.1v49.3h-6v-70.4L312.3,131.8L312.3,131.8z"/>
				</g>
				<g>
					<path class="st3" d="M348.9,131.8v11.6h-11.6V160h10.9v11.6h-10.9v18.9h12v11.6h-18.6v-70.4L348.9,131.8L348.9,131.8z"/>
				</g>
			</g>
			<g>
				<g>
					<path class="st3" d="M182.4,269.7l-1.5-7.3h-7.6l-1.5,7.3h-2.5l6.4-28.5h3.1l6.3,28.5H182.4z M173.8,259.5h6.4l-3.2-15.3
						L173.8,259.5z"/>
				</g>
				<g>
					<path class="st3" d="M193,241.2v28.5h-2.5v-28.5L193,241.2L193,241.2z"/>
				</g>
				<g>
					<path class="st3" d="M207,257.4h-3.3v12.3h-2.5v-28.5h5.1c2.4,0,4.2,0.7,5.5,2c1.2,1.4,1.9,3.3,1.9,6c0,2-0.4,3.6-1.1,4.8
						c-0.7,1.2-1.8,2.2-3.2,2.8l5.3,12.9h-2.9L207,257.4z M206.7,254.7c1.5,0,2.6-0.4,3.3-1.3c0.8-0.9,1.1-2.3,1.1-4.2
						c0-1.8-0.4-3.1-1.1-3.9c-0.8-0.8-2-1.2-3.6-1.2h-2.6v10.6L206.7,254.7L206.7,254.7z"/>
				</g>
				<g>
					<path class="st3" d="M247.7,241.4c0.8,0.4,1.6,1.1,2.4,2.1l-1.3,2.3c-0.6-0.7-1.2-1.2-1.9-1.6c-0.6-0.3-1.3-0.5-2-0.5
						c-1.7,0-3.1,0.9-4.1,2.8c-1,1.9-1.5,4.8-1.5,9c0,3.9,0.5,6.9,1.5,8.8s2.4,2.9,4.1,2.9c0.9,0,1.6-0.2,2.2-0.6
						c0.6-0.4,1.3-1,2-1.8l1.2,2.3c-0.6,0.9-1.4,1.7-2.3,2.3c-0.9,0.6-2,0.9-3.2,0.9c-1.6,0-3-0.6-4.2-1.7s-2.2-2.8-2.9-5
						s-1-4.9-1-8s0.4-5.8,1.1-8c0.7-2.2,1.7-3.9,2.9-5s2.6-1.7,4.1-1.7C246,240.7,246.9,240.9,247.7,241.4z"/>
				</g>
				<g>
					<path class="st3" d="M266.8,269.7l-1.5-7.3h-7.6l-1.5,7.3h-2.5l6.4-28.5h3.1l6.3,28.5H266.8z M258.3,259.5h6.4l-3.2-15.3
						L258.3,259.5z"/>
				</g>
				<g>
					<path class="st3" d="M280.8,257.4h-3.3v12.3H275v-28.5h5.1c2.4,0,4.2,0.7,5.5,2c1.2,1.4,1.9,3.3,1.9,6c0,2-0.4,3.6-1.1,4.8
						s-1.8,2.2-3.2,2.8l5.3,12.9h-2.9L280.8,257.4z M280.4,254.7c1.5,0,2.6-0.4,3.3-1.3c0.8-0.9,1.1-2.3,1.1-4.2
						c0-1.8-0.4-3.1-1.1-3.9c-0.8-0.8-2-1.2-3.6-1.2h-2.6v10.6L280.4,254.7L280.4,254.7z"/>
				</g>
				<g>
					<path class="st3" d="M304.7,241.5c0.9,0.5,1.8,1.3,2.6,2.3l-1.5,2.2c-0.7-0.8-1.4-1.4-2-1.8c-0.7-0.4-1.4-0.5-2.3-0.5
						c-1,0-2,0.4-2.9,1.2s-1.6,2.1-2.1,3.8s-0.8,4-0.8,6.7c0,4.1,0.5,7,1.4,8.9s2.3,2.9,4.2,2.9c1.4,0,2.7-0.4,3.8-1.3V257h-3.6
						l-0.3-2.9h6.3v13.7c-2,1.7-4.1,2.5-6.3,2.5c-2.6,0-4.6-1.3-6-3.8s-2.2-6.2-2.2-11c0-3.1,0.4-5.7,1.2-8c0.8-2.2,1.8-3.9,3.1-5
						c1.3-1.1,2.7-1.7,4.2-1.7C302.7,240.7,303.8,241,304.7,241.5z"/>
				</g>
				<g>
					<path class="st3" d="M326,242.4c1.2,1.1,2.2,2.8,2.9,5c0.7,2.2,1,4.9,1,8s-0.3,5.7-1,7.9c-0.7,2.2-1.6,3.9-2.9,5
						c-1.2,1.1-2.7,1.7-4.3,1.7c-1.6,0-3.1-0.6-4.3-1.7c-1.2-1.1-2.2-2.8-2.9-5c-0.7-2.2-1-4.8-1-8c0-3.1,0.3-5.7,1-7.9
						s1.6-3.9,2.9-5.1c1.2-1.2,2.7-1.8,4.3-1.8C323.3,240.7,324.7,241.3,326,242.4z M317.5,246.6c-1,1.9-1.5,4.9-1.5,8.9
						s0.5,6.9,1.5,8.8s2.4,2.9,4.1,2.9c1.8,0,3.2-0.9,4.1-2.8c1-1.9,1.5-4.8,1.5-8.9c0-4-0.5-7-1.5-8.9s-2.4-2.9-4.1-2.9
						C319.9,243.7,318.5,244.7,317.5,246.6z"/>
				</g>
				<g>
					<path class="st3" d="M179.2,290.8c0.9,0.5,1.8,1.4,2.6,2.5l-1.3,2.2c-0.7-0.9-1.5-1.5-2.2-1.9s-1.5-0.6-2.3-0.6
						c-1.1,0-2,0.4-2.6,1.1c-0.7,0.7-1,1.8-1,3.1c0,0.9,0.1,1.6,0.4,2.2c0.2,0.6,0.7,1.1,1.3,1.6s1.5,1,2.7,1.5
						c1.2,0.6,2.3,1.1,3.1,1.8c0.8,0.6,1.5,1.5,2,2.6s0.7,2.5,0.7,4.2s-0.3,3.1-0.8,4.4c-0.6,1.3-1.3,2.3-2.4,3
						c-1,0.7-2.3,1.1-3.7,1.1c-2.7,0-4.9-1.2-6.6-3.6l1.4-2.2c0.8,1,1.6,1.7,2.4,2.2c0.8,0.5,1.7,0.7,2.8,0.7c1.3,0,2.3-0.5,3.1-1.4
						s1.2-2.2,1.2-3.9c0-1-0.1-1.8-0.4-2.5c-0.3-0.7-0.7-1.2-1.3-1.7s-1.5-1-2.6-1.5c-2-0.9-3.5-1.9-4.4-3.2c-0.9-1.2-1.4-2.9-1.4-5
						c0-1.4,0.3-2.7,0.8-3.8c0.5-1.1,1.2-2,2.2-2.6c0.9-0.6,2-0.9,3.2-0.9C177.2,290,178.3,290.3,179.2,290.8z"/>
				</g>
				<g>
					<path class="st3" d="M203.7,290.5l-0.3,2.9h-7.7v9.6h6.7v2.9h-6.7v10.2h8.2v2.9h-10.7v-28.5H203.7z"/>
				</g>
				<g>
					<path class="st3" d="M220.6,306.8h-3.3V319h-2.5v-28.5h5.1c2.4,0,4.2,0.7,5.5,2c1.2,1.4,1.9,3.3,1.9,6c0,2-0.4,3.6-1.1,4.8
						s-1.8,2.2-3.2,2.8l5.3,12.9h-2.9L220.6,306.8z M220.3,304c1.5,0,2.6-0.4,3.3-1.3c0.8-0.9,1.1-2.3,1.1-4.2
						c0-1.8-0.4-3.1-1.1-3.9c-0.8-0.8-2-1.2-3.6-1.2h-2.6V304H220.3z"/>
				</g>
				<g>
					<path class="st3" d="M251.1,290.5l-6.3,28.5h-2.7l-6.4-28.5h2.7l5.1,24.6l5.1-24.6H251.1z"/>
				</g>
				<g>
					<path class="st3" d="M263.3,290.5V319h-2.5v-28.5H263.3z"/>
				</g>
				<g>
					<path class="st3" d="M285.5,290.7c0.8,0.4,1.6,1.1,2.4,2.1l-1.3,2.3c-0.6-0.7-1.2-1.2-1.9-1.6c-0.6-0.3-1.3-0.5-2-0.5
						c-1.7,0-3.1,0.9-4.1,2.8s-1.5,4.8-1.5,9c0,3.9,0.5,6.9,1.5,8.8s2.4,2.9,4.1,2.9c0.9,0,1.6-0.2,2.2-0.6s1.3-1,2-1.8l1.2,2.3
						c-0.6,0.9-1.4,1.7-2.3,2.3s-2,0.9-3.2,0.9c-1.6,0-3-0.6-4.2-1.7s-2.2-2.8-2.9-5c-0.7-2.2-1-4.9-1-8s0.4-5.8,1.1-8
						s1.7-3.9,2.9-5c1.2-1.1,2.6-1.7,4.1-1.7C283.7,290,284.7,290.3,285.5,290.7z"/>
				</g>
				<g>
					<path class="st3" d="M308.7,290.5l-0.3,2.9h-7.7v9.6h6.7v2.9h-6.7v10.2h8.2v2.9h-10.7v-28.5H308.7z"/>
				</g>
				<g>
					<path class="st3" d="M327.8,290.8c0.9,0.5,1.8,1.4,2.6,2.5l-1.3,2.2c-0.7-0.9-1.5-1.5-2.2-1.9s-1.5-0.6-2.3-0.6
						c-1.1,0-2,0.4-2.6,1.1s-1,1.8-1,3.1c0,0.9,0.1,1.6,0.4,2.2c0.2,0.6,0.7,1.1,1.3,1.6c0.6,0.5,1.5,1,2.7,1.5
						c1.2,0.6,2.3,1.1,3.1,1.8c0.8,0.6,1.5,1.5,2,2.6s0.7,2.5,0.7,4.2s-0.3,3.1-0.8,4.4c-0.6,1.3-1.3,2.3-2.4,3
						c-1,0.7-2.3,1.1-3.7,1.1c-2.7,0-4.9-1.2-6.6-3.6l1.4-2.2c0.8,1,1.6,1.7,2.4,2.2s1.7,0.7,2.8,0.7c1.3,0,2.3-0.5,3.1-1.4
						c0.8-0.9,1.2-2.2,1.2-3.9c0-1-0.1-1.8-0.4-2.5s-0.7-1.2-1.3-1.7c-0.6-0.5-1.5-1-2.6-1.5c-2-0.9-3.5-1.9-4.4-3.2
						c-0.9-1.2-1.4-2.9-1.4-5c0-1.4,0.3-2.7,0.8-3.8c0.5-1.1,1.2-2,2.2-2.6c0.9-0.6,2-0.9,3.2-0.9
						C325.7,290,326.8,290.3,327.8,290.8z"/>
				</g>
				<g>
					<path class="st3" d="M183.2,342c1.3,1.4,2,3.6,2,6.6c0,3.1-0.7,5.4-2.1,6.9c-1.4,1.5-3.2,2.3-5.5,2.3H175v10.6h-2.5v-28.5h5
						C180,339.8,181.9,340.6,183.2,342z M181.3,353.5c0.8-0.9,1.3-2.5,1.3-4.9c0-2.1-0.4-3.6-1.3-4.6c-0.8-0.9-2.1-1.4-3.7-1.4H175
						v12.2h2.5C179.2,354.9,180.4,354.4,181.3,353.5z"/>
				</g>
				<g>
					<path class="st3" d="M207.4,339.8l-6.3,28.5h-2.7l-6.4-28.5h2.7l5.1,24.6l5.1-24.6H207.4z"/>
				</g>
				<g>
					<path class="st3" d="M228.3,339.8l-0.3,3.1h-5.5v25.4H220v-25.4h-5.7v-3.1H228.3z"/>
				</g>
				<g>
					<path class="st3" d="M234.4,364.2c0.4,0.5,0.5,1.1,0.5,1.9c0,0.7-0.2,1.4-0.5,1.9s-0.8,0.8-1.3,0.8s-0.9-0.3-1.3-0.8
						c-0.3-0.5-0.5-1.2-0.5-1.9c0-0.7,0.2-1.3,0.5-1.9c0.4-0.5,0.8-0.8,1.3-0.8C233.6,363.5,234,363.7,234.4,364.2z"/>
				</g>
				<g>
					<path class="st3" d="M272.9,339.8v25.3h8.1l-0.3,3.1h-10.3v-28.5h2.5L272.9,339.8L272.9,339.8z"/>
				</g>
				<g>
					<path class="st3" d="M299.9,339.8l-0.3,3.1h-5.5v25.4h-2.5v-25.4H286v-3.1H299.9z"/>
				</g>
				<g>
					<path class="st3" d="M320.5,342.8c1.8,2,2.7,5.7,2.7,11.1c0,5.3-0.9,9-2.7,11.2c-1.8,2.2-3.9,3.2-6.5,3.2h-4.6v-28.5h4.1
						C316.3,339.8,318.7,340.8,320.5,342.8z M311.8,342.7v22.7h2.3c1.9,0,3.4-0.8,4.6-2.5s1.8-4.7,1.8-9c0-3.1-0.3-5.4-0.9-7.1
						c-0.6-1.6-1.4-2.7-2.3-3.3c-0.9-0.6-2-0.8-3.3-0.8L311.8,342.7L311.8,342.7z"/>
				</g>
				<g>
					<path class="st3" d="M328.8,364.2c0.3,0.5,0.5,1.1,0.5,1.9c0,0.7-0.2,1.4-0.5,1.9c-0.4,0.5-0.8,0.8-1.3,0.8s-0.9-0.3-1.3-0.8
						s-0.5-1.2-0.5-1.9c0-0.7,0.2-1.3,0.5-1.9c0.3-0.5,0.8-0.8,1.3-0.8C328,363.5,328.4,363.7,328.8,364.2z"/>
				</g>
			</g>
			<g>
				<rect x="148" y="219.6" class="st3" width="204.4" height="2.6"/>
			</g>
		</g>
	</g>
</g>
<g id="Layer_5" class="st0">
	<g id="Layer_2_1_" class="st1">
		<g>
			<g>
				<path d="M182.4,216.1V128H271l33.4,32.5v90.9H218l-6-6h88.1v-80.7H260v28.8l11.8-25.4h4.8v24.2l-22.8,50.3h-44.3L182.4,216.1
					L182.4,216.1z M218,210.6v16.8h26.5l7.6-16.8H218L218,210.6z M279.8,168.4v74.3h16.4v-74.3H279.8L279.8,168.4z M218,202.8v3.7
					h36.2l1.2-3.2L218,202.8L218,202.8z M218,164.7v34.6h38.3v-34.6L218,164.7L218,164.7z"/>
				<path d="M176.4,336.8H158l-3.2,7.2h-18.5l38.3-74.7h2.1V298l0,0l-11.3,23.8h11.3v15H176.4z M334.4,269.2h16.1v74.7h-16.1V269.2
					L334.4,269.2z M314.4,269.2h16.1v74.7h-16.1V269.2L314.4,269.2z M262.9,269.2H279v57.4l29.3-57.4h2.1V298l0,0l-11.8,24.2h11.8
					v14.5h-18.9l-3.2,7.2h-25.4V269.2L262.9,269.2z M180.8,269.2H197v7.6c5.5-3.9,11.3-7.2,19.6-8.1v16.4c-11.3,2.1-18,12-18,21.7
					c0,11.3,8.5,20.1,18,21.2v15.7c-10.4-1.2-16.4-5.5-19.6-8.1v8.1h-16.1v-33.4c-0.5-1.2-0.5-2.3-0.5-3.7s0-2.3,0.5-3.7
					L180.8,269.2L180.8,269.2z M259,336.8h-18.9c-0.7,2.8-2.1,5.3-3.2,7.2c-5.3,0-15.7,0-15.7,0l0,0v-4.8v-10.1c0.5,0,0.7,0,1.2,0
					c1.2,0,2.3,0,3.9,0l30.4-60h2.1v28.8l0,0L247,321.6h11.8v15.2L259,336.8L259,336.8z M221.2,268.5v16.4c7.2,0,13.6,3.2,18,10.1
					l8.1-15.7C240.1,272.4,230.9,268.7,221.2,268.5z"/>
			</g>
			<g>
				<path d="M138.6,398.1v-29.8h3.2v29.8H138.6z"/>
				<path d="M146.9,388.7l3-0.2c0.2,1.6,0.5,3,1.2,3.9c0.5,0.9,1.4,1.6,2.5,2.3c1.2,0.7,2.3,0.9,3.7,0.9c1.8,0,3.5-0.5,4.4-1.4
					s1.6-2.1,1.6-3.7c0-0.9-0.2-1.6-0.7-2.3c-0.5-0.7-0.9-1.2-1.8-1.6c-0.7-0.5-2.5-0.9-5.1-1.8c-2.3-0.7-3.9-1.4-4.8-2.1
					s-1.8-1.6-2.3-2.5s-0.9-2.3-0.9-3.7c0-2.3,0.7-4.4,2.3-6s3.7-2.3,6.2-2.3c1.8,0,3.5,0.5,4.8,1.2c1.4,0.7,2.3,1.8,3.2,3
					s1.2,3,1.2,4.6l-3,0.2c-0.2-1.8-0.7-3.5-1.8-4.4s-2.3-1.4-4.2-1.4s-3.2,0.5-4.2,1.2c-0.9,0.9-1.4,1.8-1.4,3.2
					c0,1.2,0.5,2.1,1.2,2.8c0.7,0.7,2.3,1.4,4.8,2.1c2.3,0.7,4.2,1.2,5.1,1.8c1.4,0.7,2.5,1.8,3.5,3c0.7,1.2,1.2,2.8,1.2,4.4
					s-0.5,3.2-1.2,4.6s-1.8,2.5-3.2,3.2s-3,1.2-4.8,1.2c-3,0-5.3-0.9-7.2-2.8C148.3,394.2,146.9,391.7,146.9,388.7z"/>
				<path d="M170.2,383.8c0-5.1,1.2-9,3.5-11.8s5.1-4.2,8.3-4.2c2.1,0,4.2,0.7,5.8,1.8c1.6,1.2,3.2,3,4.2,5.3
					c0.9,2.3,1.6,5.1,1.6,8.3c0,4.4-0.9,8.1-3,10.8c-2.3,3-5.1,4.6-8.8,4.6s-6.5-1.6-8.8-4.6C171.1,391.2,170.2,387.8,170.2,383.8z
					 M173.4,383.8c0,3.7,0.9,6.5,2.5,8.5c1.6,2.1,3.7,3,6,3s4.4-0.9,6-3s2.3-5.1,2.3-9c0-2.5-0.5-4.8-1.2-6.9
					c-0.7-1.6-1.6-2.8-2.8-3.7c-1.2-0.9-2.8-1.4-4.2-1.4c-2.5,0-4.4,0.9-6,3C174.6,376.5,173.4,379.7,173.4,383.8z"/>
				<path d="M197.2,391.5l2.8-0.2c0.5,3.2,1.8,4.6,4.2,4.6c0.9,0,1.8-0.2,2.8-0.9c0.9-0.7,1.6-1.8,2.1-3.7c0.5-1.8,0.9-3.7,0.9-6
					v-0.7c-0.7,1.2-1.4,2.1-2.5,2.8c-1.2,0.7-2.1,1.2-3.2,1.2c-2.1,0-3.7-0.9-5.1-2.5c-1.4-1.8-2.1-4.2-2.1-7.2s0.7-5.5,2.3-7.4
					c1.4-1.8,3.2-2.8,5.5-2.8c1.6,0,3,0.5,4.2,1.6s2.3,2.5,3,4.4c0.7,1.8,1.2,4.8,1.2,8.3c0,4.2-0.5,7.2-1.2,9.5s-1.8,3.9-3.2,4.8
					s-2.8,1.6-4.4,1.6c-1.8,0-3.5-0.7-4.6-1.8S197.4,393.8,197.2,391.5z M209.4,378.3c0-2.1-0.5-3.7-1.4-5.1s-2.1-1.8-3.2-1.8
					c-1.4,0-2.5,0.7-3.5,1.8s-1.6,3-1.6,5.3c0,1.8,0.5,3.5,1.4,4.6c0.9,1.2,2.1,1.8,3.5,1.8s2.5-0.7,3.5-1.8
					C209,382,209.4,380.4,209.4,378.3z"/>
				<path d="M216.1,383.6c0-5.1,0.7-8.8,2.1-11.3c1.4-2.5,3.2-3.9,6-3.9c2.3,0,4.2,1.2,5.5,3.2c1.6,2.5,2.5,6.5,2.5,12
					c0,5.1-0.7,8.8-2.1,11.3c-1.4,2.5-3.2,3.9-6,3.9c-2.3,0-4.2-1.2-5.8-3.5S216.1,389.2,216.1,383.6z M219.1,383.6
					c0,4.8,0.5,8.1,1.4,9.7s2.1,2.5,3.5,2.5s2.5-0.9,3.5-2.5c0.9-1.6,1.4-4.8,1.4-9.7c0-4.8-0.5-8.1-1.4-9.7s-2.1-2.5-3.7-2.5
					c-1.4,0-2.5,0.9-3.5,2.5C219.6,375.5,219.1,378.8,219.1,383.6z"/>
				<path d="M235.5,383.6c0-5.1,0.7-8.8,2.1-11.3c1.4-2.5,3.2-3.9,6-3.9c2.3,0,4.2,1.2,5.5,3.2c1.6,2.5,2.5,6.5,2.5,12
					c0,5.1-0.7,8.8-2.1,11.3c-1.4,2.5-3.2,3.9-6,3.9c-2.3,0-4.2-1.2-5.8-3.5S235.5,389.2,235.5,383.6z M238.5,383.6
					c0,4.8,0.5,8.1,1.4,9.7s2.1,2.5,3.5,2.5s2.5-0.9,3.5-2.5c0.9-1.6,1.4-4.8,1.4-9.7c0-4.8-0.5-8.1-1.4-9.7s-2.1-2.5-3.7-2.5
					c-1.4,0-2.5,0.9-3.5,2.5C238.9,375.5,238.5,378.8,238.5,383.6z"/>
				<path d="M265.9,398.1h-3v-23.3c-0.7,0.9-1.6,1.6-2.8,2.5c-1.2,0.9-2.3,1.4-3.2,1.8v-3.5c1.6-0.9,3-2.1,4.4-3.5s2.1-2.8,2.8-3.9
					h1.8L265.9,398.1L265.9,398.1z"/>
				<path d="M275.9,380.8v-4.2h3.5v4.2H275.9z M275.9,398.1V394h3.5v4.2h-3.5V398.1z"/>
				<path d="M299.8,394.7v3.5h-16.1c0-1.4,0.5-3,1.4-4.8s2.5-3.9,4.8-6.2c2.8-2.8,4.6-4.8,5.5-6.5c0.9-1.6,1.4-3,1.4-4.2
					c0-1.6-0.5-2.8-1.4-3.7c-0.9-0.9-2.1-1.4-3.2-1.4c-1.4,0-2.5,0.5-3.5,1.6c-0.9,0.9-1.4,2.5-1.4,4.4l-3-0.5
					c0.2-2.8,0.9-5.1,2.5-6.5c1.4-1.4,3.2-2.1,5.5-2.1c2.5,0,4.4,0.9,5.5,2.5c1.4,1.6,1.8,3.7,1.8,5.8c0,1.8-0.5,3.7-1.6,5.5
					c-0.9,1.8-3,4.2-5.8,6.9c-1.8,1.8-3,3-3.5,3.7s-0.9,1.4-1.2,2.1h12v-0.1H299.8z"/>
				<path d="M303.3,383.6c0-5.1,0.7-8.8,2.1-11.3s3.2-3.9,6-3.9c2.3,0,4.2,1.2,5.5,3.2c1.6,2.5,2.5,6.5,2.5,12
					c0,5.1-0.7,8.8-2.1,11.3s-3.2,3.9-6,3.9c-2.3,0-4.2-1.2-5.8-3.5C304,393.1,303.3,389.2,303.3,383.6z M306.3,383.6
					c0,4.8,0.5,8.1,1.4,9.7s2.1,2.5,3.5,2.5s2.5-0.9,3.5-2.5c0.9-1.6,1.4-4.8,1.4-9.7c0-4.8-0.5-8.1-1.4-9.7s-2.1-2.5-3.7-2.5
					c-1.4,0-2.5,0.9-3.5,2.5C306.8,375.5,306.3,378.8,306.3,383.6z"/>
				<path d="M322.7,383.6c0-5.1,0.7-8.8,2.1-11.3s3.2-3.9,6-3.9c2.3,0,4.2,1.2,5.5,3.2c1.6,2.5,2.5,6.5,2.5,12
					c0,5.1-0.7,8.8-2.1,11.3s-3.2,3.9-6,3.9c-2.3,0-4.2-1.2-5.8-3.5C323.4,393.1,322.7,389.2,322.7,383.6z M325.7,383.6
					c0,4.8,0.5,8.1,1.4,9.7s2.1,2.5,3.5,2.5s2.5-0.9,3.5-2.5c0.9-1.6,1.4-4.8,1.4-9.7c0-4.8-0.5-8.1-1.4-9.7s-2.1-2.5-3.7-2.5
					c-1.4,0-2.5,0.9-3.5,2.5C326.1,375.5,325.7,378.8,325.7,383.6z"/>
				<path d="M346.7,382.2c-1.2-0.5-2.1-1.4-2.8-2.3c-0.7-0.9-0.9-2.3-0.9-3.7c0-2.3,0.7-4.2,2.1-5.5c1.4-1.4,3-2.1,5.1-2.1
					s3.7,0.7,5.1,2.1s2.1,3.2,2.1,5.5c0,1.4-0.2,2.5-0.9,3.7c-0.7,0.9-1.4,1.8-2.8,2.3c1.4,0.7,2.5,1.6,3.5,2.8
					c0.9,1.2,1.2,3,1.2,4.8c0,2.5-0.7,4.8-2.3,6.5c-1.6,1.6-3.5,2.5-5.8,2.5s-4.2-0.9-5.8-2.5c-1.6-1.6-2.3-3.9-2.3-6.7
					c0-2.1,0.5-3.7,1.2-4.8C344.1,383.4,345.3,382.7,346.7,382.2z M345.1,389.6c0,1.8,0.5,3.2,1.4,4.4c0.9,1.2,2.1,1.6,3.5,1.6
					s2.5-0.5,3.5-1.6c0.9-1.2,1.4-2.5,1.4-4.4c0-1.8-0.5-3.2-1.4-4.4c-0.9-1.2-2.1-1.6-3.5-1.6s-2.5,0.5-3.5,1.6
					C345.5,386.4,345.1,388,345.1,389.6z M346,376c0,1.4,0.5,2.5,1.2,3.5c0.7,0.9,1.6,1.4,2.8,1.4s2.1-0.5,2.8-1.4
					c0.7-0.9,1.2-1.8,1.2-3.2c0-1.4-0.5-2.5-1.2-3.5c-0.7-0.9-1.6-1.4-2.8-1.4s-2.1,0.5-2.8,1.4C346.4,373.7,346,374.6,346,376z"/>
			</g>
		</g>
	</g>
</g>
<g id="Layer_2_2_" class="st0">
	<g class="st1">
		<path d="M165.7,283.1h11.5l-6.2,34.8h-11.5L165.7,283.1L165.7,283.1z M214.4,283.1h11.5l6.2,34.8H221l-0.9-4.4h-11.5l-1.8,4.4
			h-11.1L214.4,283.1L214.4,283.1z M212.3,305.9h7.4l-1.8-12.2L212.3,305.9L212.3,305.9z M256.4,283.1H288l-1.4,9.2h-10.1l-4.4,25.6
			h-11.5l4.4-25.6h-10L256.4,283.1L256.4,283.1z M319.8,283.1h12l6.2,34.8h-11.5l-0.5-4.4h-11.5l-1.8,4.4h-11.5L319.8,283.1
			L319.8,283.1z M318,305.9h7.2l-1.4-12.2L318,305.9z"/>
		<g>
			<path d="M218.3,328.3c-2.3,0-3.9,0.9-5.8,1.8c-1.2,1.4-2.5,3-3.5,5.3c-0.9,3.5-1.8,6-1.8,7.8c0,2.5,0.7,4.4,2.5,4.8
				c0.7,0.5,1.6,0.5,3,0.5c1.2,0,2.5,0,3.5-0.9c1.2-0.2,2.1-1.2,2.5-2.5l-0.9,3.5h2.3l2.5-10.1h-7.8l-0.5,1.8h5.3
				c-0.5,2.1-1.2,3.9-1.6,4.8c-1.4,1.4-2.5,1.8-4.4,1.8c-1.2,0-2.1-0.5-2.5-0.9c-0.5-0.2-0.9-1.2-0.9-2.5s0.5-3,0.9-4.8
				c0.7-3.2,1.6-5.3,2.5-6.2c1.4-1.4,2.5-1.8,4.4-1.8c2.1-0.5,3.5,0.7,3.5,2.5c0,0.5,0,0.9,0,1.4h2.5c0-0.5,0-1.4,0-1.8
				c0-1.2-0.5-2.5-1.4-3.5C221.3,328.8,220.1,328.3,218.3,328.3z"/>
			<path d="M188.1,348.1L188.1,348.1L188.1,348.1z"/>
			<path d="M204.5,329.7c-0.9-0.5-2.3-0.9-4.8-0.9h-6.2l-5.3,19.4h2.8l2.3-8.3h3.9c1.6,0,2.5,0,3,0.5s0.9,0.9,0.9,1.8
				c0,0.2-0.5,1.2-0.5,2.5c-0.5,1.2-0.5,2.5,0,3.5h2.5l0.5-0.5c-0.5,0-0.9,0-0.9-0.9c0-0.2,0.5-1.2,0.5-2.5c0-1.2,0.5-2.1,0.5-3
				s-0.5-1.4-0.9-1.8c-0.5-0.5-1.2-0.9-3-0.9c1.2,0,2.5-0.5,3.5-0.9c0.9-0.5,1.8-1.4,2.3-2.3c0.5-0.7,0.9-1.6,0.9-3
				C206.3,331.5,205.8,330.1,204.5,329.7z M201.7,336.1c-1.4,0.9-2.5,1.4-3.9,1.4h-4.4l2.3-7.2h3c1.6,0,2.5,0.5,3.5,0.9
				c0.5,0,0.9,0.9,0.9,1.8C203.1,334.3,202.6,335.2,201.7,336.1z"/>
			<path d="M162,345.4c-0.9,0.9-2.1,1.4-3.5,1.4c-2.1,0-3-1.2-3-3.5c0-1.4,0.5-3.7,0.9-6.2c0.7-2.8,1.6-4.4,3-5.3
				c0.9-0.9,2.1-1.4,3.5-1.4c0.9,0,1.8,0,2.3,0.5c0.9,0.5,0.9,1.4,0.9,2.3c0,0.5,0,0.9,0,1.4h2.5c0-0.5,0-1.4-0.2-1.6
				c0-1.2-0.5-2.5-1.4-3.5c-0.9-0.5-2.1-0.9-3.9-0.9c-1.4,0-2.5,0.5-3.9,0.9c-1.2,0.2-2.1,1.6-3,2.5c-0.7,1.4-1.6,3-2.5,5.3
				l-0.5,2.5c-0.5,1.4-0.5,2.5-0.5,3.9c0,3,1.4,4.8,4.4,4.8c2.8,0.5,4.8-0.5,6.7-1.8c1.2-1.4,2.5-3.2,3-5.8h-2.5
				C163.9,343.1,162.9,344.4,162,345.4z"/>
			<polygon points="290.5,348.1 302.5,348.1 303,346.3 294.2,346.3 296,338.9 304.3,338.9 304.8,337.1 296.5,337.1 297.9,330.4 
				307.1,330.4 307.3,328.8 295.8,328.8 			"/>
			<polygon points="319.3,347.2 319.3,345.8 316.8,328.8 312.4,328.8 307.6,348.1 310.1,348.1 314.5,329.5 314.5,331.8 317,348.1 
				321.4,348.1 326.3,328.8 323.7,328.8 			"/>
			<path d="M236.5,328.3c-2.8,0-4.4,0.5-5.8,1.8c-1.6,1.4-2.5,2.5-3.5,4.4c-0.5,1.4-0.9,3-1.4,4.8c0,0.5,0,1.4-0.5,1.4
				c0,0.5,0,0.5,0,0.9c0,0.5,0,0.9,0,1.8c0,1.2,0.5,2.5,1.4,3.5c0.5,0.9,1.6,1.4,3.9,1.4c1.8,0.5,3,0,4.4-0.5
				c1.2-0.7,2.5-1.6,3.5-2.5c0.9-1.4,1.4-2.5,1.8-3.9c1.4-3,1.8-5.5,1.8-7.8c0-1.6-0.5-3-1.4-3.9C240,328.8,238.8,328.3,236.5,328.3
				z M238.1,340.1c-0.7,2.8-1.6,4.4-2.5,5.3s-2.1,1.4-4.4,1.4c-0.7,0-1.6-0.5-2.5-0.9c-0.5-0.9-0.5-1.6-0.5-3.5
				c0-2.5,0.9-5.1,1.8-7.4c0.7-1.2,1.2-2.5,2.5-3.5c0.7-0.5,1.6-0.9,3-0.9c3,0,3.9,1.4,3.9,4.4C239.1,336.8,239.1,338.4,238.1,340.1
				z"/>
			<polygon points="328.6,328.8 327.6,330.6 333.9,330.6 329.5,348.1 332,348.1 336.4,330.6 342.6,330.6 343.1,328.8 			"/>
			<path d="M264.2,328.8l-11.5,19.4h3l3-5.3h7.4l0.5,5.3h3l-1.8-19.4H264.2z M259.8,340.8l5.8-10.6l0.5,10.6H259.8z"/>
			<path d="M281.3,340.3h5.3c-0.7,2.1-1.2,3.9-1.8,4.8c-0.9,1.4-2.5,1.8-4.4,1.8c-0.9,0-1.8-0.5-2.3-0.9c-0.9-0.2-0.9-1.2-0.9-2.5
				s0.5-3,0.9-4.8c0.2-3.2,1.6-5.3,2.5-6.2c0.9-1.4,2.1-1.8,3.9-1.8c2.5-0.5,3.9,0.7,3.9,2.5c0,0.5,0,0.9-0.5,1.4h2.5
				c0.5-0.5,0.5-1.4,0.5-1.8c0-1.2-0.9-2.5-1.8-3.5c-0.9-0.5-2.5-0.9-4.4-0.9s-3.9,0.9-5.3,1.8c-1.2,1.4-2.5,3-3.5,5.3
				c-1.4,3.5-1.8,6-1.8,7.8c0,2.5,0.7,4.4,2.5,4.8c0.2,0.5,1.6,0.5,2.5,0.5c1.4,0,2.5,0,3.9-0.9c1.2-0.2,2.1-1.2,2.5-2.5l-0.9,3.5
				h2.3l2.5-10.1h-7.8L281.3,340.3z"/>
			<path d="M179.2,328.8l-11.5,19.4h3l3-5.3h7.4l0.5,5.3h3l-1.8-19.4H179.2z M174.8,340.8l5.8-10.6l0.5,10.6H174.8z"/>
		</g>
		<path class="st4" d="M139.6,216.7h59.5c1.8,17.5,10.6,37.4,36,45.4l-1.8,4.8h-59.1l-6.2-8.3l42.2-0.5l-3.9-4.8h-41.8l-5.8-7.4H201
			l-3-5.8h-42.7l-6.2-7.8l42.2-0.5l-3.9-6.2h-42.7L139.6,216.7z"/>
		<path class="st4" d="M354.9,216.9h-59.5c-1.8,17.5-10.1,37.4-36,45.4l2.3,4.8h59.1l6.2-8.3l-42.2-0.5l3.5-4.8h41.8l5.8-7.4h-42.2
			l3-5.8h42.7l6.2-7.8l-42.2-0.5l3.9-6.2h42.4L354.9,216.9z"/>
		<g>
			<path d="M245.5,230.8V216h-17.3c0.1,5.6,1.1,11.5,3,17.5C235.8,231.9,240.5,231.1,245.5,230.8z"/>
			<path d="M266.2,216h-17.5v14.8c4.5,0.1,9.3,1,14.3,2.7C264.8,227.8,265.9,221.9,266.2,216z"/>
			<path d="M240.9,178.7c-3.5,4.7-6.3,9.7-8.6,15.1c4.3,1.5,8.7,2.4,13.2,2.5v-18.2C243.9,178.2,242.4,178.4,240.9,178.7z"/>
			<path d="M232.2,236.5c1.8,5,4.5,10.5,8,16.5c1.8,0.3,3.5,0.7,5.3,0.8v-19.6C241.1,234.3,236.7,235.1,232.2,236.5z"/>
			<path d="M254,252.8c3.4-5.6,6.1-11,8-16.1c-4.3-1.4-8.6-2.2-13.3-2.5v19.3C250.7,253.5,252.4,253.2,254,252.8z"/>
			<path d="M231,196.9c-1.7,5.1-2.7,10.4-3,15.8h17.5v-13.2C240.6,199.5,235.8,198.6,231,196.9z"/>
			<path d="M218.3,190.7c-5.4,6.5-8.5,14.1-9.1,22h15.4c0.1-5.8,1.2-11.4,3.1-17.1C224.3,194.3,221.3,192.7,218.3,190.7z"/>
			<path d="M253.6,178.7c-1.7-0.3-3.3-0.5-4.9-0.6V196c4.8-0.3,9.1-1.2,13.3-2.7C260.1,188.7,257.3,183.7,253.6,178.7z"/>
			<path d="M229.1,237.7c-2.9,1.1-6,2.7-9.3,4.7c4.5,4.5,9.9,7.9,16,9.7C233,246.9,230.8,242.3,229.1,237.7z"/>
			<path d="M273.7,242c-2.9-1.7-5.7-3.1-8.6-4.3c-1.7,4.6-3.9,9.3-6.5,13.9C264.1,249.8,269.3,246.5,273.7,242z"/>
			<path d="M276,239.6c5.4-6.8,8.3-15,8.3-23.6h-14.8c-0.1,5.7-1.2,11.7-3.4,18.7C269.4,235.9,272.6,237.5,276,239.6z"/>
			<path d="M227.9,234.6c-1.9-6-3-12.2-3.4-18.4h-15.7c0.1,8.6,3,16.9,8.5,23.8C220.9,237.8,224.4,236,227.9,234.6z"/>
			<path d="M263.3,196.4c-5,1.8-9.7,2.8-14.5,3.1v13.2h17.5C266.2,207.1,265.2,201.6,263.3,196.4z"/>
			<path d="M284,213c-0.6-8.1-3.9-15.9-9.4-22.1c-2.7,1.6-5.5,3.2-8.5,4.5c2,5.7,3,11.6,3.1,17.6H284z"/>
			<path d="M265.1,192.1c2.6-1.2,5-2.4,7.2-3.8c-3.8-3.7-8.6-6.5-13.7-8.2C261.2,183.9,263.3,187.8,265.1,192.1z"/>
			<path d="M220.9,188.5c2.7,1.5,5.4,2.9,8.1,4c1.7-4.3,4-8.5,6.9-12.7C230.4,181.5,225.3,184.4,220.9,188.5z"/>
		</g>
	</g>
</g>
<g id="Layer_3" class="st0">
	<g class="st1">
		<polygon points="228.3,280.2 230.9,273.3 223.7,277.9 		"/>
		<path d="M303.3,297.7c11.8-8.8,23.3-17.8,34.8-26.5c-6.7,0.7-13.4,1.4-20.3,1.8c1.2-4.4,2.1-8.8,2.1-13.4
			c0.2-12.7-4.2-24.9-12.7-35.5c5.3-10.6,13.4-20.5,10.1-31.4c-6-21.2-35.8-20.5-52.1-6.9c-4.2,3.5-8.1,7.4-11.5,11.5
			c-27.5,2.3-48.4,16.6-56.5,39c-0.9,2.5-1.6,5.1-2.1,7.6c-14.3-12.2-23.5-25.4-26.1-39.7c-4.6,6-8.5,11.5-12.7,17.1
			c6.9,21.7,22.4,39.9,41.3,56.7l0,0c4.4,12.5,12.2,24.7,23.5,35.8l0.9-0.9c2.1,12.2,5.8,22.4,11.8,28.8c13.6,13.6,27,11.5,37.6-5.5
			c2.8-5.3,3.5-12.5,4.4-19.1C286.9,311.8,296.2,305.1,303.3,297.7z M289.5,295.4l-8.5-0.5l-0.9-2.1h-8.5l-1.4,2.1h-8.3l12.7-17.1h9
			L289.5,295.4z M242.4,278.8l0.9-5.1l17.1,3.5l-0.9,5.1l-5.5-1.4l-3,13.6l-6-0.9l3-14.1L242.4,278.8z M285.5,265.2
			c-6.5-2.5-9.5-5.5-3.9-9.5c5.1,3.5,10.1,3.5,15.7,0c0,3.5,2.1,4.6,6.9,4.6C298.5,264.8,292,268.2,285.5,265.2z M298.5,200.9
			c-0.5,3.9-1.8,7.4-3.7,10.8c-4.4-3.5-9.2-6.5-14.5-9.2c1.2-1.4,2.3-2.5,3.5-3.9C296.6,183.3,299.6,189.6,298.5,200.9z
			 M278.4,204.3l-0.5,0.9c5.5,2.8,10.6,6,15,9.5c-1.2,2.1-2.5,4.4-3.7,6.5c3.7,2.3,6.7,4.4,9.7,6.5l-9.7,0.7l-5.5,5.5l6,7.2
			l-14.1,12.5l-5.1,1.4l3.5,4.2l-13.8,13.1c-5.3-0.7-10.1-1.8-14.5-3.2C251.4,246.5,260.2,226,278.4,204.3z M222.8,263.1
			c-4.4-2.5-8.5-5.1-12.7-7.8c3.7-5.5,22.8-31.8,22.8-31.8l0.5-18c5.3-2.1,11.1-3.5,17.3-4.2C237.6,218.2,229,239.4,222.8,263.1z
			 M197.7,274.4l9.9-16.6l5.1,3.5l-9.5,16.1L197.7,274.4z M186.1,255.8l-4.6,4.6l-4.2-4.6l13.1-13.1l10.6,10.6l-3.5,3l-6-6l-2.5,2.5
			l5.1,4.6l-3.5,3L186.1,255.8z M211,296.6c2.1-1.6,4.8-1.8,7.4-1.6c0.7,0.5,1.2,0.9,1.8,1.4c0.2,4.4,0.7,8.8,1.4,12.9
			C217.5,305.1,214,301,211,296.6z M232.7,289.9l-6.9-3.5l0.9-2.5l-7.2-3.5L217,282l-6.9-3.5l21.2-12l7.2,3.5L232.7,289.9z
			 M256.9,309.5c-0.9,4.6-1.4,9-2.1,13.6c-2.5,12.5-6.5,12.7-9.5,0.5c-2.1-9.5-2.1-18.7-3.5-28.6c15.2,3.7,33.4,4.8,53.1,5.8
			c-5.3,4.4-11.8,8.5-18.9,12c0.2-0.9,0.2-1.8,0.5-2.8C270.5,309,262.9,310.4,256.9,309.5z"/>
		<path d="M194.2,284.8c-12.7,0.9-25.1-0.9-36.2-4.6c-1.4,7.6-1.6,15.5,4.6,21.2c14.5,3.5,29.5,1.6,44.1-1.4
			C197.2,295,193,289.9,194.2,284.8z"/>
		<path d="M200.2,217.7c4.2-5.1,8.1-10.6,12-15.7c-15.5-7.2-28.6-9-39.7-5.1c0.9,5.1,1.6,10.6,2.5,15.7
			C182.7,210.1,191.2,211.9,200.2,217.7z"/>
		<polygon points="265.9,250.2 268.9,254.1 280,237.5 270.5,237.8 271.5,245.6 		"/>
		<polygon points="279.5,289.4 277.9,283 274,289 		"/>
	</g>
</g>
<g>
	<path d="M70.7,234.2h-8.9v-42.9h8.9V234.2z"/>
	<path d="M85.6,220.9c0.3,2,0.8,3.4,1.6,4.4c1.5,1.8,4,2.7,7.6,2.7c2.2,0,3.9-0.2,5.3-0.7c2.6-0.9,3.8-2.6,3.8-5
		c0-1.4-0.6-2.5-1.9-3.3c-1.3-0.8-3.2-1.4-6-2l-4.6-1c-4.6-1-7.7-2.1-9.4-3.3c-2.9-2-4.3-5.1-4.3-9.3c0-3.8,1.4-7,4.2-9.6
		c2.8-2.5,7-3.8,12.5-3.8c4.6,0,8.5,1.2,11.7,3.6c3.2,2.4,4.9,5.9,5.1,10.4h-8.6c-0.2-2.6-1.3-4.4-3.5-5.5c-1.4-0.7-3.2-1.1-5.3-1.1
		c-2.4,0-4.3,0.5-5.7,1.4s-2.1,2.2-2.1,3.9c0,1.5,0.7,2.7,2.1,3.4c0.9,0.5,2.8,1.1,5.7,1.8l7.5,1.8c3.3,0.8,5.8,1.8,7.4,3.1
		c2.6,2,3.8,4.9,3.8,8.8c0,3.9-1.5,7.2-4.5,9.8c-3,2.6-7.3,3.9-12.9,3.9c-5.7,0-10.1-1.3-13.3-3.8c-3.2-2.6-4.9-6.1-4.9-10.5H85.6z"
		/>
	<path d="M152,230.4c-3.2,3.3-7.9,5-14.1,5c-6.1,0-10.8-1.7-14.1-5c-4.4-4.1-6.5-10-6.5-17.7c0-7.9,2.2-13.8,6.5-17.7
		c3.2-3.3,7.9-5,14.1-5c6.1,0,10.8,1.7,14.1,5c4.3,3.9,6.5,9.8,6.5,17.7C158.5,220.4,156.3,226.3,152,230.4z M146.4,223.8
		c2.1-2.6,3.1-6.4,3.1-11.2c0-4.8-1-8.5-3.1-11.2s-4.9-3.9-8.5-3.9s-6.4,1.3-8.5,3.9c-2.1,2.6-3.2,6.4-3.2,11.2s1.1,8.6,3.2,11.2
		c2.1,2.6,5,3.9,8.5,3.9S144.3,226.5,146.4,223.8z"/>
	<path d="M166.5,195.8c2.6-2.8,6-4.2,10.2-4.2c6.4,0,10.8,2.8,13.2,8.5c1.4,3.2,2,7.5,2,12.7c0,5.1-0.7,9.4-2,12.8
		c-2.5,6.5-7,9.8-13.7,9.8c-3.2,0-6-0.9-8.5-2.8c-2.5-1.9-4-4.6-4.3-8.2h8.3c0.2,1.2,0.7,2.3,1.6,3c0.9,0.8,2,1.2,3.4,1.2
		c2.7,0,4.7-1.5,5.8-4.5c0.6-1.7,1-4.1,1.1-7.3c-0.8,1-1.6,1.7-2.4,2.2c-1.6,0.9-3.5,1.4-5.7,1.4c-3.4,0-6.3-1.2-8.9-3.5
		c-2.6-2.3-3.9-5.7-3.9-10C162.5,202.3,163.9,198.6,166.5,195.8z M180.4,212.6c1.9-1.2,2.8-3.3,2.8-6.3c0-2.4-0.6-4.3-1.7-5.7
		c-1.1-1.4-2.6-2.1-4.6-2.1c-1.4,0-2.6,0.4-3.6,1.2c-1.6,1.2-2.4,3.3-2.4,6.3c0,2.5,0.5,4.4,1.5,5.6c1,1.3,2.6,1.9,4.7,1.9
		C178.3,213.6,179.4,213.2,180.4,212.6z"/>
	<path d="M221.7,197.3c2.2,3.8,3.2,9.2,3.2,16.1c0,7-1.1,12.3-3.2,16.1c-2.2,3.8-5.9,5.7-11.3,5.7c-5.4,0-9.2-1.9-11.3-5.7
		c-2.2-3.8-3.2-9.1-3.2-16.1c0-7,1.1-12.4,3.2-16.1c2.2-3.8,5.9-5.7,11.3-5.7C215.8,191.7,219.5,193.6,221.7,197.3z M205.5,224.6
		c0.8,2.6,2.4,3.9,4.9,3.9c2.5,0,4.1-1.3,4.9-3.9c0.8-2.6,1.2-6.3,1.2-11.1c0-5.1-0.4-8.9-1.2-11.3c-0.8-2.4-2.4-3.7-4.9-3.7
		c-2.5,0-4.1,1.2-4.9,3.7c-0.8,2.4-1.2,6.2-1.2,11.3C204.3,218.3,204.7,222,205.5,224.6z"/>
	<path d="M254.9,197.3c2.2,3.8,3.2,9.2,3.2,16.1c0,7-1.1,12.3-3.2,16.1c-2.2,3.8-5.9,5.7-11.3,5.7c-5.4,0-9.2-1.9-11.3-5.7
		c-2.2-3.8-3.2-9.1-3.2-16.1c0-7,1.1-12.4,3.2-16.1c2.2-3.8,5.9-5.7,11.3-5.7C248.9,191.7,252.7,193.6,254.9,197.3z M238.7,224.6
		c0.8,2.6,2.4,3.9,4.9,3.9c2.5,0,4.1-1.3,4.9-3.9c0.8-2.6,1.2-6.3,1.2-11.1c0-5.1-0.4-8.9-1.2-11.3c-0.8-2.4-2.4-3.7-4.9-3.7
		c-2.5,0-4.1,1.2-4.9,3.7c-0.8,2.4-1.2,6.2-1.2,11.3C237.5,218.3,237.9,222,238.7,224.6z"/>
	<path d="M264.4,205.1v-5.7c2.6-0.1,4.4-0.3,5.5-0.5c1.7-0.4,3-1.1,4.1-2.2c0.7-0.8,1.3-1.8,1.6-3c0.2-0.8,0.3-1.3,0.3-1.7h6.9v42.2
		h-8.5v-29.1H264.4z"/>
	<path d="M297.1,203.7h8.8v8.7h-8.8V203.7z M297.1,225.5h8.8v8.7h-8.8V225.5z"/>
	<path d="M317.2,225.9c1.2-2.8,4-5.8,8.4-8.9c3.8-2.7,6.3-4.7,7.4-5.9c1.7-1.8,2.6-3.9,2.6-6.1c0-1.8-0.5-3.3-1.5-4.5
		c-1-1.2-2.4-1.8-4.3-1.8c-2.5,0-4.2,0.9-5.2,2.8c-0.5,1.1-0.8,2.8-0.9,5.2h-8.1c0.1-3.6,0.8-6.5,2-8.7c2.2-4.2,6.2-6.3,11.8-6.3
		c4.5,0,8,1.2,10.7,3.7s4,5.8,4,9.8c0,3.1-0.9,5.9-2.8,8.3c-1.2,1.6-3.2,3.4-6,5.4l-3.3,2.4c-2.1,1.5-3.5,2.5-4.3,3.2
		c-0.8,0.7-1.4,1.4-1.9,2.3h18.4v7.3h-28.9C315.3,231.2,315.9,228.4,317.2,225.9z"/>
	<path d="M374.3,197.3c2.2,3.8,3.2,9.2,3.2,16.1c0,7-1.1,12.3-3.2,16.1c-2.2,3.8-5.9,5.7-11.3,5.7s-9.2-1.9-11.3-5.7
		c-2.2-3.8-3.2-9.1-3.2-16.1c0-7,1.1-12.4,3.2-16.1c2.2-3.8,5.9-5.7,11.3-5.7S372.1,193.6,374.3,197.3z M358.1,224.6
		c0.8,2.6,2.4,3.9,4.9,3.9c2.5,0,4.1-1.3,4.8-3.9c0.8-2.6,1.2-6.3,1.2-11.1c0-5.1-0.4-8.9-1.2-11.3c-0.8-2.4-2.4-3.7-4.8-3.7
		c-2.5,0-4.1,1.2-4.9,3.7c-0.8,2.4-1.2,6.2-1.2,11.3C356.9,218.3,357.3,222,358.1,224.6z"/>
	<path d="M407.4,197.3c2.2,3.8,3.2,9.2,3.2,16.1c0,7-1.1,12.3-3.2,16.1c-2.2,3.8-5.9,5.7-11.3,5.7s-9.2-1.9-11.3-5.7
		c-2.2-3.8-3.2-9.1-3.2-16.1c0-7,1.1-12.4,3.2-16.1c2.2-3.8,5.9-5.7,11.3-5.7S405.3,193.6,407.4,197.3z M391.2,224.6
		c0.8,2.6,2.4,3.9,4.9,3.9c2.5,0,4.1-1.3,4.8-3.9c0.8-2.6,1.2-6.3,1.2-11.1c0-5.1-0.4-8.9-1.2-11.3c-0.8-2.4-2.4-3.7-4.8-3.7
		c-2.5,0-4.1,1.2-4.9,3.7c-0.8,2.4-1.2,6.2-1.2,11.3C390,218.3,390.4,222,391.2,224.6z"/>
	<path d="M416.1,216c1.1-1.9,2.6-3.4,4.7-4.3c-2-1.4-3.4-2.8-4-4.4c-0.6-1.6-0.9-3.1-0.9-4.4c0-3.1,1.2-5.7,3.5-7.9
		c2.3-2.2,5.6-3.2,9.8-3.2s7.5,1.1,9.8,3.2c2.3,2.2,3.5,4.8,3.5,7.9c0,1.4-0.3,2.9-0.9,4.4c-0.6,1.6-1.9,3-4,4.1
		c2.1,1.2,3.7,2.7,4.7,4.6s1.6,4.1,1.6,6.4c0,3.6-1.3,6.6-4,9.1c-2.6,2.5-6.3,3.7-11,3.7c-4.7,0-8.3-1.2-10.7-3.7
		c-2.4-2.5-3.6-5.5-3.6-9.1C414.5,220.1,415,218,416.1,216z M424.7,226.8c1.1,1.1,2.6,1.7,4.5,1.7s3.4-0.6,4.5-1.7
		c1.1-1.1,1.6-2.8,1.6-4.8c0-2.2-0.5-3.8-1.6-4.9c-1.1-1.1-2.6-1.7-4.4-1.7s-3.3,0.6-4.4,1.7c-1.1,1.1-1.6,2.8-1.6,4.9
		C423.1,224,423.6,225.6,424.7,226.8z M425.2,207.5c0.9,1,2.3,1.5,3.9,1.5c1.7,0,3-0.5,3.9-1.5c0.9-1,1.4-2.2,1.4-3.8
		c0-1.7-0.5-3-1.4-3.9s-2.2-1.4-3.9-1.4c-1.7,0-3,0.5-3.9,1.4s-1.4,2.2-1.4,3.9C423.8,205.3,424.3,206.6,425.2,207.5z"/>
</g>
<g>
	<path d="M58.4,347.2l8.2-20.9h2.2l8,20.9h-2l-2.4-6.6h-9.5l-2.5,6.6H58.4z M63.6,339h8.2l-4.1-11L63.6,339z"/>
	<path d="M97.4,332.4c-0.4-1.8-1.2-3-2.3-3.8s-2.5-1.1-4.3-1.1c-1.3,0-2.3,0.3-3.2,0.8c-0.9,0.5-1.7,1.2-2.2,2
		c-0.6,0.9-1,1.8-1.3,2.9c-0.3,1.1-0.4,2.3-0.4,3.5c0,1.2,0.1,2.3,0.4,3.4s0.6,2.1,1.2,3c0.6,0.9,1.3,1.6,2.3,2.1
		c0.9,0.5,2.1,0.8,3.6,0.8c0.9,0,1.7-0.1,2.4-0.4c0.7-0.3,1.4-0.7,1.9-1.2c0.6-0.5,1-1.1,1.4-1.8c0.4-0.7,0.7-1.5,0.9-2.3h2.1
		c-0.2,1-0.6,2-1,2.9c-0.4,0.9-1,1.7-1.8,2.4s-1.6,1.2-2.6,1.6c-1,0.4-2.2,0.6-3.6,0.6c-1.6,0-3-0.3-4.1-0.9
		c-1.1-0.6-2.1-1.4-2.8-2.4s-1.3-2.2-1.6-3.5c-0.3-1.3-0.5-2.7-0.5-4.2c0-2,0.2-3.7,0.7-5.1s1.2-2.5,2-3.4c0.9-0.9,1.9-1.5,3.1-1.9
		c1.2-0.4,2.5-0.6,3.9-0.6c1.1,0,2.1,0.1,3,0.4c0.9,0.3,1.7,0.7,2.4,1.3s1.3,1.3,1.7,2.1c0.5,0.8,0.8,1.8,0.9,2.9H97.4z"/>
	<path d="M121.2,332.4c-0.4-1.8-1.2-3-2.3-3.8s-2.5-1.1-4.3-1.1c-1.3,0-2.3,0.3-3.2,0.8c-0.9,0.5-1.7,1.2-2.2,2
		c-0.6,0.9-1,1.8-1.3,2.9c-0.3,1.1-0.4,2.3-0.4,3.5c0,1.2,0.1,2.3,0.4,3.4s0.6,2.1,1.2,3c0.6,0.9,1.3,1.6,2.3,2.1
		c0.9,0.5,2.1,0.8,3.6,0.8c0.9,0,1.7-0.1,2.4-0.4c0.7-0.3,1.4-0.7,1.9-1.2c0.6-0.5,1-1.1,1.4-1.8c0.4-0.7,0.7-1.5,0.9-2.3h2.1
		c-0.2,1-0.6,2-1,2.9c-0.4,0.9-1,1.7-1.8,2.4s-1.6,1.2-2.6,1.6c-1,0.4-2.2,0.6-3.6,0.6c-1.6,0-3-0.3-4.1-0.9
		c-1.1-0.6-2.1-1.4-2.8-2.4s-1.3-2.2-1.6-3.5c-0.3-1.3-0.5-2.7-0.5-4.2c0-2,0.2-3.7,0.7-5.1s1.2-2.5,2-3.4c0.9-0.9,1.9-1.5,3.1-1.9
		c1.2-0.4,2.5-0.6,3.9-0.6c1.1,0,2.1,0.1,3,0.4c0.9,0.3,1.7,0.7,2.4,1.3s1.3,1.3,1.7,2.1c0.5,0.8,0.8,1.8,0.9,2.9H121.2z"/>
	<path d="M132.2,337.7v9.5l-2,0v-20.8h8.2c2.3,0,4.1,0.4,5.3,1.3c1.2,0.9,1.8,2.3,1.8,4.2c0,1.3-0.3,2.4-0.8,3.1
		c-0.5,0.8-1.4,1.4-2.6,2c0.6,0.2,1.1,0.5,1.4,0.9c0.3,0.4,0.6,0.9,0.8,1.4c0.2,0.5,0.3,1.1,0.3,1.7c0,0.6,0.1,1.1,0.1,1.7
		c0,0.8,0.1,1.5,0.1,2c0,0.5,0.1,0.9,0.2,1.3c0.1,0.3,0.1,0.6,0.2,0.8s0.2,0.3,0.3,0.4v0.2l-2.2,0c-0.2-0.3-0.4-0.8-0.4-1.4
		s-0.2-1.3-0.2-1.9c0-0.7-0.1-1.3-0.1-2c0-0.6-0.1-1.2-0.2-1.6c-0.1-0.6-0.3-1-0.6-1.3s-0.6-0.6-0.9-0.8s-0.8-0.3-1.2-0.3
		c-0.5-0.1-0.9-0.1-1.4-0.1H132.2z M138.3,336c0.7,0,1.4-0.1,2-0.2c0.6-0.2,1.2-0.4,1.6-0.7c0.5-0.3,0.8-0.8,1.1-1.3
		c0.3-0.5,0.4-1.1,0.4-1.9c0-0.8-0.1-1.4-0.4-1.9c-0.3-0.5-0.7-0.9-1.1-1.2c-0.5-0.3-1-0.5-1.6-0.6s-1.2-0.2-1.9-0.2h-6.3v8H138.3z"
		/>
	<path d="M153.1,347.2v-2.6h2.1v2.6H153.1z"/>
	<path d="M176.4,329L176.4,329l-0.1,18.2h-2v-20.9h2.2l12.1,18.2h0.1v-18.2h2v20.9h-2.3L176.4,329z"/>
	<path d="M197.4,336.8c0-1.5,0.2-3,0.6-4.3c0.4-1.3,1-2.5,1.8-3.5c0.8-1,1.8-1.8,3-2.4c1.2-0.6,2.6-0.9,4.1-0.9c1.6,0,3,0.3,4.3,0.9
		s2.3,1.4,3.1,2.3c0.8,1,1.4,2.2,1.9,3.5c0.4,1.3,0.6,2.8,0.6,4.3c0,1.5-0.2,2.9-0.6,4.2c-0.4,1.3-1,2.5-1.8,3.5
		c-0.8,1-1.8,1.8-3,2.4c-1.2,0.6-2.6,0.9-4.2,0.9c-1.6,0-3-0.3-4.2-0.9c-1.2-0.6-2.2-1.4-3-2.4c-0.8-1-1.4-2.2-1.8-3.5
		C197.6,339.7,197.4,338.3,197.4,336.8z M207.2,346.1c1.4,0,2.5-0.3,3.5-0.8c1-0.5,1.8-1.2,2.4-2c0.6-0.9,1.1-1.8,1.4-3
		c0.3-1.1,0.4-2.3,0.4-3.5c0-1.5-0.2-2.7-0.5-3.9c-0.4-1.1-0.9-2.1-1.6-2.9c-0.7-0.8-1.5-1.4-2.5-1.9c-1-0.4-2-0.6-3.2-0.6
		c-1.3,0-2.5,0.3-3.5,0.8c-1,0.5-1.8,1.2-2.4,2.1c-0.6,0.9-1.1,1.9-1.4,3c-0.3,1.1-0.4,2.3-0.4,3.5c0,1.2,0.1,2.4,0.4,3.5
		c0.3,1.1,0.8,2.1,1.4,3c0.6,0.9,1.4,1.5,2.4,2C204.6,345.8,205.8,346.1,207.2,346.1z"/>
	<path d="M224.3,347.2v-2.6h2.1v2.6H224.3z"/>
	<path d="M245.5,347.2v-20.9h3l6.8,18.4h0.1l6.7-18.4h3v20.9h-2v-18.6h-0.1l-6.8,18.6h-1.9l-6.9-18.6h-0.1v18.6H245.5z"/>
	<path d="M276.7,335.8c0.9,0,1.7-0.1,2.4-0.2c0.7-0.1,1.3-0.3,1.8-0.6c0.5-0.3,0.9-0.7,1.2-1.2c0.3-0.5,0.4-1.2,0.4-1.9
		c0-0.6-0.1-1.2-0.3-1.6c-0.2-0.5-0.5-0.8-0.9-1.1c-0.4-0.3-0.9-0.5-1.4-0.6c-0.5-0.1-1.1-0.2-1.7-0.2c-0.7,0-1.3,0.1-1.8,0.3
		c-0.5,0.2-1,0.5-1.4,0.9c-0.4,0.4-0.7,0.9-0.9,1.4c-0.2,0.5-0.3,1.1-0.3,1.8H272c0-0.9,0.2-1.8,0.5-2.5c0.3-0.7,0.8-1.4,1.5-2.1
		c0.6-0.6,1.4-1,2.2-1.1s1.6-0.2,2.5-0.2c0.8,0,1.6,0.1,2.3,0.3c0.7,0.2,1.3,0.5,1.8,0.9c0.5,0.4,0.9,0.9,1.2,1.6
		c0.3,0.6,0.5,1.4,0.5,2.2c0,1.1-0.2,2-0.7,2.8c-0.5,0.8-1.2,1.4-2.2,1.8c0.7,0.2,1.3,0.5,1.8,0.9s0.8,0.8,1.1,1.2
		c0.3,0.5,0.5,0.9,0.6,1.4c0.1,0.5,0.1,1,0.1,1.4c0,0.9-0.1,1.6-0.4,2.4s-0.7,1.4-1.3,1.9c-0.6,0.6-1.3,1-2.1,1.3s-1.8,0.5-2.8,0.5
		c-1.2,0-2.2-0.1-3.1-0.3c-0.9-0.2-1.6-0.6-2.2-1.1c-0.6-0.5-1-1.1-1.4-1.9c-0.3-0.8-0.6-1.8-0.7-3h1.9c0,1.6,0.5,2.8,1.4,3.6
		s2.2,1.2,3.7,1.2c0.7,0,1.4-0.1,2.1-0.4s1.2-0.6,1.6-1s0.8-0.9,1-1.5c0.2-0.6,0.4-1.1,0.3-1.7c0-0.8-0.2-1.5-0.6-2.1
		c-0.3-0.6-0.8-1-1.4-1.3c-0.6-0.3-1.3-0.5-2.1-0.6c-0.8-0.1-1.6-0.1-2.5-0.1V335.8z"/>
	<path d="M298.1,332h-5.3v-1.2c0.8-0.1,1.5-0.1,2.1-0.2c0.6-0.1,1.2-0.3,1.7-0.6c0.5-0.3,0.9-0.7,1.2-1.2c0.3-0.5,0.6-1.2,0.7-2.1
		h1.5v20.4h-1.9V332z"/>
	<path d="M317.1,332h-5.3v-1.2c0.8-0.1,1.5-0.1,2.1-0.2c0.6-0.1,1.2-0.3,1.7-0.6c0.5-0.3,0.9-0.7,1.2-1.2c0.3-0.5,0.6-1.2,0.7-2.1
		h1.5v20.4h-1.9V332z"/>
	<path d="M336.1,332h-5.3v-1.2c0.8-0.1,1.5-0.1,2.1-0.2c0.6-0.1,1.2-0.3,1.7-0.6c0.5-0.3,0.9-0.7,1.2-1.2c0.3-0.5,0.6-1.2,0.7-2.1
		h1.5v20.4h-1.9V332z"/>
	<path d="M348.4,333.4c0-1,0.2-1.9,0.5-2.7s0.8-1.5,1.3-2.1c0.6-0.6,1.3-1,2.1-1.4c0.8-0.3,1.7-0.5,2.7-0.5c1,0,1.9,0.2,2.7,0.5
		s1.4,0.7,2,1.2c0.5,0.5,0.9,1.1,1.2,1.8c0.3,0.7,0.4,1.4,0.4,2.2c0,0.9-0.1,1.7-0.4,2.4c-0.3,0.7-0.7,1.3-1.2,1.9s-1.1,1-1.7,1.4
		c-0.6,0.4-1.3,0.8-1.9,1.2s-1.3,0.7-1.9,1.1c-0.6,0.3-1.2,0.7-1.7,1.1c-0.3,0.3-0.6,0.5-1,0.8c-0.3,0.3-0.6,0.6-0.8,0.9
		c-0.3,0.3-0.5,0.7-0.6,1.1c-0.2,0.4-0.2,0.8-0.3,1.3h11.4v1.6h-13.4c0-1,0.1-1.9,0.3-2.7c0.2-0.8,0.6-1.6,1.3-2.3
		c0.7-0.8,1.5-1.5,2.2-2.1c0.8-0.6,1.5-1.1,2.2-1.6c0.7-0.5,1.4-0.9,2.1-1.2c0.7-0.4,1.2-0.8,1.7-1.2c0.5-0.4,0.9-0.9,1.2-1.5
		s0.4-1.2,0.4-2.1c0-0.7-0.1-1.2-0.3-1.8c-0.2-0.5-0.6-1-1-1.3c-0.4-0.4-0.9-0.6-1.4-0.8c-0.5-0.2-1.1-0.3-1.8-0.3
		c-0.7,0-1.3,0.1-1.8,0.4s-1,0.7-1.4,1.1s-0.7,1-0.9,1.6c-0.2,0.6-0.3,1.3-0.3,2H348.4z"/>
	<path d="M373.4,326.8c1,0,1.9,0.2,2.6,0.5s1.4,0.7,1.9,1.2c0.5,0.5,0.9,1.1,1.2,1.8c0.3,0.7,0.6,1.4,0.7,2.2
		c0.2,0.8,0.3,1.6,0.3,2.4c0.1,0.8,0.1,1.6,0.1,2.4c0,1.4-0.1,2.6-0.3,3.9c-0.2,1.2-0.5,2.3-1.1,3.3c-0.5,0.9-1.2,1.7-2.1,2.3
		c-0.9,0.6-2,0.8-3.4,0.8c-1.4,0-2.6-0.3-3.5-0.8c-0.9-0.6-1.6-1.3-2.1-2.3c-0.5-1-0.9-2.1-1.1-3.3c-0.2-1.3-0.3-2.6-0.3-4
		c0-1.3,0.1-2.6,0.3-3.8c0.2-1.2,0.5-2.3,1-3.3c0.5-1,1.2-1.8,2.1-2.4S372,326.8,373.4,326.8z M378.5,337.1c0-1.1-0.1-2.2-0.2-3.2
		c-0.1-1.1-0.4-2-0.7-2.8s-0.9-1.5-1.6-2c-0.7-0.5-1.5-0.8-2.6-0.8c-1,0-1.9,0.3-2.5,0.8c-0.6,0.5-1.2,1.2-1.5,2s-0.6,1.8-0.8,2.9
		c-0.1,1.1-0.2,2.2-0.2,3.3c0,1.3,0.1,2.5,0.2,3.6s0.4,2,0.8,2.7s0.9,1.3,1.6,1.8c0.6,0.4,1.5,0.6,2.5,0.6c1.1,0,2-0.3,2.7-0.8
		c0.7-0.5,1.2-1.2,1.5-2.1c0.3-0.9,0.6-1.8,0.7-2.9C378.4,339.2,378.5,338.2,378.5,337.1z"/>
	<path d="M394.8,342.1h-9.3v-1.6L395,327h1.7v13.6h2.8v1.6h-2.8v5h-1.9V342.1z M387.3,340.6h7.5v-10.8L387.3,340.6z"/>
	<path d="M412.2,332h-5.3v-1.2c0.8-0.1,1.5-0.1,2.1-0.2c0.6-0.1,1.2-0.3,1.7-0.6c0.5-0.3,0.9-0.7,1.2-1.2c0.3-0.5,0.6-1.2,0.7-2.1
		h1.5v20.4h-1.9V332z"/>
	<path d="M426.8,329L426.8,329l-0.1,18.2h-2v-20.9h2.2l12.1,18.2h0.1v-18.2h2v20.9h-2.3L426.8,329z"/>
</g>
<g>
	<path d="M81.5,266c1.8,1.7,2.8,3.7,3,5.9h-3.4c-0.4-1.7-1.1-3-2.3-4s-2.7-1.5-4.8-1.5c-2.5,0-4.5,0.9-6.1,2.7s-2.3,4.5-2.3,8.2
		c0,3,0.7,5.5,2.1,7.4c1.4,1.9,3.5,2.8,6.2,2.8c2.5,0,4.5-1,5.8-3c0.7-1,1.2-2.4,1.6-4.1h3.4c-0.3,2.7-1.3,5-3,6.8
		c-2,2.2-4.8,3.3-8.2,3.3c-3,0-5.5-0.9-7.5-2.7c-2.7-2.4-4-6.1-4-11.1c0-3.8,1-6.9,3-9.4c2.2-2.7,5.1-4,8.9-4
		C77.2,263.4,79.7,264.3,81.5,266z"/>
	<path d="M114,264.1h18.8v3.2h-15.3v7.8h14.2v3h-14.2v8.8H133v3.1h-19V264.1z"/>
	<path d="M162.6,264.1h11.7c1.9,0,3.5,0.3,4.8,0.9c2.4,1.1,3.6,3.1,3.6,6.1c0,1.5-0.3,2.8-1,3.8c-0.6,1-1.5,1.8-2.7,2.4
		c1,0.4,1.8,1,2.3,1.6s0.8,1.8,0.9,3.3l0.1,3.5c0,1,0.1,1.7,0.2,2.2c0.2,0.8,0.6,1.3,1.1,1.6v0.6h-4.3c-0.1-0.2-0.2-0.5-0.3-0.9
		c-0.1-0.4-0.1-1-0.2-2l-0.2-4.3c-0.1-1.7-0.7-2.8-1.8-3.4c-0.6-0.3-1.7-0.5-3.1-0.5h-7.7V290h-3.5V264.1z M173.9,276
		c1.6,0,2.9-0.3,3.8-1c0.9-0.7,1.4-1.8,1.4-3.6c0-1.8-0.7-3.1-2-3.8c-0.7-0.4-1.6-0.5-2.8-0.5h-8.3v8.8H173.9z"/>
	<path d="M230.7,264.1v3.1H222V290h-3.5v-22.8h-8.7v-3.1H230.7z"/>
	<path d="M258.5,264.1h3.5V290h-3.5V264.1z"/>
	<path d="M292.5,264.1h17.9v3.2H296v7.8h12.7v3.1H296V290h-3.5V264.1z"/>
	<path d="M339.4,264.1h3.5V290h-3.5V264.1z"/>
	<path d="M373.4,264.1h18.8v3.2h-15.3v7.8H391v3h-14.2v8.8h15.6v3.1h-19V264.1z"/>
	<path d="M421.7,264.1H432c3.5,0,6.2,1.3,8.2,3.8c1.7,2.3,2.6,5.2,2.6,8.7c0,2.7-0.5,5.2-1.5,7.4c-1.8,3.9-4.9,5.9-9.3,5.9h-10.3
		V264.1z M431.3,287c1.2,0,2.1-0.1,2.9-0.4c1.3-0.5,2.4-1.3,3.3-2.6c0.7-1,1.2-2.4,1.5-4c0.2-1,0.3-1.9,0.3-2.7
		c0-3.2-0.6-5.7-1.9-7.5c-1.2-1.8-3.2-2.7-6-2.7h-6.1V287H431.3z"/>
</g>
<g>
	<rect x="61.3" y="298.8" width="384.8" height="0.8"/>
</g>
</svg>
