<?xml version="1.0" encoding="utf-8"?>
<!-- Generator: Adobe Illustrator 22.0.1, SVG Export Plug-In . SVG Version: 6.00 Build 0)  -->
<svg version="1.1" xmlns="http://www.w3.org/2000/svg" xmlns:xlink="http://www.w3.org/1999/xlink" x="0px" y="0px"
	 viewBox="0 0 500 500" style="enable-background:new 0 0 500 500;" xml:space="preserve">
<style type="text/css">
	.st0{fill-rule:evenodd;clip-rule:evenodd;fill:#FFF9C8;}
	.st1{fill:#1A1A18;}
	.st2{fill-rule:evenodd;clip-rule:evenodd;fill:#1A1A18;}
	.st3{fill-rule:evenodd;clip-rule:evenodd;fill:#1A1A18;stroke:#1A1A18;stroke-width:0.216;stroke-miterlimit:2.6131;}
	.st4{fill-rule:evenodd;clip-rule:evenodd;fill:#000003;}
	.st5{fill-rule:evenodd;clip-rule:evenodd;fill:#7F5F86;}
</style>
<g id="Layer_1">
	<g>
		<g>
			<path class="st0" d="M371.6,114.2c0-4.4-4-7.9-8.9-7.9H137.6c-4.8,0-8.9,3.6-8.9,7.9v270.9c0,4.4,4.1,8.1,8.9,8.1h225.1
				c4.9,0,8.9-3.6,8.9-8.1V114.2z"/>
			<path class="st1" d="M362.7,400.6H137.6c-8.9,0-16.2-6.9-16.2-15.4V114.2c0-8.3,7.4-15.2,16.2-15.2h225.1
				c8.9,0,16.2,6.8,16.2,15.2v270.9C378.9,393.7,371.6,400.6,362.7,400.6z M137.6,106.3c-4.8,0-8.9,3.6-8.9,7.9v270.9
				c0,4.4,4.1,8.1,8.9,8.1h225.1c4.9,0,8.9-3.6,8.9-8.1V114.2c0-4.4-4-7.9-8.9-7.9H137.6z"/>
		</g>
		<g>
			<g>
				<path class="st1" d="M169.3,131.8v11.6h-7.1v58.8h-6.5v-58.8h-7.1v-11.6H169.3z"/>
			</g>
			<g>
				<path class="st1" d="M172.1,131.8h12.1c5.4,0,8.6,6.1,8.6,18.1c0,9.4-1.7,15.7-5.4,17.4v0.2c4.4,1.3,5.1,6.6,5.2,21.5
					c0,7.4,0.2,11.2,1.5,12.6v0.6H187c-0.6-2-0.8-4.6-0.8-7.4l-0.2-13.5c-0.1-5.5-1.2-8.9-3.9-8.9h-3.5v29.8h-6.5V131.8z
					 M178.6,162.6h2.7c3.1,0,4.9-3,4.9-10.6c0-6.5-1.6-9.8-4.5-9.8h-3.1V162.6z"/>
			</g>
			<g>
				<path class="st1" d="M203.6,131.8h8.1l8.6,70.4h-6.8l-1.5-14.9h-8.6l-1.5,14.9H195L203.6,131.8z M204.5,175.7h6.4l-3.1-31.6
					h-0.1L204.5,175.7z"/>
			</g>
			<g>
				<path class="st1" d="M230,131.8l7.9,48.2h0.1v-48.2h6v70.4h-7.4l-8-49.3h-0.1v49.3h-6v-70.4H230z"/>
			</g>
			<g>
				<path class="st1" d="M253.8,180.2v2.1c0,6.6,0.9,10.8,4.3,10.8c2,0,3.9-2.8,3.9-8.7c0-6.4-1.5-8.8-5.8-12
					c-5.8-4.3-8.5-9.6-8.5-21.3c0-13.7,3.9-20.7,10-20.7c5.8,0,10,5.4,10,18.9v2h-6.3c0-6.6-1-10.5-3.5-10.5c-2.9,0-3.7,4-3.7,8.2
					c0,4.3,0.6,7,3.4,9.6l5,4.7c4.9,4.6,6.2,10.1,6.2,18.6c0,14.9-4.2,21.6-11.3,21.6c-7.4,0-10.3-7.5-10.3-20.5v-2.9H253.8z"/>
			</g>
			<g>
				<path class="st1" d="M272.1,202.2v-70.4h6.5v58.8h11.6v11.6H272.1z"/>
			</g>
			<g>
				<path class="st1" d="M293.4,202.2v-70.4h6.5v70.4H293.4z"/>
			</g>
			<g>
				<path class="st1" d="M312.3,131.8l7.9,48.2h0.1v-48.2h6v70.4h-7.4l-8-49.3h-0.1v49.3h-6v-70.4H312.3z"/>
			</g>
			<g>
				<path class="st1" d="M348.9,131.8v11.6h-11.6V160h10.9v11.6h-10.9v18.9h12v11.6h-18.6v-70.4H348.9z"/>
			</g>
		</g>
		<g>
			<g>
				<path class="st1" d="M182.4,269.7l-1.5-7.3h-7.6l-1.5,7.3h-2.5l6.4-28.5h3.1l6.3,28.5H182.4z M173.8,259.5h6.4l-3.2-15.3
					L173.8,259.5z"/>
			</g>
			<g>
				<path class="st1" d="M193,241.2v28.5h-2.5v-28.5H193z"/>
			</g>
			<g>
				<path class="st1" d="M207,257.4h-3.3v12.3h-2.5v-28.5h5.1c2.4,0,4.2,0.7,5.5,2c1.2,1.4,1.9,3.3,1.9,6c0,2-0.4,3.6-1.1,4.8
					c-0.7,1.2-1.8,2.2-3.2,2.8l5.3,12.9h-2.9L207,257.4z M206.7,254.7c1.5,0,2.6-0.4,3.3-1.3c0.8-0.9,1.1-2.3,1.1-4.2
					c0-1.8-0.4-3.1-1.1-3.9c-0.8-0.8-2-1.2-3.6-1.2h-2.6v10.6H206.7z"/>
			</g>
			<g>
				<path class="st1" d="M247.7,241.4c0.8,0.4,1.6,1.1,2.4,2.1l-1.3,2.3c-0.6-0.7-1.2-1.2-1.9-1.6c-0.6-0.3-1.3-0.5-2-0.5
					c-1.7,0-3.1,0.9-4.1,2.8c-1,1.9-1.5,4.8-1.5,9c0,3.9,0.5,6.9,1.5,8.8c1,1.9,2.4,2.9,4.1,2.9c0.9,0,1.6-0.2,2.2-0.6
					c0.6-0.4,1.3-1,2-1.8l1.2,2.3c-0.6,0.9-1.4,1.7-2.3,2.3c-0.9,0.6-2,0.9-3.2,0.9c-1.6,0-3-0.6-4.2-1.7c-1.2-1.1-2.2-2.8-2.9-5
					c-0.7-2.2-1-4.9-1-8s0.4-5.8,1.1-8c0.7-2.2,1.7-3.9,2.9-5c1.2-1.1,2.6-1.7,4.1-1.7C246,240.7,246.9,240.9,247.7,241.4z"/>
			</g>
			<g>
				<path class="st1" d="M266.8,269.7l-1.5-7.3h-7.6l-1.5,7.3h-2.5l6.4-28.5h3.1l6.3,28.5H266.8z M258.3,259.5h6.4l-3.2-15.3
					L258.3,259.5z"/>
			</g>
			<g>
				<path class="st1" d="M280.8,257.4h-3.3v12.3H275v-28.5h5.1c2.4,0,4.2,0.7,5.5,2c1.2,1.4,1.9,3.3,1.9,6c0,2-0.4,3.6-1.1,4.8
					s-1.8,2.2-3.2,2.8l5.3,12.9h-2.9L280.8,257.4z M280.4,254.7c1.5,0,2.6-0.4,3.3-1.3c0.8-0.9,1.1-2.3,1.1-4.2
					c0-1.8-0.4-3.1-1.1-3.9c-0.8-0.8-2-1.2-3.6-1.2h-2.6v10.6H280.4z"/>
			</g>
			<g>
				<path class="st1" d="M304.7,241.5c0.9,0.5,1.8,1.3,2.6,2.3l-1.5,2.2c-0.7-0.8-1.4-1.4-2-1.8c-0.7-0.4-1.4-0.5-2.3-0.5
					c-1,0-2,0.4-2.9,1.2c-0.9,0.8-1.6,2.1-2.1,3.8s-0.8,4-0.8,6.7c0,4.1,0.5,7,1.4,8.9c0.9,1.9,2.3,2.9,4.2,2.9
					c1.4,0,2.7-0.4,3.8-1.3v-8.9h-3.6l-0.3-2.9h6.3v13.7c-2,1.7-4.1,2.5-6.3,2.5c-2.6,0-4.6-1.3-6-3.8c-1.4-2.5-2.2-6.2-2.2-11
					c0-3.1,0.4-5.7,1.2-8c0.8-2.2,1.8-3.9,3.1-5c1.3-1.1,2.7-1.7,4.2-1.7C302.7,240.7,303.8,241,304.7,241.5z"/>
			</g>
			<g>
				<path class="st1" d="M326,242.4c1.2,1.1,2.2,2.8,2.9,5c0.7,2.2,1,4.9,1,8c0,3.1-0.3,5.7-1,7.9c-0.7,2.2-1.6,3.9-2.9,5
					c-1.2,1.1-2.7,1.7-4.3,1.7c-1.6,0-3.1-0.6-4.3-1.7c-1.2-1.1-2.2-2.8-2.9-5c-0.7-2.2-1-4.8-1-8c0-3.1,0.3-5.7,1-7.9
					c0.7-2.2,1.6-3.9,2.9-5.1c1.2-1.2,2.7-1.8,4.3-1.8C323.3,240.7,324.7,241.3,326,242.4z M317.5,246.6c-1,1.9-1.5,4.9-1.5,8.9
					c0,4,0.5,6.9,1.5,8.8c1,1.9,2.4,2.9,4.1,2.9c1.8,0,3.2-0.9,4.1-2.8c1-1.9,1.5-4.8,1.5-8.9c0-4-0.5-7-1.5-8.9
					c-1-1.9-2.4-2.9-4.1-2.9C319.9,243.7,318.5,244.7,317.5,246.6z"/>
			</g>
			<g>
				<path class="st1" d="M179.2,290.8c0.9,0.5,1.8,1.4,2.6,2.5l-1.3,2.2c-0.7-0.9-1.5-1.5-2.2-1.9c-0.7-0.4-1.5-0.6-2.3-0.6
					c-1.1,0-2,0.4-2.6,1.1c-0.7,0.7-1,1.8-1,3.1c0,0.9,0.1,1.6,0.4,2.2c0.2,0.6,0.7,1.1,1.3,1.6c0.6,0.5,1.5,1,2.7,1.5
					c1.2,0.6,2.3,1.1,3.1,1.8c0.8,0.6,1.5,1.5,2,2.6c0.5,1.1,0.7,2.5,0.7,4.2c0,1.7-0.3,3.1-0.8,4.4c-0.6,1.3-1.3,2.3-2.4,3
					c-1,0.7-2.3,1.1-3.7,1.1c-2.7,0-4.9-1.2-6.6-3.6l1.4-2.2c0.8,1,1.6,1.7,2.4,2.2c0.8,0.5,1.7,0.7,2.8,0.7c1.3,0,2.3-0.5,3.1-1.4
					c0.8-0.9,1.2-2.2,1.2-3.9c0-1-0.1-1.8-0.4-2.5c-0.3-0.7-0.7-1.2-1.3-1.7c-0.6-0.5-1.5-1-2.6-1.5c-2-0.9-3.5-1.9-4.4-3.2
					c-0.9-1.2-1.4-2.9-1.4-5c0-1.4,0.3-2.7,0.8-3.8c0.5-1.1,1.2-2,2.2-2.6c0.9-0.6,2-0.9,3.2-0.9C177.2,290,178.3,290.3,179.2,290.8
					z"/>
			</g>
			<g>
				<path class="st1" d="M203.7,290.5l-0.3,2.9h-7.7v9.6h6.7v2.9h-6.7v10.2h8.2v2.9h-10.7v-28.5H203.7z"/>
			</g>
			<g>
				<path class="st1" d="M220.6,306.8h-3.3V319h-2.5v-28.5h5.1c2.4,0,4.2,0.7,5.5,2c1.2,1.4,1.9,3.3,1.9,6c0,2-0.4,3.6-1.1,4.8
					s-1.8,2.2-3.2,2.8l5.3,12.9h-2.9L220.6,306.8z M220.3,304c1.5,0,2.6-0.4,3.3-1.3c0.8-0.9,1.1-2.3,1.1-4.2c0-1.8-0.4-3.1-1.1-3.9
					c-0.8-0.8-2-1.2-3.6-1.2h-2.6V304H220.3z"/>
			</g>
			<g>
				<path class="st1" d="M251.1,290.5l-6.3,28.5h-2.7l-6.4-28.5h2.7l5.1,24.6l5.1-24.6H251.1z"/>
			</g>
			<g>
				<path class="st1" d="M263.3,290.5V319h-2.5v-28.5H263.3z"/>
			</g>
			<g>
				<path class="st1" d="M285.5,290.7c0.8,0.4,1.6,1.1,2.4,2.1l-1.3,2.3c-0.6-0.7-1.2-1.2-1.9-1.6c-0.6-0.3-1.3-0.5-2-0.5
					c-1.7,0-3.1,0.9-4.1,2.8c-1,1.9-1.5,4.8-1.5,9c0,3.9,0.5,6.9,1.5,8.8c1,1.9,2.4,2.9,4.1,2.9c0.9,0,1.6-0.2,2.2-0.6
					c0.6-0.4,1.3-1,2-1.8l1.2,2.3c-0.6,0.9-1.4,1.7-2.3,2.3s-2,0.9-3.2,0.9c-1.6,0-3-0.6-4.2-1.7c-1.2-1.1-2.2-2.8-2.9-5
					c-0.7-2.2-1-4.9-1-8s0.4-5.8,1.1-8c0.7-2.2,1.7-3.9,2.9-5c1.2-1.1,2.6-1.7,4.1-1.7C283.7,290,284.7,290.3,285.5,290.7z"/>
			</g>
			<g>
				<path class="st1" d="M308.7,290.5l-0.3,2.9h-7.7v9.6h6.7v2.9h-6.7v10.2h8.2v2.9h-10.7v-28.5H308.7z"/>
			</g>
			<g>
				<path class="st1" d="M327.8,290.8c0.9,0.5,1.8,1.4,2.6,2.5l-1.3,2.2c-0.7-0.9-1.5-1.5-2.2-1.9s-1.5-0.6-2.3-0.6
					c-1.1,0-2,0.4-2.6,1.1s-1,1.8-1,3.1c0,0.9,0.1,1.6,0.4,2.2c0.2,0.6,0.7,1.1,1.3,1.6c0.6,0.5,1.5,1,2.7,1.5
					c1.2,0.6,2.3,1.1,3.1,1.8c0.8,0.6,1.5,1.5,2,2.6c0.5,1.1,0.7,2.5,0.7,4.2c0,1.7-0.3,3.1-0.8,4.4c-0.6,1.3-1.3,2.3-2.4,3
					c-1,0.7-2.3,1.1-3.7,1.1c-2.7,0-4.9-1.2-6.6-3.6l1.4-2.2c0.8,1,1.6,1.7,2.4,2.2c0.8,0.5,1.7,0.7,2.8,0.7c1.3,0,2.3-0.5,3.1-1.4
					c0.8-0.9,1.2-2.2,1.2-3.9c0-1-0.1-1.8-0.4-2.5c-0.3-0.7-0.7-1.2-1.3-1.7c-0.6-0.5-1.5-1-2.6-1.5c-2-0.9-3.5-1.9-4.4-3.2
					c-0.9-1.2-1.4-2.9-1.4-5c0-1.4,0.3-2.7,0.8-3.8c0.5-1.1,1.2-2,2.2-2.6c0.9-0.6,2-0.9,3.2-0.9C325.7,290,326.8,290.3,327.8,290.8
					z"/>
			</g>
			<g>
				<path class="st1" d="M183.2,342c1.3,1.4,2,3.6,2,6.6c0,3.1-0.7,5.4-2.1,6.9c-1.4,1.5-3.2,2.3-5.5,2.3H175v10.6h-2.5v-28.5h5
					C180,339.8,181.9,340.6,183.2,342z M181.3,353.5c0.8-0.9,1.3-2.5,1.3-4.9c0-2.1-0.4-3.6-1.3-4.6c-0.8-0.9-2.1-1.4-3.7-1.4H175
					v12.2h2.5C179.2,354.9,180.4,354.4,181.3,353.5z"/>
			</g>
			<g>
				<path class="st1" d="M207.4,339.8l-6.3,28.5h-2.7l-6.4-28.5h2.7l5.1,24.6l5.1-24.6H207.4z"/>
			</g>
			<g>
				<path class="st1" d="M228.3,339.8l-0.3,3.1h-5.5v25.4h-2.5v-25.4h-5.7v-3.1H228.3z"/>
			</g>
			<g>
				<path class="st1" d="M234.4,364.2c0.4,0.5,0.5,1.1,0.5,1.9c0,0.7-0.2,1.4-0.5,1.9c-0.3,0.5-0.8,0.8-1.3,0.8
					c-0.5,0-0.9-0.3-1.3-0.8c-0.3-0.5-0.5-1.2-0.5-1.9c0-0.7,0.2-1.3,0.5-1.9c0.4-0.5,0.8-0.8,1.3-0.8
					C233.6,363.5,234,363.7,234.4,364.2z"/>
			</g>
			<g>
				<path class="st1" d="M272.9,339.8v25.3h8.1l-0.3,3.1h-10.3v-28.5H272.9z"/>
			</g>
			<g>
				<path class="st1" d="M299.9,339.8l-0.3,3.1h-5.5v25.4h-2.5v-25.4H286v-3.1H299.9z"/>
			</g>
			<g>
				<path class="st1" d="M320.5,342.8c1.8,2,2.7,5.7,2.7,11.1c0,5.3-0.9,9-2.7,11.2c-1.8,2.2-3.9,3.2-6.5,3.2h-4.6v-28.5h4.1
					C316.3,339.8,318.7,340.8,320.5,342.8z M311.8,342.7v22.7h2.3c1.9,0,3.4-0.8,4.6-2.5c1.2-1.7,1.8-4.7,1.8-9
					c0-3.1-0.3-5.4-0.9-7.1c-0.6-1.6-1.4-2.7-2.3-3.3c-0.9-0.6-2-0.8-3.3-0.8H311.8z"/>
			</g>
			<g>
				<path class="st1" d="M328.8,364.2c0.3,0.5,0.5,1.1,0.5,1.9c0,0.7-0.2,1.4-0.5,1.9c-0.4,0.5-0.8,0.8-1.3,0.8
					c-0.5,0-0.9-0.3-1.3-0.8c-0.4-0.5-0.5-1.2-0.5-1.9c0-0.7,0.2-1.3,0.5-1.9c0.3-0.5,0.8-0.8,1.3-0.8
					C328,363.5,328.4,363.7,328.8,364.2z"/>
			</g>
		</g>
		<g>
			<rect x="148" y="219.6" class="st1" width="204.4" height="2.6"/>
		</g>
	</g>
</g>
<g id="Layer_2">
	<g>
		<path class="st2" d="M510.3,273.2h5l-2.7,15.1h-5L510.3,273.2L510.3,273.2z M531.4,273.2h5l2.7,15.1h-4.8l-0.4-1.9h-5l-0.8,1.9
			h-4.8L531.4,273.2L531.4,273.2z M530.5,283.1h3.2l-0.8-5.3L530.5,283.1L530.5,283.1z M549.6,273.2h13.7l-0.6,4h-4.4l-1.9,11.1h-5
			l1.9-11.1H549L549.6,273.2L549.6,273.2z M577.1,273.2h5.2l2.7,15.1h-5l-0.2-1.9h-5l-0.8,1.9h-5L577.1,273.2L577.1,273.2z
			 M576.3,283.1h3.1l-0.6-5.3L576.3,283.1z"/>
		<path class="st2" d="M511.6,295.5h-1.1c0-0.2,0-0.4,0-0.6c0-0.4,0-0.8-0.4-1c-0.2-0.2-0.6-0.2-1-0.2c-0.6,0-1.1,0.2-1.5,0.6
			c-0.6,0.4-1,1.1-1.3,2.3c-0.2,1.1-0.4,2.1-0.4,2.7c0,1,0.4,1.5,1.3,1.5c0.6,0,1.1-0.2,1.5-0.6c0.4-0.4,0.8-1,1-1.9h1.1
			c-0.2,1.1-0.8,1.9-1.3,2.5c-0.8,0.6-1.7,1-2.9,0.8c-1.3,0-1.9-0.8-1.9-2.1c0-0.6,0-1.1,0.2-1.7l0.2-1.1c0.4-1,0.8-1.7,1.1-2.3
			c0.4-0.4,0.8-1,1.3-1.1c0.6-0.2,1.1-0.4,1.7-0.4c0.8,0,1.3,0.2,1.7,0.4c0.4,0.4,0.6,1,0.6,1.5
			C511.6,294.9,511.6,295.3,511.6,295.5L511.6,295.5z M514.3,298.2h2.7v-4.6L514.3,298.2L514.3,298.2z M516.2,293l-5,8.4h1.3
			l1.3-2.3h3.1l0.2,2.3h1.3l-0.8-8.4H516.2L516.2,293z M522.3,296.8h1.9c0.6,0,1.1-0.2,1.7-0.6c0.4-0.4,0.6-0.8,0.6-1.3
			c0-0.4-0.2-0.8-0.4-0.8c-0.4-0.2-0.8-0.4-1.5-0.4h-1.3L522.3,296.8L522.3,296.8z M520,301.4l2.3-8.4h2.7c1.1,0,1.7,0.2,2.1,0.4
			c0.6,0.2,0.8,0.8,0.8,1.1c0,0.6-0.2,1-0.4,1.3c-0.2,0.4-0.6,0.8-1,1c-0.4,0.2-1,0.4-1.5,0.4c0.8,0,1.1,0.2,1.3,0.4
			c0.2,0.2,0.4,0.4,0.4,0.8c0,0.4-0.2,0.8-0.2,1.3c0,0.6-0.2,1-0.2,1.1c0,0.4,0.2,0.4,0.4,0.4l-0.2,0.2h-1.1c-0.2-0.4-0.2-1,0-1.5
			c0-0.6,0.2-1,0.2-1.1c0-0.4-0.2-0.6-0.4-0.8c-0.2-0.2-0.6-0.2-1.3-0.2h-1.7l-1,3.6H520L520,301.4z M533.7,298h-2.3l0.2-0.8h3.4
			l-1.1,4.4h-1l0.4-1.5c-0.2,0.6-0.6,1-1.1,1.1c-0.4,0.4-1,0.4-1.5,0.4c-0.6,0-1,0-1.3-0.2c-0.8-0.2-1.1-1-1.1-2.1
			c0-0.8,0.4-1.9,0.8-3.4c0.4-1,1-1.7,1.5-2.3c0.8-0.4,1.5-0.8,2.5-0.8c0.8,0,1.3,0.2,1.9,0.4c0.4,0.4,0.6,1,0.6,1.5
			c0,0.2,0,0.6,0,0.8h-1.1c0-0.2,0-0.4,0-0.6c0-0.8-0.6-1.3-1.5-1.1c-0.8,0-1.3,0.2-1.9,0.8c-0.4,0.4-0.8,1.3-1.1,2.7
			c-0.2,0.8-0.4,1.5-0.4,2.1c0,0.6,0.2,1,0.4,1.1c0.2,0.2,0.6,0.4,1.1,0.4c0.8,0,1.3-0.2,1.9-0.8C533.2,299.7,533.5,298.9,533.7,298
			L533.7,298z M542.3,295.7c0-1.3-0.4-1.9-1.7-1.9c-0.6,0-1,0.2-1.3,0.4c-0.6,0.4-0.8,1-1.1,1.5c-0.4,1-0.8,2.1-0.8,3.2
			c0,0.8,0,1.1,0.2,1.5c0.4,0.2,0.8,0.4,1.1,0.4c1,0,1.5-0.2,1.9-0.6c0.4-0.4,0.8-1.1,1.1-2.3C542.1,297.2,542.1,296.5,542.3,295.7
			L542.3,295.7z M536.4,297.6c0.2-0.8,0.4-1.5,0.6-2.1c0.4-0.8,0.8-1.3,1.5-1.9c0.6-0.6,1.3-0.8,2.5-0.8c1,0,1.5,0.2,1.9,0.6
			c0.4,0.4,0.6,1,0.6,1.7c0,1-0.2,2.1-0.8,3.4c-0.2,0.6-0.4,1.1-0.8,1.7c-0.4,0.4-1,0.8-1.5,1.1c-0.6,0.2-1.1,0.4-1.9,0.2
			c-1,0-1.5-0.2-1.7-0.6c-0.4-0.4-0.6-1-0.6-1.5c0-0.4,0-0.6,0-0.8c0-0.2,0-0.2,0-0.4C536.4,298.2,536.4,297.8,536.4,297.6
			L536.4,297.6z M551.1,298.2h2.7l-0.2-4.6L551.1,298.2L551.1,298.2z M553,293h1.5l0.8,8.4H554l-0.2-2.3h-3.2l-1.3,2.3H548L553,293
			L553,293z M562.7,298h-2.3l0.2-0.8h3.4l-1.1,4.4h-1l0.4-1.5c-0.2,0.6-0.6,1-1.1,1.1c-0.6,0.4-1.1,0.4-1.7,0.4c-0.4,0-1,0-1.1-0.2
			c-0.8-0.2-1.1-1-1.1-2.1c0-0.8,0.2-1.9,0.8-3.4c0.4-1,1-1.7,1.5-2.3c0.6-0.4,1.5-0.8,2.3-0.8c0.8,0,1.5,0.2,1.9,0.4
			c0.4,0.4,0.8,1,0.8,1.5c0,0.2,0,0.6-0.2,0.8h-1.1c0.2-0.2,0.2-0.4,0.2-0.6c0-0.8-0.6-1.3-1.7-1.1c-0.8,0-1.3,0.2-1.7,0.8
			c-0.4,0.4-1,1.3-1.1,2.7c-0.2,0.8-0.4,1.5-0.4,2.1c0,0.6,0,1,0.4,1.1c0.2,0.2,0.6,0.4,1,0.4c0.8,0,1.5-0.2,1.9-0.8
			C562.2,299.7,562.4,298.9,562.7,298L562.7,298z M571.7,293h-5l-2.3,8.4h5.2l0.2-0.8H566l0.8-3.2h3.6l0.2-0.8h-3.6l0.6-2.9h4
			L571.7,293L571.7,293z M572.9,301.4h-1.1l2.1-8.4h1.9l1.1,7.4v0.6l1.9-8h1.1l-2.1,8.4h-1.9l-1.1-7.1v-1L572.9,301.4L572.9,301.4z
			 M580.9,293h6.3l-0.2,0.8h-2.7l-1.9,7.6h-1.1l1.9-7.6h-2.7L580.9,293z"/>
		<path class="st3" d="M499,244.4h25.8c0.8,7.6,4.6,16.2,15.6,19.7l-0.8,2.1h-25.6l-2.7-3.6l18.3-0.2l-1.7-2.1h-18.1l-2.5-3.2h18.3
			l-1.3-2.5h-18.5l-2.7-3.4l18.3-0.2l-1.7-2.7h-18.5L499,244.4z"/>
		<path class="st3" d="M592.3,244.5h-25.8c-0.8,7.6-4.4,16.2-15.6,19.7l1,2.1h25.6l2.7-3.6l-18.3-0.2l1.5-2.1h18.1l2.5-3.2h-18.3
			l1.3-2.5h18.5l2.7-3.4l-18.3-0.2l1.7-2.7H590L592.3,244.5z"/>
		<g>
			<path class="st2" d="M545.4,251v-7.4h-8.5c0,2.8,0.5,5.7,1.5,8.7C540.7,251.5,543,251.1,545.4,251z"/>
			<path class="st2" d="M554.4,243.6h-8.6v7.4c2.3,0,4.7,0.5,7,1.3C553.8,249.4,554.3,246.5,554.4,243.6z"/>
			<path class="st2" d="M545.4,227.2c-1,0-1.9,0.1-2.8,0.3c-1.8,2.4-3.1,4.8-4.1,7.3c2.3,0.9,4.6,1.3,6.9,1.3V227.2z"/>
			<path class="st2" d="M545.4,261v-9.5c-2.3,0-4.6,0.4-6.9,1.2c0.9,2.6,2.2,5.2,3.8,7.9C543.3,260.8,544.3,261,545.4,261z"/>
			<path class="st2" d="M552.7,252.8c-2.3-0.8-4.6-1.2-6.9-1.3v9.4c1.1,0,2.1-0.1,3.1-0.4C550.5,257.9,551.8,255.3,552.7,252.8z"/>
			<path class="st2" d="M545.4,236.5C545.3,236.5,545.3,236.5,545.4,236.5c-2.4,0-4.7-0.4-7.1-1.3c-0.9,2.6-1.4,5.3-1.5,8h8.6V236.5
				z"/>
			<path class="st2" d="M528.6,243.2h7.7c0-2.8,0.5-5.5,1.5-8.2c-1.6-0.6-3.2-1.4-4.8-2.5C530.5,235.4,528.8,239.1,528.6,243.2z"/>
			<path class="st2" d="M548.7,227.5c-1-0.2-1.9-0.3-2.9-0.3v8.8c2.3-0.1,4.6-0.5,6.9-1.4C551.8,232.2,550.4,229.8,548.7,227.5z"/>
			<path class="st2" d="M538.1,252.9c-1.7,0.6-3.4,1.5-5.1,2.6c2.3,2.5,5.3,4.3,8.7,5.1C540.2,257.9,539,255.4,538.1,252.9z"/>
			<path class="st2" d="M553.1,252.9c-0.9,2.5-2.1,5-3.6,7.5c3.3-0.8,6.2-2.7,8.4-5.1C556.3,254.3,554.7,253.5,553.1,252.9z"/>
			<path class="st2" d="M554.8,243.6c0,2.9-0.6,5.8-1.6,8.9c1.7,0.6,3.3,1.4,5,2.5c2.5-3,4-6.8,4-11c0-0.1,0-0.2,0-0.4H554.8z"/>
			<path class="st2" d="M537.9,252.5c-1-3-1.5-6-1.6-8.8h-7.8c0,0.1,0,0.2,0,0.4c0,4.3,1.6,8.1,4.1,11.1
				C534.4,254,536.2,253.1,537.9,252.5z"/>
			<path class="st2" d="M552.9,235c-2.4,0.9-4.7,1.4-7.1,1.5v6.7h8.6C554.4,240.4,553.9,237.6,552.9,235z"/>
			<path class="st2" d="M562.1,243.2c-0.2-4.1-1.9-7.8-4.5-10.6c-1.5,0.9-2.9,1.7-4.4,2.3c1,2.7,1.5,5.5,1.5,8.4H562.1z"/>
			<path class="st2" d="M553.1,234.4c1.4-0.6,2.8-1.3,4.2-2.2c-2.1-2.2-4.9-3.8-8-4.5C551,229.9,552.2,232.1,553.1,234.4z"/>
			<path class="st2" d="M538,234.6c0.9-2.4,2.2-4.7,3.9-7c-3.3,0.7-6.2,2.4-8.5,4.7C534.9,233.2,536.5,234,538,234.6z"/>
		</g>
	</g>
	<g>
		<path class="st4" d="M842.5,495.8c0.9-2.4,1.2-4.4,1.2-5.9c-3.5-2.4-2.8-5.4-5.2-6.4c-2.6,0.9-5.2,1.4-8,2.1
			c-4-2.8-5.2-6.8-4.2-11.5c0.7-1.4,1.4-3,2.1-4.4c1.2-0.5,0.7-1,2.1-1.6c-1.4-0.3-1-0.7-2.3-1c0-1,0-2.1,0-3.3
			c0.9-0.3,1.7-0.5,2.8-0.9c-0.3-0.7-0.7-1.4-1-2.1c0.7-0.7,1.2-1.6,1.7-2.3c0.7-1.2,1.4-2.4,2.1-3.7c-0.5,0.3-0.9,0.9-1.4,1.4
			c-1-0.2-2.1-0.3-3.1-0.5c0-1.2,0-2.4,0-3.5c1.7-0.5,3.3-1.4,5-1.9c-6.3-3.5-16.5-3.3-22.6-0.7c-0.2,1-1,1.9-1,3
			c-1.4,0.7-3,0.7-4.2,1.6c0,0.9,0.2,1.7,0.3,2.8c1.4-0.7,2.8-1.2,4-1.9c0.5,1.2,0.9,2.4,1.2,3.8c-1.6,1.2-3.1,1.2-4.7,0
			c0,1,0,2.1,0,3.3c-4.4,0-7.5,2.1-9.2,5.9c-1.6-0.5-3-1-4.5-1.4c-0.3,1-0.7,2.1-1.2,3.3c0.9,1.7,1.7,3.5,2.6,5.4
			c-1.6-1.6-3.1-3.1-4.7-4.7c-3.5,13.2,0,27.9,12.5,36.6c-2.4-2.6-2.1-6.6-2.6-10.6c-3-2.1-4.9-5-5.4-7.8c0-3.5,0.2-7,0.2-10.4
			c1.7,0.5,3.3,0.9,5,1.2c3.3,3.3,6.6,6.4,9.9,9.8c1.9,0.7,3.8,1.4,5.7,2.1c0,2.1,0,4.2,0,6.3c-0.9,2.1-2.1,3-3.3,2.8
			c-1.7,2.6-3.7,6.6-5.2,9.2c6.6,4.4,19,6.1,30,0c2.1-1,4.2-2.6,6.3-4.5C842.5,502.4,841.5,498.6,842.5,495.8z M822.1,454
			c-1,0-2.1,0-3.3,0c-0.2,0.3-0.5,0.7-0.7,1c-0.9,1-1.2,2.1-2.3,1c0.2-1,0.2-2.3,0.3-3.3c0.3-0.9,0.7-1.7,1.2-2.6
			c1.6,0.3,3.1,0.3,4.9-0.5C822.1,451.2,822.1,452.6,822.1,454z"/>
		<path class="st4" d="M832.2,468.6c0-1.7,0-3.3,0-4.9c1.2-0.3,2.3-0.7,3.5-1c1.2,0.2,2.4,0.2,3.7,0.3c1,0.5,2.1,1.2,3.3,1.7
			c-0.5-0.9-0.9-1.9-1.2-2.8c-0.3-0.7-0.7-1.6-1-2.3c1,0.2,2.1,0.3,3.3,0.3c-0.2-0.7,0-1.6,0-2.4c2.4,0.3,3.8,1.9,5,4.4
			c-1.6,0.2-3.1,0.2-4.7,0.3c-0.2,1-0.2,1.9-0.3,2.8c0.9,0,1.9,0,2.8-0.2c0.2,1,0.3,1.9,0.5,2.8c2.1,2.3,3.5,3.7,5.4,5.9
			c0.2,0,0.5-3.5,0.9-3.3c0.2,0,1.6,7.1,1.6,8.2c-0.2,0-0.5,11-1.2,11.3c-0.9,0.5-0.3-9.4-0.9-9.9c0,0,1.4,0.2,1.2-0.7
			c0-0.2,0.3-1.7,0-2.6c-0.5-0.7-1.9-0.5-2.1-0.5c-1.9-2.3-3.8-4.7-5.7-7C841.5,469,836.9,468.8,832.2,468.6z"/>
		<path class="st4" d="M859.2,453.6h6.8V474c0.2,2.8,3.5,3,3.5-0.2l0.2-20.2h5.7l-0.2,20c0.3,3.5,3.5,3.5,4,0v-20l6.1-0.3v20.9
			c0,2.6-0.9,5.4-3.5,8h-7c-0.9-0.9-1.9-2.8-2.1-4.9c-0.7,1.9-1.6,3.7-3,4.7h-6.1c-2.6-1.2-3.7-4.9-4.4-8L859.2,453.6z"/>
		<path class="st4" d="M905.4,465l-0.2-7.7c-0.9-5.7-15.7-5.6-16,0.5c0,7,0,13.4,0.2,20.4c2.6,6.6,14.3,5.7,16,0.5v-8.5H900
			l-0.2,6.4c-0.9,2.6-3.8,2.3-4.7,0c0-5.6,0-11,0-16.5c-0.3-2.6,3.8-2.8,4.5-0.2l0.2,5H905.4z"/>
		<path class="st4" d="M909.4,453.5h5.6c1,3.3,3.1,6.4,4.7,7.7l0.2-7.8h5.6v28.9h-5.9v-11.5c-1.4-3.5-4.7-6.4-4-6.3V482h-6.1V453.5z
			"/>
		<path class="st4" d="M929.8,462.5c0,6.3,0.2,13.4,0,19.9h5.4v-4.9l4.2-0.2v5l5.7-0.3v-20.4C942.1,450.3,932.2,450.3,929.8,462.5z
			 M939.3,473.7H935v-9.2c-0.2-4.2,3.8-4.5,4.4,0V473.7z"/>
		<path class="st4" d="M859.9,487.4h1.9l0.7,3.1c0,0.3,0.2,0.7,0.2,1c0,0.3,0,0.7,0.2,1.2l1.2-5.4h1.6l1.2,5.4c0-0.3,0-0.7,0-1
			c0.2-0.3,0.2-0.7,0.2-1l0.7-3.3h1.9l-1.9,7.1h-1.6l-1-4c-0.2-0.2-0.2-0.3-0.2-0.7c0-0.3,0-0.5-0.2-0.9c0,0.3,0,0.7,0,0.9
			c-0.2,0.3-0.2,0.5-0.2,0.7l-1,4h-1.7L859.9,487.4L859.9,487.4z M872.6,493.5c0.2,0,0.5-0.2,0.7-0.3c0.2-0.3,0.2-0.5,0.2-1
			c0-0.3,0-0.7-0.2-1c-0.2-0.2-0.5-0.3-0.7-0.3c-0.3,0-0.7,0.2-0.9,0.3c-0.2,0.3-0.2,0.7-0.2,1c0,0.5,0,0.7,0.2,1
			C872,493.3,872.3,493.5,872.6,493.5L872.6,493.5z M875.3,492.1c0,0.9-0.2,1.4-0.7,1.9c-0.5,0.3-1.2,0.7-1.9,0.7
			c-0.9,0-1.6-0.3-2.1-0.7c-0.5-0.5-0.7-1-0.7-1.9c0-0.7,0.2-1.4,0.7-1.7c0.5-0.5,1.2-0.7,2.1-0.7c0.7,0,1.4,0.2,1.9,0.7
			C875.1,490.7,875.3,491.4,875.3,492.1L875.3,492.1z M876.5,494.6v-4.9h1.7v0.9c0.2-0.3,0.3-0.5,0.5-0.7c0.3-0.2,0.5-0.2,0.9-0.2
			v1.2l0,0c-0.5,0-0.9,0-1,0.2c-0.2,0.2-0.2,0.7-0.2,1.2v2.3H876.5L876.5,494.6z M880.7,494.6v-7.7h1.9v7.7H880.7L880.7,494.6z
			 M887.3,492.1c0-0.5-0.2-0.9-0.2-1c-0.2-0.2-0.3-0.3-0.7-0.3c-0.2,0-0.3,0.2-0.5,0.3c-0.2,0.2-0.2,0.5-0.2,1c0,0.3,0,0.7,0.2,1
			c0.2,0.2,0.3,0.3,0.7,0.3c0.2,0,0.3-0.2,0.5-0.3C887.1,493,887.3,492.6,887.3,492.1L887.3,492.1z M889,494.6h-1.7v-0.7
			c-0.2,0.3-0.3,0.5-0.7,0.5c-0.2,0.2-0.5,0.3-0.7,0.3c-0.7,0-1.2-0.3-1.4-0.7c-0.3-0.5-0.5-1-0.5-1.9c0-0.7,0.2-1.4,0.5-1.7
			c0.3-0.5,0.7-0.7,1.4-0.7c0.2,0,0.5,0,0.7,0.2c0.3,0.2,0.5,0.3,0.7,0.5v-3.5h1.7V494.6L889,494.6z M894.6,489.7l0.5,2.1
			c0,0.2,0,0.3,0,0.5c0.2,0.3,0.2,0.7,0.2,0.9c0-0.2,0.2-0.5,0.2-0.7c0-0.3,0-0.5,0.2-0.7l0.5-2.1h1.6l-1.6,4.9h-1.6l-0.5-2.1
			c0,0,0-0.2,0-0.5c-0.2-0.2-0.2-0.5-0.2-1v0.3c-0.2,0.7-0.2,1.2-0.2,1.2l-0.5,2.1h-1.6l-1.7-4.9h1.7l0.5,2.1c0,0,0,0.3,0.2,0.9v0.5
			c0.2-0.2,0.2-0.5,0.2-0.7c0-0.3,0.2-0.5,0.2-0.7l0.5-2.1H894.6L894.6,489.7z M898.6,488.5c0-0.3,0.2-0.5,0.3-0.7
			c0.2,0,0.5-0.2,0.7-0.2c0.3,0,0.5,0.2,0.7,0.2c0.3,0.2,0.3,0.3,0.3,0.7c0,0.2,0,0.3-0.3,0.5c-0.2,0.2-0.3,0.2-0.7,0.2
			c-0.2,0-0.5,0-0.7-0.2C898.8,488.8,898.6,488.6,898.6,488.5L898.6,488.5z M898.8,494.6v-4.9h1.7v4.9H898.8L898.8,494.6z
			 M905.2,492.1c0-0.5,0-0.9-0.2-1c0-0.2-0.3-0.3-0.5-0.3c-0.3,0-0.5,0.2-0.5,0.3c-0.2,0.2-0.2,0.5-0.2,1c0,0.3,0,0.7,0.2,1
			c0,0.2,0.3,0.3,0.5,0.3c0.3,0,0.5-0.2,0.5-0.3C905.2,493,905.2,492.6,905.2,492.1L905.2,492.1z M907,494.6h-1.7v-0.7
			c-0.2,0.3-0.3,0.5-0.5,0.5c-0.3,0.2-0.5,0.3-0.9,0.3c-0.5,0-1-0.3-1.4-0.7c-0.3-0.5-0.5-1-0.5-1.9c0-0.7,0.2-1.4,0.5-1.7
			c0.3-0.5,0.9-0.7,1.4-0.7c0.3,0,0.5,0,0.9,0.2c0.2,0.2,0.3,0.3,0.5,0.5v-3.5h1.7V494.6L907,494.6z M912,491.8
			c0-0.3-0.2-0.7-0.3-0.9c-0.2-0.2-0.3-0.2-0.7-0.2c-0.3,0-0.5,0-0.7,0.2c-0.2,0.2-0.2,0.5-0.2,0.9H912L912,491.8z M910.1,492.5
			L910.1,492.5c0,0.3,0,0.7,0.2,0.9c0.2,0.2,0.5,0.3,0.7,0.3c0.3,0,0.5,0,0.5-0.2c0.2,0,0.3-0.2,0.3-0.3h1.6c-0.2,0.3-0.3,0.9-0.9,1
			c-0.3,0.3-0.9,0.5-1.6,0.5c-0.9,0-1.4-0.3-1.9-0.7c-0.5-0.5-0.7-1-0.7-1.9c0-0.7,0.2-1.4,0.7-1.7c0.5-0.5,1-0.7,1.9-0.7
			c0.9,0,1.4,0.2,1.9,0.5c0.3,0.5,0.7,1.2,0.7,2.1v0.2H910.1L910.1,492.5z M924,494.6c-0.2,0-0.3,0-0.7,0c-0.2,0.2-0.3,0.2-0.5,0.2
			c-1.2,0-2.3-0.3-3-1c-0.7-0.7-1.2-1.6-1.2-2.6c0-1.2,0.5-2.1,1.2-2.8c0.7-0.7,1.7-1,3-1c0.2,0,0.3,0,0.5,0c0.3,0,0.5,0.2,0.7,0.2
			v1.4c-0.2-0.2-0.3-0.2-0.5-0.2c-0.2,0-0.3,0-0.5,0c-0.7,0-1.2,0.2-1.6,0.5c-0.5,0.5-0.7,1-0.7,1.7s0.2,1.2,0.7,1.7
			c0.3,0.3,0.9,0.5,1.6,0.5c0.2,0,0.3,0,0.5,0c0.2,0,0.3,0,0.5-0.2V494.6L924,494.6z M928.5,492.1c0-0.5-0.2-0.9-0.3-1
			c0-0.2-0.3-0.3-0.5-0.3c-0.3,0-0.5,0.2-0.7,0.3c0,0.2-0.2,0.5-0.2,1c0,0.3,0.2,0.7,0.2,1c0.2,0.2,0.3,0.3,0.7,0.3s0.5-0.2,0.5-0.3
			C928.4,492.8,928.5,492.5,928.5,492.1L928.5,492.1z M930.1,494.6h-1.6v-0.7c-0.3,0.2-0.5,0.5-0.7,0.5c-0.3,0.2-0.5,0.3-0.9,0.3
			c-0.5,0-1-0.3-1.4-0.7c-0.3-0.5-0.5-1-0.5-1.9c0-0.7,0.2-1.4,0.5-1.7c0.3-0.5,0.9-0.7,1.4-0.7c0.3,0,0.5,0,0.9,0.2
			c0.2,0.2,0.3,0.3,0.7,0.5v-0.7h1.6V494.6L930.1,494.6z M931.9,494.6v-4.9h1.6v0.9c0.2-0.3,0.3-0.5,0.5-0.7
			c0.3-0.2,0.7-0.2,0.9-0.2v1.2l0,0c-0.5,0-0.9,0-1,0.2c-0.2,0.2-0.2,0.7-0.2,1.2v2.3H931.9L931.9,494.6z M939,489.7h1.7v4.5
			c0,1-0.2,1.7-0.5,2.1c-0.3,0.3-1,0.5-2.1,0.5c-0.7,0-1.2-0.2-1.7-0.5c-0.3-0.2-0.5-0.7-0.5-1.2l0,0h1.4c0,0.2,0.2,0.3,0.3,0.5
			c0,0.2,0.3,0.2,0.5,0.2c0.3,0,0.5,0,0.7-0.2c0.2-0.2,0.2-0.3,0.2-0.7v-1c-0.2,0.3-0.3,0.5-0.7,0.5c-0.2,0.2-0.3,0.2-0.7,0.2
			c-0.7,0-1-0.2-1.4-0.5c-0.3-0.5-0.5-1-0.5-1.9c0-0.7,0.2-1.4,0.5-1.7c0.3-0.5,0.9-0.7,1.4-0.7c0.3,0,0.5,0,0.9,0.2
			c0.2,0.2,0.3,0.3,0.5,0.5V489.7L939,489.7z M939,492.1c0-0.5,0-0.9-0.2-1c-0.2-0.2-0.3-0.3-0.5-0.3c-0.3,0-0.5,0.2-0.7,0.3
			c0,0.2-0.2,0.5-0.2,1c0,0.3,0.2,0.7,0.2,1c0.2,0.2,0.3,0.3,0.7,0.3c0.2,0,0.3-0.2,0.5-0.3C939,493,939,492.6,939,492.1L939,492.1z
			 M944.7,493.5c0.3,0,0.5-0.2,0.7-0.3c0.2-0.3,0.3-0.5,0.3-1c0-0.3-0.2-0.7-0.3-1c-0.2-0.2-0.3-0.3-0.7-0.3c-0.3,0-0.5,0.2-0.7,0.3
			c-0.2,0.3-0.3,0.7-0.3,1c0,0.5,0.2,0.7,0.3,1C944.2,493.3,944.4,493.5,944.7,493.5L944.7,493.5z M947.4,492.1
			c0,0.9-0.2,1.4-0.7,1.9c-0.5,0.3-1,0.7-1.9,0.7c-0.9,0-1.6-0.3-1.9-0.7c-0.5-0.5-0.9-1-0.9-1.9c0-0.7,0.3-1.4,0.9-1.7
			c0.3-0.5,1-0.7,1.9-0.7c0.9,0,1.4,0.2,1.9,0.7C947.2,490.7,947.4,491.4,947.4,492.1L947.4,492.1z M860.6,506.7v-7.3h1.9l1.9,4
			c0.2,0.2,0.2,0.3,0.3,0.5c0,0.3,0.2,0.5,0.3,0.9c-0.2-0.5-0.2-0.9-0.3-1.4c0-0.3,0-0.7,0-1.2v-2.8h1.7v7.3h-1.7l-2.1-4
			c0-0.2-0.2-0.3-0.3-0.9c0-0.2,0-0.3-0.2-0.3c0.2,0.2,0.2,0.5,0.2,0.9c0,0.3,0,0.9,0,1.4v3H860.6L860.6,506.7z M871.6,504
			c0-0.3,0-0.7-0.2-0.9c-0.2-0.2-0.5-0.2-0.7-0.2c-0.3,0-0.7,0-0.7,0.2c-0.2,0.2-0.3,0.5-0.3,0.9H871.6L871.6,504z M869.7,504.7
			L869.7,504.7c0,0.3,0.2,0.7,0.3,0.9c0.2,0.2,0.3,0.3,0.7,0.3c0.2,0,0.3,0,0.5-0.2c0.2-0.2,0.2-0.2,0.3-0.3h1.6
			c-0.2,0.3-0.5,0.9-0.9,1c-0.5,0.3-1,0.5-1.7,0.5c-0.7,0-1.4-0.3-1.9-0.7c-0.5-0.5-0.7-1.2-0.7-1.9c0-0.7,0.2-1.4,0.7-1.9
			c0.5-0.3,1.2-0.5,1.9-0.5c0.9,0,1.6,0.2,1.9,0.5c0.5,0.5,0.7,1.2,0.7,2.1v0.2H869.7L869.7,504.7z M874.6,506.7v-3.8h-0.7v-1h0.7
			v-1.4h1.7v1.4h0.7v1h-0.7v3.8H874.6L874.6,506.7z M882,501.9l0.5,2.1c0.2,0.2,0.2,0.3,0.2,0.5c0,0.3,0.2,0.5,0.2,0.9
			c0-0.2,0-0.5,0.2-0.9c0-0.2,0-0.3,0-0.5l0.5-2.1h1.7l-1.7,4.9H882l-0.3-2.1c0,0-0.2-0.2-0.2-0.5c0-0.2,0-0.7-0.2-1v0.2
			c0,0.9-0.2,1.4-0.2,1.4l-0.5,2.1h-1.4l-1.7-4.9h1.7l0.5,2.1c0,0,0,0.3,0,0.9l0.2,0.5c0-0.2,0-0.5,0.2-0.7c0-0.3,0-0.5,0-0.7
			l0.5-2.1H882L882,501.9z M888.7,505.7c0.3,0,0.5-0.2,0.7-0.3c0.2-0.3,0.3-0.7,0.3-1c0-0.5-0.2-0.7-0.3-1c-0.2-0.2-0.3-0.3-0.7-0.3
			c-0.3,0-0.5,0.2-0.7,0.3c-0.2,0.2-0.3,0.5-0.3,1c0,0.3,0.2,0.7,0.3,1C888.1,505.5,888.3,505.7,888.7,505.7L888.7,505.7z
			 M891.3,504.3c0,0.7-0.2,1.4-0.7,1.9c-0.5,0.3-1,0.7-1.9,0.7c-0.9,0-1.6-0.3-1.9-0.7c-0.5-0.5-0.9-1.2-0.9-1.9
			c0-0.7,0.3-1.4,0.9-1.9c0.3-0.3,1-0.5,1.9-0.5c0.9,0,1.4,0.2,1.9,0.5C891.1,502.9,891.3,503.6,891.3,504.3L891.3,504.3z
			 M892.7,506.7v-4.9h1.6v0.9c0.2-0.3,0.3-0.5,0.5-0.7c0.3-0.2,0.7-0.2,1-0.2v1.2h-0.2c-0.5,0-0.9,0-1,0.2c-0.2,0.2-0.2,0.5-0.2,1.2
			v2.3H892.7L892.7,506.7z M898.6,504c0-0.2,0.2-0.3,0.3-0.5c0-0.2,0-0.2,0-0.2l0.9-1.4h2.1l-1.6,2.1l1.7,2.8H900l-1.4-2.6v2.6h-1.7
			v-7.7h1.7V504L898.6,504z M908.7,504.3h1.4c-0.2-0.5-0.3-1-0.3-1.6c-0.2-0.5-0.2-1-0.3-1.7c0,0.5-0.2,1-0.3,1.7
			C909,503.3,908.9,503.8,908.7,504.3L908.7,504.3z M906.3,506.7l2.3-7.3h1.9l2.1,7.3h-1.9l-0.3-1.2h-1.9l-0.2,1.2H906.3
			L906.3,506.7z M913,506.4l0.7-1c0.2,0.2,0.3,0.2,0.5,0.2c0.2,0.2,0.3,0.2,0.5,0.2c0.2,0,0.2,0,0.3-0.2l0.2-0.2
			c0-0.2-0.3-0.3-0.7-0.5c-0.2-0.2-0.2-0.2-0.3-0.2c-0.3-0.2-0.7-0.5-0.9-0.7c-0.2-0.2-0.2-0.3-0.2-0.7c0-0.5,0.2-0.9,0.5-1
			c0.3-0.3,0.9-0.3,1.6-0.3c0.3,0,0.5,0,0.9,0c0.3,0.2,0.5,0.2,0.9,0.3l-0.7,0.9c-0.2,0-0.3-0.2-0.5-0.2c-0.2,0-0.3,0-0.5,0
			c0,0-0.2,0-0.3,0v0.2c0,0.2,0.2,0.3,0.5,0.5c0.2,0.2,0.2,0.2,0.3,0.2c0.3,0.3,0.7,0.5,0.9,0.7c0.2,0.2,0.3,0.5,0.3,0.7
			c0,0.5-0.2,0.9-0.7,1.2c-0.3,0.3-0.9,0.5-1.6,0.5c-0.3,0-0.7-0.2-0.9-0.2C913.6,506.6,913.2,506.6,913,506.4L913,506.4z
			 M917.7,506.4l0.9-1c0.2,0.2,0.3,0.2,0.5,0.2c0.2,0.2,0.3,0.2,0.5,0.2c0,0,0.2,0,0.3-0.2v-0.2c0-0.2-0.2-0.3-0.5-0.5
			c-0.2-0.2-0.3-0.2-0.3-0.2c-0.3-0.2-0.7-0.5-0.9-0.7c-0.2-0.2-0.3-0.3-0.3-0.7c0-0.5,0.2-0.9,0.7-1c0.3-0.3,0.9-0.3,1.4-0.3
			c0.3,0,0.7,0,1,0c0.2,0.2,0.5,0.2,0.9,0.3l-0.9,0.9c-0.2,0-0.3-0.2-0.3-0.2c-0.2,0-0.3,0-0.5,0c-0.2,0-0.2,0-0.3,0l-0.2,0.2
			c0,0.2,0.3,0.3,0.7,0.5c0.2,0.2,0.2,0.2,0.3,0.2c0.3,0.3,0.7,0.5,0.9,0.7c0.2,0.2,0.3,0.5,0.3,0.7c0,0.5-0.3,0.9-0.7,1.2
			c-0.3,0.3-0.9,0.5-1.6,0.5c-0.3,0-0.7-0.2-1-0.2C918.4,506.6,918.1,506.6,917.7,506.4L917.7,506.4z M925.4,505.7
			c0.3,0,0.7-0.2,0.9-0.3c0.2-0.3,0.2-0.7,0.2-1c0-0.5,0-0.7-0.2-1c-0.2-0.2-0.5-0.3-0.9-0.3c-0.2,0-0.5,0.2-0.7,0.3
			c-0.2,0.2-0.2,0.5-0.2,1c0,0.3,0,0.7,0.2,1C924.9,505.5,925.2,505.7,925.4,505.7L925.4,505.7z M928.2,504.3c0,0.7-0.2,1.4-0.7,1.9
			c-0.5,0.3-1.2,0.7-2.1,0.7c-0.7,0-1.4-0.3-1.9-0.7c-0.5-0.5-0.7-1.2-0.7-1.9c0-0.7,0.2-1.4,0.7-1.9c0.5-0.3,1.2-0.5,1.9-0.5
			c0.9,0,1.6,0.2,2.1,0.5C928,502.9,928.2,503.6,928.2,504.3L928.2,504.3z M932.9,503.3c-0.2,0-0.3-0.2-0.5-0.2c0,0-0.2,0-0.3,0
			c-0.3,0-0.7,0-0.9,0.3c-0.2,0.2-0.2,0.5-0.2,0.9c0,0.3,0,0.7,0.2,0.9c0.2,0.2,0.5,0.3,0.9,0.3c0.2,0,0.3,0,0.5,0
			c0-0.2,0.2-0.2,0.3-0.2v1.2c-0.2,0-0.5,0.2-0.7,0.2c-0.2,0-0.3,0.2-0.5,0.2c-0.9,0-1.4-0.3-1.9-0.7c-0.3-0.5-0.7-1.2-0.7-1.9
			c0-0.7,0.3-1.4,0.7-1.9c0.5-0.3,1-0.5,1.9-0.5c0.2,0,0.3,0,0.5,0c0.2,0,0.3,0,0.7,0.2V503.3L932.9,503.3z M933.9,500.7
			c0-0.3,0.2-0.5,0.3-0.7c0.2,0,0.3-0.2,0.7-0.2c0.3,0,0.5,0.2,0.7,0.2c0.2,0.2,0.3,0.3,0.3,0.7c0,0.2-0.2,0.3-0.3,0.5
			c-0.2,0.2-0.3,0.2-0.7,0.2c-0.3,0-0.5,0-0.7-0.2C934.1,501,933.9,500.8,933.9,500.7L933.9,500.7z M934.1,506.7v-4.9h1.7v4.9H934.1
			L934.1,506.7z M940.6,504.3c0-0.5,0-0.9-0.2-1c-0.2-0.2-0.3-0.3-0.5-0.3c-0.3,0-0.5,0.2-0.7,0.3c0,0.2-0.2,0.5-0.2,1
			c0,0.3,0.2,0.7,0.2,1c0.2,0.2,0.3,0.3,0.7,0.3c0.2,0,0.5-0.2,0.5-0.3C940.6,505,940.6,504.7,940.6,504.3L940.6,504.3z
			 M942.3,506.7h-1.7V506c-0.2,0.2-0.3,0.5-0.5,0.5c-0.3,0.2-0.5,0.3-0.9,0.3c-0.7,0-1-0.3-1.4-0.7c-0.3-0.5-0.5-1-0.5-1.9
			c0-0.7,0.2-1.4,0.5-1.7c0.3-0.5,0.9-0.7,1.4-0.7c0.3,0,0.5,0,0.9,0.2c0.2,0.2,0.3,0.3,0.5,0.5v-0.7h1.7V506.7L942.3,506.7z
			 M944,506.7v-3.8h-0.7v-1h0.7v-1.4h1.9v1.4h0.7v1H946v3.8H944L944,506.7z M947.7,500.7c0-0.3,0-0.5,0.2-0.7c0.2,0,0.5-0.2,0.7-0.2
			c0.3,0,0.5,0.2,0.9,0.2c0.2,0.2,0.2,0.3,0.2,0.7c0,0.2,0,0.3-0.2,0.5c-0.3,0.2-0.5,0.2-0.9,0.2c-0.2,0-0.5,0-0.7-0.2
			C947.7,501,947.7,500.8,947.7,500.7L947.7,500.7z M947.7,506.7v-4.9h1.9v4.9H947.7L947.7,506.7z M953.6,505.7
			c0.2,0,0.5-0.2,0.7-0.3c0.2-0.3,0.2-0.7,0.2-1c0-0.5,0-0.7-0.2-1c-0.2-0.2-0.5-0.3-0.7-0.3c-0.3,0-0.7,0.2-0.9,0.3
			c-0.2,0.2-0.2,0.5-0.2,1c0,0.3,0,0.7,0.2,1C952.9,505.5,953.3,505.7,953.6,505.7L953.6,505.7z M956.2,504.3c0,0.7-0.2,1.4-0.7,1.9
			c-0.5,0.3-1.2,0.7-1.9,0.7c-0.9,0-1.6-0.3-2.1-0.7c-0.5-0.5-0.7-1.2-0.7-1.9c0-0.7,0.2-1.4,0.7-1.9c0.5-0.3,1.2-0.5,2.1-0.5
			c0.7,0,1.4,0.2,1.9,0.5C956.1,502.9,956.2,503.6,956.2,504.3L956.2,504.3z M960.4,506.7v-3c0-0.3,0-0.5,0-0.5
			c-0.2-0.2-0.3-0.2-0.5-0.2c-0.2,0-0.3,0-0.5,0.2c0,0.2-0.2,0.3-0.2,0.5v3h-1.7v-4.9h1.7v0.7c0.2-0.2,0.5-0.3,0.7-0.5
			c0.3-0.2,0.7-0.2,1-0.2c0.5,0,0.9,0,1,0.3c0.2,0.2,0.3,0.5,0.3,1.2v3.3H960.4z"/>
		<rect x="850.4" y="466.7" class="st5" width="1" height="1"/>
		<rect x="801.3" y="459.2" class="st4" width="2.3" height="2.1"/>
	</g>
	<g>
		<polygon class="st2" points="867.5,271.6 868.6,268.6 865.5,270.6 		"/>
		<path class="st2" d="M900,279.2c5.1-3.8,10.1-7.7,15.1-11.5c-2.9,0.3-5.8,0.6-8.8,0.8c0.5-1.9,0.9-3.8,0.9-5.8
			c0.1-5.5-1.8-10.8-5.5-15.4c2.3-4.6,5.8-8.9,4.4-13.6c-2.6-9.2-15.5-8.9-22.6-3c-1.8,1.5-3.5,3.2-5,5c-11.9,1-21,7.2-24.5,16.9
			c-0.4,1.1-0.7,2.2-0.9,3.3c-6.2-5.3-10.2-11-11.3-17.2c-2,2.6-3.7,5-5.5,7.4c3,9.4,9.7,17.3,17.9,24.6c0,0,0,0,0,0
			c1.9,5.4,5.3,10.7,10.2,15.5l0.4-0.4c0.9,5.3,2.5,9.7,5.1,12.5c5.9,5.9,11.7,5,16.3-2.4c1.2-2.3,1.5-5.4,1.9-8.3
			C892.9,285.3,896.9,282.4,900,279.2z M894,278.2l-3.7-0.2l-0.4-0.9h-3.7l-0.6,0.9H882l5.5-7.4h3.9L894,278.2z M873.6,271l0.4-2.2
			l7.4,1.5l-0.4,2.2l-2.4-0.6l-1.3,5.9l-2.6-0.4l1.3-6.1L873.6,271z M892.3,265.1c-2.8-1.1-4.1-2.4-1.7-4.1c2.2,1.5,4.4,1.5,6.8,0
			c0,1.5,0.9,2,3,2C897.9,264.9,895.1,266.4,892.3,265.1z M897.9,237.2c-0.2,1.7-0.8,3.2-1.6,4.7c-1.9-1.5-4-2.8-6.3-4
			c0.5-0.6,1-1.1,1.5-1.7C897.1,229.6,898.4,232.3,897.9,237.2z M889.2,238.7l-0.2,0.4c2.4,1.2,4.6,2.6,6.5,4.1
			c-0.5,0.9-1.1,1.9-1.6,2.8c1.6,1,2.9,1.9,4.2,2.8l-4.2,0.3l-2.4,2.4l2.6,3.1l-6.1,5.4l-2.2,0.6l1.5,1.8l-6,5.7
			c-2.3-0.3-4.4-0.8-6.3-1.4C877.5,257,881.3,248.1,889.2,238.7z M865.1,264.2c-1.9-1.1-3.7-2.2-5.5-3.4c1.6-2.4,9.9-13.8,9.9-13.8
			l0.2-7.8c2.3-0.9,4.8-1.5,7.5-1.8C871.5,244.7,867.8,253.9,865.1,264.2z M854.2,269.1l4.3-7.2l2.2,1.5l-4.1,7L854.2,269.1z
			 M849.2,261l-2,2l-1.8-2l5.7-5.7l4.6,4.6l-1.5,1.3l-2.6-2.6l-1.1,1.1l2.2,2l-1.5,1.3L849.2,261z M860,278.7
			c0.9-0.7,2.1-0.8,3.2-0.7c0.3,0.2,0.5,0.4,0.8,0.6c0.1,1.9,0.3,3.8,0.6,5.6C862.8,282.4,861.3,280.6,860,278.7z M869.4,275.8
			l-3-1.5l0.4-1.1l-3.1-1.5l-1.1,0.7l-3-1.5l9.2-5.2l3.1,1.5L869.4,275.8z M879.9,284.3c-0.4,2-0.6,3.9-0.9,5.9
			c-1.1,5.4-2.8,5.5-4.1,0.2c-0.9-4.1-0.9-8.1-1.5-12.4c6.6,1.6,14.5,2.1,23,2.5c-2.3,1.9-5.1,3.7-8.2,5.2c0.1-0.4,0.1-0.8,0.2-1.2
			C885.8,284.1,882.5,284.7,879.9,284.3z"/>
		<path class="st2" d="M852.7,273.6c-5.5,0.4-10.9-0.4-15.7-2c-0.6,3.3-0.7,6.7,2,9.2c6.3,1.5,12.8,0.7,19.1-0.6
			C854,278,852.2,275.8,852.7,273.6z"/>
		<path class="st2" d="M855.3,244.5c1.8-2.2,3.5-4.6,5.2-6.8c-6.7-3.1-12.4-3.9-17.2-2.2c0.4,2.2,0.7,4.6,1.1,6.8
			C847.7,241.2,851.4,242,855.3,244.5z"/>
		<polygon class="st2" points="883.8,258.6 885.1,260.3 889.9,253.1 885.8,253.2 886.2,256.6 		"/>
		<polygon class="st2" points="889.7,275.6 889,272.8 887.3,275.4 		"/>
	</g>
	<g>
		<g>
			<path class="st2" d="M531.6,454.4v-38.2H570l14.5,14.1v39.4H547l-2.6-2.6h38.2v-35h-17.4v12.5l5.1-11h2.1v10.5l-9.9,21.8h-19.2
				L531.6,454.4L531.6,454.4z M547,452v7.3h11.5l3.3-7.3H547L547,452z M573.8,433.7v32.2h7.1v-32.2H573.8L573.8,433.7z M547,448.6
				v1.6h15.7l0.5-1.4L547,448.6L547,448.6z M547,432.1v15h16.6v-15H547z"/>
			<path class="st2" d="M529,506.7h-8l-1.4,3.1h-8l16.6-32.4h0.9v12.5l0,0l-4.9,10.3h4.9V506.7L529,506.7z M597.5,477.4h7v32.4h-7
				V477.4L597.5,477.4z M588.8,477.4h7v32.4h-7V477.4L588.8,477.4z M566.5,477.4h7v24.9l12.7-24.9h0.9v12.5l0,0l-5.1,10.5h5.1v6.3
				h-8.2l-1.4,3.1h-11V477.4L566.5,477.4z M530.9,477.4h7v3.3c2.4-1.7,4.9-3.1,8.5-3.5v7.1c-4.9,0.9-7.8,5.2-7.8,9.4
				c0,4.9,3.7,8.7,7.8,9.2v6.8c-4.5-0.5-7.1-2.4-8.5-3.5v3.5h-7v-14.5c-0.2-0.5-0.2-1-0.2-1.6s0-1,0.2-1.6V477.4L530.9,477.4z
				 M564.8,506.7h-8.2c-0.3,1.2-0.9,2.3-1.4,3.1c-2.3,0-6.8,0-6.8,0l0,0v-2.1v-4.4c0.2,0,0.3,0,0.5,0c0.5,0,1,0,1.7,0l13.2-26h0.9
				v12.5l0,0l-5.1,10.3h5.1V506.7L564.8,506.7z M548.4,477.1v7.1c3.1,0,5.9,1.4,7.8,4.4l3.5-6.8
				C556.6,478.8,552.6,477.2,548.4,477.1z"/>
		</g>
		<g>
			<path class="st1" d="M512.6,533.3v-12.9h1.4v12.9H512.6z"/>
			<path class="st1" d="M516.2,529.2l1.3-0.1c0.1,0.7,0.2,1.3,0.5,1.7c0.2,0.4,0.6,0.7,1.1,1s1,0.4,1.6,0.4c0.8,0,1.5-0.2,1.9-0.6
				s0.7-0.9,0.7-1.6c0-0.4-0.1-0.7-0.3-1c-0.2-0.3-0.4-0.5-0.8-0.7c-0.3-0.2-1.1-0.4-2.2-0.8c-1-0.3-1.7-0.6-2.1-0.9s-0.8-0.7-1-1.1
				s-0.4-1-0.4-1.6c0-1,0.3-1.9,1-2.6s1.6-1,2.7-1c0.8,0,1.5,0.2,2.1,0.5s1,0.8,1.4,1.3s0.5,1.3,0.5,2l-1.3,0.1
				c-0.1-0.8-0.3-1.5-0.8-1.9s-1-0.6-1.8-0.6c-0.8,0-1.4,0.2-1.8,0.5c-0.4,0.4-0.6,0.8-0.6,1.4c0,0.5,0.2,0.9,0.5,1.2s1,0.6,2.1,0.9
				c1,0.3,1.8,0.5,2.2,0.8c0.6,0.3,1.1,0.8,1.5,1.3c0.3,0.5,0.5,1.2,0.5,1.9c0,0.7-0.2,1.4-0.5,2c-0.3,0.6-0.8,1.1-1.4,1.4
				c-0.6,0.3-1.3,0.5-2.1,0.5c-1.3,0-2.3-0.4-3.1-1.2S516.2,530.5,516.2,529.2z"/>
			<path class="st1" d="M526.3,527.1c0-2.2,0.5-3.9,1.5-5.1s2.2-1.8,3.6-1.8c0.9,0,1.8,0.3,2.5,0.8s1.4,1.3,1.8,2.3s0.7,2.2,0.7,3.6
				c0,1.9-0.4,3.5-1.3,4.7c-1,1.3-2.2,2-3.8,2c-1.6,0-2.8-0.7-3.8-2C526.7,530.3,526.3,528.8,526.3,527.1z M527.7,527.1
				c0,1.6,0.4,2.8,1.1,3.7c0.7,0.9,1.6,1.3,2.6,1.3c1,0,1.9-0.4,2.6-1.3s1-2.2,1-3.9c0-1.1-0.2-2.1-0.5-3c-0.3-0.7-0.7-1.2-1.2-1.6
				s-1.2-0.6-1.8-0.6c-1.1,0-1.9,0.4-2.6,1.3S527.7,525.3,527.7,527.1z"/>
			<path class="st1" d="M538,530.4l1.2-0.1c0.2,1.4,0.8,2,1.8,2c0.4,0,0.8-0.1,1.2-0.4c0.4-0.3,0.7-0.8,0.9-1.6s0.4-1.6,0.4-2.6
				v-0.3c-0.3,0.5-0.6,0.9-1.1,1.2s-0.9,0.5-1.4,0.5c-0.9,0-1.6-0.4-2.2-1.1c-0.6-0.8-0.9-1.8-0.9-3.1c0-1.3,0.3-2.4,1-3.2
				c0.6-0.8,1.4-1.2,2.4-1.2c0.7,0,1.3,0.2,1.8,0.7s1,1.1,1.3,1.9s0.5,2.1,0.5,3.6c0,1.8-0.2,3.1-0.5,4.1s-0.8,1.7-1.4,2.1
				s-1.2,0.7-1.9,0.7c-0.8,0-1.5-0.3-2-0.8S538.1,531.4,538,530.4z M543.3,524.7c0-0.9-0.2-1.6-0.6-2.2s-0.9-0.8-1.4-0.8
				c-0.6,0-1.1,0.3-1.5,0.8s-0.7,1.3-0.7,2.3c0,0.8,0.2,1.5,0.6,2c0.4,0.5,0.9,0.8,1.5,0.8c0.6,0,1.1-0.3,1.5-0.8
				C543.1,526.3,543.3,525.6,543.3,524.7z"/>
			<path class="st1" d="M546.2,527c0-2.2,0.3-3.8,0.9-4.9s1.4-1.7,2.6-1.7c1,0,1.8,0.5,2.4,1.4c0.7,1.1,1.1,2.8,1.1,5.2
				c0,2.2-0.3,3.8-0.9,4.9c-0.6,1.1-1.4,1.7-2.6,1.7c-1,0-1.8-0.5-2.5-1.5S546.2,529.4,546.2,527z M547.5,527c0,2.1,0.2,3.5,0.6,4.2
				c0.4,0.7,0.9,1.1,1.5,1.1c0.6,0,1.1-0.4,1.5-1.1c0.4-0.7,0.6-2.1,0.6-4.2c0-2.1-0.2-3.5-0.6-4.2c-0.4-0.7-0.9-1.1-1.6-1.1
				c-0.6,0-1.1,0.4-1.5,1.1C547.7,523.5,547.5,524.9,547.5,527z"/>
			<path class="st1" d="M554.6,527c0-2.2,0.3-3.8,0.9-4.9s1.4-1.7,2.6-1.7c1,0,1.8,0.5,2.4,1.4c0.7,1.1,1.1,2.8,1.1,5.2
				c0,2.2-0.3,3.8-0.9,4.9c-0.6,1.1-1.4,1.7-2.6,1.7c-1,0-1.8-0.5-2.5-1.5S554.6,529.4,554.6,527z M555.9,527c0,2.1,0.2,3.5,0.6,4.2
				c0.4,0.7,0.9,1.1,1.5,1.1c0.6,0,1.1-0.4,1.5-1.1c0.4-0.7,0.6-2.1,0.6-4.2c0-2.1-0.2-3.5-0.6-4.2c-0.4-0.7-0.9-1.1-1.6-1.1
				c-0.6,0-1.1,0.4-1.5,1.1C556.1,523.5,555.9,524.9,555.9,527z"/>
			<path class="st1" d="M567.8,533.3h-1.3v-10.1c-0.3,0.4-0.7,0.7-1.2,1.1s-1,0.6-1.4,0.8v-1.5c0.7-0.4,1.3-0.9,1.9-1.5
				s0.9-1.2,1.2-1.7h0.8V533.3z"/>
			<path class="st1" d="M572.1,525.8V524h1.5v1.8H572.1z M572.1,533.3v-1.8h1.5v1.8H572.1z"/>
			<path class="st1" d="M582.5,531.8v1.5h-7c0-0.6,0.2-1.3,0.6-2.1c0.4-0.8,1.1-1.7,2.1-2.7c1.2-1.2,2-2.1,2.4-2.8
				c0.4-0.7,0.6-1.3,0.6-1.8c0-0.7-0.2-1.2-0.6-1.6s-0.9-0.6-1.4-0.6c-0.6,0-1.1,0.2-1.5,0.7c-0.4,0.4-0.6,1.1-0.6,1.9l-1.3-0.2
				c0.1-1.2,0.4-2.2,1.1-2.8c0.6-0.6,1.4-0.9,2.4-0.9c1.1,0,1.9,0.4,2.4,1.1c0.6,0.7,0.8,1.6,0.8,2.5c0,0.8-0.2,1.6-0.7,2.4
				c-0.4,0.8-1.3,1.8-2.5,3c-0.8,0.8-1.3,1.3-1.5,1.6s-0.4,0.6-0.5,0.9H582.5z"/>
			<path class="st1" d="M584,527c0-2.2,0.3-3.8,0.9-4.9s1.4-1.7,2.6-1.7c1,0,1.8,0.5,2.4,1.4c0.7,1.1,1.1,2.8,1.1,5.2
				c0,2.2-0.3,3.8-0.9,4.9c-0.6,1.1-1.4,1.7-2.6,1.7c-1,0-1.8-0.5-2.5-1.5S584,529.4,584,527z M585.3,527c0,2.1,0.2,3.5,0.6,4.2
				c0.4,0.7,0.9,1.1,1.5,1.1c0.6,0,1.1-0.4,1.5-1.1c0.4-0.7,0.6-2.1,0.6-4.2c0-2.1-0.2-3.5-0.6-4.2c-0.4-0.7-0.9-1.1-1.6-1.1
				c-0.6,0-1.1,0.4-1.5,1.1C585.5,523.5,585.3,524.9,585.3,527z"/>
			<path class="st1" d="M592.4,527c0-2.2,0.3-3.8,0.9-4.9s1.4-1.7,2.6-1.7c1,0,1.8,0.5,2.4,1.4c0.7,1.1,1.1,2.8,1.1,5.2
				c0,2.2-0.3,3.8-0.9,4.9c-0.6,1.1-1.4,1.7-2.6,1.7c-1,0-1.8-0.5-2.5-1.5S592.4,529.4,592.4,527z M593.7,527c0,2.1,0.2,3.5,0.6,4.2
				c0.4,0.7,0.9,1.1,1.5,1.1c0.6,0,1.1-0.4,1.5-1.1c0.4-0.7,0.6-2.1,0.6-4.2c0-2.1-0.2-3.5-0.6-4.2c-0.4-0.7-0.9-1.1-1.6-1.1
				c-0.6,0-1.1,0.4-1.5,1.1C593.9,523.5,593.7,524.9,593.7,527z"/>
			<path class="st1" d="M602.8,526.4c-0.5-0.2-0.9-0.6-1.2-1c-0.3-0.4-0.4-1-0.4-1.6c0-1,0.3-1.8,0.9-2.4c0.6-0.6,1.3-0.9,2.2-0.9
				c0.9,0,1.6,0.3,2.2,0.9c0.6,0.6,0.9,1.4,0.9,2.4c0,0.6-0.1,1.1-0.4,1.6c-0.3,0.4-0.6,0.8-1.2,1c0.6,0.3,1.1,0.7,1.5,1.2
				s0.5,1.3,0.5,2.1c0,1.1-0.3,2.1-1,2.8c-0.7,0.7-1.5,1.1-2.5,1.1c-1,0-1.8-0.4-2.5-1.1c-0.7-0.7-1-1.7-1-2.9
				c0-0.9,0.2-1.6,0.5-2.1C601.7,526.9,602.2,526.6,602.8,526.4z M602.1,529.6c0,0.8,0.2,1.4,0.6,1.9c0.4,0.5,0.9,0.7,1.5,0.7
				c0.6,0,1.1-0.2,1.5-0.7c0.4-0.5,0.6-1.1,0.6-1.9c0-0.8-0.2-1.4-0.6-1.9c-0.4-0.5-0.9-0.7-1.5-0.7c-0.6,0-1.1,0.2-1.5,0.7
				C602.3,528.2,602.1,528.9,602.1,529.6z M602.5,523.7c0,0.6,0.2,1.1,0.5,1.5c0.3,0.4,0.7,0.6,1.2,0.6c0.5,0,0.9-0.2,1.2-0.6
				c0.3-0.4,0.5-0.8,0.5-1.4c0-0.6-0.2-1.1-0.5-1.5c-0.3-0.4-0.7-0.6-1.2-0.6c-0.5,0-0.9,0.2-1.2,0.6S602.5,523.1,602.5,523.7z"/>
		</g>
	</g>
</g>
</svg>
