<?xml version="1.0" encoding="utf-8"?>
<!-- Generator: Adobe Illustrator 22.0.1, SVG Export Plug-In . SVG Version: 6.00 Build 0)  -->
<svg version="1.1" id="Layer_1" xmlns="http://www.w3.org/2000/svg" xmlns:xlink="http://www.w3.org/1999/xlink" x="0px" y="0px"
	 viewBox="0 0 500 500" style="enable-background:new 0 0 500 500;" xml:space="preserve">
<style type="text/css">
	.st0{fill:#FFFFFF;}
</style>
<g id="Layer_1_1_">
	<g>
		<g>
			<path class="st0" d="M374.7,416.7H125.6c-9.9,0-17.9-7.6-17.9-17v-300c0-9.2,8.2-16.8,17.9-16.8h249.2c9.9,0,17.9,7.5,17.9,16.8
				v299.9C392.7,409.1,384.6,416.7,374.7,416.7z M125.6,91c-5.3,0-9.9,4-9.9,8.7v299.9c0,4.9,4.5,9,9.9,9h249.2c5.4,0,9.9-4,9.9-9
				V99.7c0-4.9-4.4-8.7-9.9-8.7C374.7,91,125.6,91,125.6,91z"/>
		</g>
		<g>
			<g>
				<path class="st0" d="M160.7,119.2V132h-7.9v65.1h-7.2V132h-7.9v-12.8H160.7z"/>
			</g>
			<g>
				<path class="st0" d="M163.8,119.2h13.4c6,0,9.5,6.8,9.5,20c0,10.4-1.9,17.4-6,19.3v0.2c4.9,1.4,5.6,7.3,5.8,23.8
					c0,8.2,0.2,12.4,1.7,13.9v0.7h-7.9c-0.7-2.2-0.9-5.1-0.9-8.2l-0.2-14.9c-0.1-6.1-1.3-9.9-4.3-9.9h-3.9v33h-7.2V119.2z
					 M170.9,153.3h3c3.4,0,5.4-3.3,5.4-11.7c0-7.2-1.8-10.8-5-10.8h-3.4L170.9,153.3L170.9,153.3z"/>
			</g>
			<g>
				<path class="st0" d="M198.6,119.2h9l9.5,77.9h-7.5l-1.7-16.5h-9.5l-1.7,16.5h-7.6L198.6,119.2z M199.6,167.8h7.1l-3.4-35h-0.1
					L199.6,167.8z"/>
			</g>
			<g>
				<path class="st0" d="M227.8,119.2l8.7,53.4h0.1v-53.4h6.6v77.9h-8.2l-8.9-54.6h-0.1v54.6h-6.6v-77.9L227.8,119.2L227.8,119.2z"
					/>
			</g>
			<g>
				<path class="st0" d="M254.2,172.8v2.3c0,7.3,1,12,4.8,12c2.2,0,4.3-3.1,4.3-9.6c0-7.1-1.7-9.7-6.4-13.3
					c-6.4-4.8-9.4-10.6-9.4-23.6c0-15.2,4.3-22.9,11.1-22.9c6.4,0,11.1,6,11.1,20.9v2.2h-7c0-7.3-1.1-11.6-3.9-11.6
					c-3.2,0-4.1,4.4-4.1,9.1c0,4.8,0.7,7.7,3.8,10.6l5.5,5.2c5.4,5.1,6.9,11.2,6.9,20.6c0,16.5-4.6,23.9-12.5,23.9
					c-8.2,0-11.4-8.3-11.4-22.7v-3.2h7.3V172.8z"/>
			</g>
			<g>
				<path class="st0" d="M274.4,197.1v-77.9h7.2v65.1h12.8v12.8H274.4z"/>
			</g>
			<g>
				<path class="st0" d="M298,197.1v-77.9h7.2v77.9L298,197.1L298,197.1z"/>
			</g>
			<g>
				<path class="st0" d="M318.9,119.2l8.7,53.4h0.1v-53.4h6.6v77.9h-8.2l-8.9-54.6h-0.1v54.6h-6.6v-77.9L318.9,119.2L318.9,119.2z"
					/>
			</g>
			<g>
				<path class="st0" d="M359.5,119.2V132h-12.8v18.4h12.1v12.8h-12.1v20.9h13.3V197h-20.6v-77.9h20.1V119.2z"/>
			</g>
		</g>
		<g>
			<g>
				<path class="st0" d="M175.2,271.8l-1.7-8.1h-8.4l-1.7,8.1h-2.8l7.1-31.5h3.4l7,31.5H175.2z M165.6,260.5h7.1l-3.5-16.9
					L165.6,260.5z"/>
			</g>
			<g>
				<path class="st0" d="M186.9,240.3v31.5h-2.8v-31.5L186.9,240.3L186.9,240.3z"/>
			</g>
			<g>
				<path class="st0" d="M202.4,258.2h-3.7v13.6H196v-31.5h5.6c2.7,0,4.6,0.8,6.1,2.2c1.3,1.5,2.1,3.7,2.1,6.6c0,2.2-0.4,4-1.2,5.3
					s-2,2.4-3.5,3.1l5.9,14.3h-3.2L202.4,258.2z M202.1,255.2c1.7,0,2.9-0.4,3.7-1.4c0.9-1,1.2-2.5,1.2-4.6c0-2-0.4-3.4-1.2-4.3
					c-0.9-0.9-2.2-1.3-4-1.3h-2.9v11.7L202.1,255.2L202.1,255.2z"/>
			</g>
			<g>
				<path class="st0" d="M247.4,240.5c0.9,0.4,1.8,1.2,2.7,2.3l-1.4,2.5c-0.7-0.8-1.3-1.3-2.1-1.8c-0.7-0.3-1.4-0.6-2.2-0.6
					c-1.9,0-3.4,1-4.5,3.1c-1.1,2.1-1.7,5.3-1.7,10c0,4.3,0.6,7.6,1.7,9.7s2.7,3.2,4.5,3.2c1,0,1.8-0.2,2.4-0.7
					c0.7-0.4,1.4-1.1,2.2-2l1.3,2.5c-0.7,1-1.5,1.9-2.5,2.5c-1,0.7-2.2,1-3.5,1c-1.8,0-3.3-0.7-4.6-1.9c-1.3-1.2-2.4-3.1-3.2-5.5
					c-0.8-2.4-1.1-5.4-1.1-8.9c0-3.4,0.4-6.4,1.2-8.9c0.8-2.4,1.9-4.3,3.2-5.5s2.9-1.9,4.5-1.9C245.6,239.7,246.6,239.9,247.4,240.5
					z"/>
			</g>
			<g>
				<path class="st0" d="M268.6,271.8l-1.7-8.1h-8.4l-1.7,8.1h-2.8l7.1-31.5h3.4l7,31.5H268.6z M259.2,260.5h7.1l-3.5-16.9
					L259.2,260.5z"/>
			</g>
			<g>
				<path class="st0" d="M284.1,258.2h-3.7v13.6h-2.8v-31.5h5.6c2.7,0,4.6,0.8,6.1,2.2c1.3,1.5,2.1,3.7,2.1,6.6c0,2.2-0.4,4-1.2,5.3
					s-2,2.4-3.5,3.1l5.9,14.3h-3.2L284.1,258.2z M283.6,255.2c1.7,0,2.9-0.4,3.7-1.4c0.9-1,1.2-2.5,1.2-4.6c0-2-0.4-3.4-1.2-4.3
					c-0.9-0.9-2.2-1.3-4-1.3h-2.9v11.7L283.6,255.2L283.6,255.2z"/>
			</g>
			<g>
				<path class="st0" d="M310.5,240.6c1,0.6,2,1.4,2.9,2.5l-1.7,2.4c-0.8-0.9-1.5-1.5-2.2-2c-0.8-0.4-1.5-0.6-2.5-0.6
					c-1.1,0-2.2,0.4-3.2,1.3c-1,0.9-1.8,2.3-2.3,4.2c-0.6,1.9-0.9,4.4-0.9,7.4c0,4.5,0.6,7.7,1.5,9.9c1,2.1,2.5,3.2,4.6,3.2
					c1.5,0,3-0.4,4.2-1.4v-9.9h-4l-0.3-3.2h7v15.2c-2.2,1.9-4.5,2.8-7,2.8c-2.9,0-5.1-1.4-6.6-4.2c-1.5-2.8-2.4-6.9-2.4-12.2
					c0-3.4,0.4-6.3,1.3-8.9c0.9-2.4,2-4.3,3.4-5.5c1.4-1.2,3-1.9,4.6-1.9C308.3,239.7,309.5,240.1,310.5,240.6z"/>
			</g>
			<g>
				<path class="st0" d="M334.1,241.6c1.3,1.2,2.4,3.1,3.2,5.5s1.1,5.4,1.1,8.9c0,3.4-0.3,6.3-1.1,8.7c-0.8,2.4-1.8,4.3-3.2,5.5
					c-1.3,1.2-3,1.9-4.8,1.9c-1.8,0-3.4-0.7-4.8-1.9c-1.3-1.2-2.4-3.1-3.2-5.5c-0.8-2.4-1.1-5.3-1.1-8.9c0-3.4,0.3-6.3,1.1-8.7
					s1.8-4.3,3.2-5.6c1.3-1.3,3-2,4.8-2C331.1,239.7,332.7,240.4,334.1,241.6z M324.7,246.3c-1.1,2.1-1.7,5.4-1.7,9.9
					c0,4.4,0.6,7.6,1.7,9.7s2.7,3.2,4.5,3.2c2,0,3.5-1,4.5-3.1c1.1-2.1,1.7-5.3,1.7-9.9c0-4.4-0.6-7.7-1.7-9.9s-2.7-3.2-4.5-3.2
					C327.4,243,325.8,244.2,324.7,246.3z"/>
			</g>
			<g>
				<path class="st0" d="M171.6,295.2c1,0.6,2,1.5,2.9,2.8l-1.4,2.4c-0.8-1-1.7-1.7-2.4-2.1c-0.8-0.4-1.7-0.7-2.5-0.7
					c-1.2,0-2.2,0.4-2.9,1.2c-0.8,0.8-1.1,2-1.1,3.4c0,1,0.1,1.8,0.4,2.4c0.2,0.7,0.8,1.2,1.4,1.8c0.7,0.6,1.7,1.1,3,1.7
					c1.3,0.7,2.5,1.2,3.4,2c0.9,0.7,1.7,1.7,2.2,2.9c0.6,1.2,0.8,2.8,0.8,4.6c0,1.9-0.3,3.4-0.9,4.9c-0.7,1.4-1.4,2.5-2.7,3.3
					c-1.1,0.8-2.5,1.2-4.1,1.2c-3,0-5.4-1.3-7.3-4l1.5-2.4c0.9,1.1,1.8,1.9,2.7,2.4c0.9,0.6,1.9,0.8,3.1,0.8c1.4,0,2.5-0.6,3.4-1.5
					c0.9-1,1.3-2.4,1.3-4.3c0-1.1-0.1-2-0.4-2.8c-0.3-0.8-0.8-1.3-1.4-1.9c-0.7-0.6-1.7-1.1-2.9-1.7c-2.2-1-3.9-2.1-4.9-3.5
					c-1-1.3-1.5-3.2-1.5-5.5c0-1.5,0.3-3,0.9-4.2c0.6-1.2,1.3-2.2,2.4-2.9c1-0.7,2.2-1,3.5-1C169.4,294.3,170.6,294.6,171.6,295.2z"
					/>
			</g>
			<g>
				<path class="st0" d="M198.7,294.9l-0.3,3.2h-8.5v10.6h7.4v3.2h-7.4v11.3h9.1v3.2h-11.8v-31.5H198.7z"/>
			</g>
			<g>
				<path class="st0" d="M217.4,312.9h-3.7v13.5H211v-31.5h5.6c2.7,0,4.6,0.8,6.1,2.2c1.3,1.5,2.1,3.7,2.1,6.6c0,2.2-0.4,4-1.2,5.3
					c-0.8,1.3-2,2.4-3.5,3.1l5.9,14.3h-3.2L217.4,312.9z M217.1,309.8c1.7,0,2.9-0.4,3.7-1.4c0.9-1,1.2-2.5,1.2-4.6
					c0-2-0.4-3.4-1.2-4.3c-0.9-0.9-2.2-1.3-4-1.3h-2.9v11.7H217.1z"/>
			</g>
			<g>
				<path class="st0" d="M251.2,294.9l-7,31.5h-3l-7.1-31.5h3l5.6,27.2l5.6-27.2H251.2z"/>
			</g>
			<g>
				<path class="st0" d="M264.7,294.9v31.5h-2.8v-31.5H264.7z"/>
			</g>
			<g>
				<path class="st0" d="M289.3,295.1c0.9,0.4,1.8,1.2,2.7,2.3l-1.4,2.5c-0.7-0.8-1.3-1.3-2.1-1.8c-0.7-0.3-1.4-0.6-2.2-0.6
					c-1.9,0-3.4,1-4.5,3.1c-1.1,2.1-1.7,5.3-1.7,10c0,4.3,0.6,7.6,1.7,9.7s2.7,3.2,4.5,3.2c1,0,1.8-0.2,2.4-0.7
					c0.7-0.4,1.4-1.1,2.2-2l1.3,2.5c-0.7,1-1.5,1.9-2.5,2.5s-2.2,1-3.5,1c-1.8,0-3.3-0.7-4.6-1.9c-1.3-1.2-2.4-3.1-3.2-5.5
					c-0.8-2.4-1.1-5.4-1.1-8.9c0-3.4,0.4-6.4,1.2-8.9c0.8-2.4,1.9-4.3,3.2-5.5s2.9-1.9,4.5-1.9C287.3,294.3,288.4,294.6,289.3,295.1
					z"/>
			</g>
			<g>
				<path class="st0" d="M315,294.9l-0.3,3.2h-8.5v10.6h7.4v3.2h-7.4v11.3h9.1v3.2h-11.8v-31.5H315z"/>
			</g>
			<g>
				<path class="st0" d="M336.1,295.2c1,0.6,2,1.5,2.9,2.8l-1.4,2.4c-0.8-1-1.7-1.7-2.4-2.1c-0.8-0.4-1.7-0.7-2.5-0.7
					c-1.2,0-2.2,0.4-2.9,1.2c-0.7,0.8-1.1,2-1.1,3.4c0,1,0.1,1.8,0.4,2.4c0.2,0.7,0.8,1.2,1.4,1.8s1.7,1.1,3,1.7
					c1.3,0.7,2.5,1.2,3.4,2c0.9,0.7,1.7,1.7,2.2,2.9s0.8,2.8,0.8,4.6c0,1.9-0.3,3.4-0.9,4.9c-0.7,1.4-1.4,2.5-2.7,3.3
					c-1.1,0.8-2.5,1.2-4.1,1.2c-3,0-5.4-1.3-7.3-4l1.5-2.4c0.9,1.1,1.8,1.9,2.7,2.4s1.9,0.8,3.1,0.8c1.4,0,2.5-0.6,3.4-1.5
					c0.9-1,1.3-2.4,1.3-4.3c0-1.1-0.1-2-0.4-2.8c-0.3-0.8-0.8-1.3-1.4-1.9c-0.7-0.6-1.7-1.1-2.9-1.7c-2.2-1-3.9-2.1-4.9-3.5
					c-1-1.3-1.5-3.2-1.5-5.5c0-1.5,0.3-3,0.9-4.2c0.6-1.2,1.3-2.2,2.4-2.9c1-0.7,2.2-1,3.5-1C333.8,294.3,335,294.6,336.1,295.2z"/>
			</g>
			<g>
				<path class="st0" d="M176,351.9c1.4,1.5,2.2,4,2.2,7.3c0,3.4-0.8,6-2.3,7.6c-1.5,1.7-3.5,2.5-6.1,2.5H167v11.7h-2.8v-31.5h5.5
					C172.5,349.4,174.6,350.3,176,351.9z M173.9,364.6c0.9-1,1.4-2.8,1.4-5.4c0-2.3-0.4-4-1.4-5.1c-0.9-1-2.3-1.5-4.1-1.5H167V366
					h2.8C171.6,366.1,172.9,365.6,173.9,364.6z"/>
			</g>
			<g>
				<path class="st0" d="M202.8,349.4l-7,31.5h-3l-7.1-31.5h3l5.6,27.2l5.6-27.2H202.8z"/>
			</g>
			<g>
				<path class="st0" d="M226,349.4l-0.3,3.4h-6.1V381h-2.8v-28.1h-6.3v-3.4H226z"/>
			</g>
			<g>
				<path class="st0" d="M232.7,376.4c0.4,0.6,0.6,1.2,0.6,2.1c0,0.8-0.2,1.5-0.6,2.1c-0.3,0.6-0.9,0.9-1.4,0.9
					c-0.6,0-1-0.3-1.4-0.9c-0.3-0.6-0.6-1.3-0.6-2.1c0-0.8,0.2-1.4,0.6-2.1c0.4-0.6,0.9-0.9,1.4-0.9
					C231.8,375.7,232.3,375.9,232.7,376.4z"/>
			</g>
			<g>
				<path class="st0" d="M275.3,349.4v28h9l-0.3,3.4h-11.4v-31.5h2.8V349.4z"/>
			</g>
			<g>
				<path class="st0" d="M305.2,349.4l-0.3,3.4h-6.1V381H296v-28.1h-6.2v-3.4H305.2z"/>
			</g>
			<g>
				<path class="st0" d="M328,352.7c2,2.2,3,6.3,3,12.3c0,5.9-1,10-3,12.4c-2,2.4-4.3,3.5-7.2,3.5h-5.1v-31.5h4.5
					C323.4,349.4,326,350.5,328,352.7z M318.4,352.6v25.1h2.5c2.1,0,3.8-0.9,5.1-2.8c1.3-1.9,2-5.2,2-10c0-3.4-0.3-6-1-7.9
					c-0.7-1.8-1.5-3-2.5-3.7c-1-0.7-2.2-0.9-3.7-0.9L318.4,352.6L318.4,352.6z"/>
			</g>
			<g>
				<path class="st0" d="M337.2,376.4c0.3,0.6,0.6,1.2,0.6,2.1c0,0.8-0.2,1.5-0.6,2.1c-0.4,0.6-0.9,0.9-1.4,0.9
					c-0.6,0-1-0.3-1.4-0.9c-0.4-0.6-0.6-1.3-0.6-2.1c0-0.8,0.2-1.4,0.6-2.1c0.3-0.6,0.9-0.9,1.4-0.9
					C336.3,375.7,336.8,375.9,337.2,376.4z"/>
			</g>
		</g>
		<g>
			<rect x="137.1" y="216.4" class="st0" width="226.3" height="2.9"/>
		</g>
	</g>
</g>
</svg>
